{
DisplayStrings = (
"/ii-deva"
);
classes = (
{
automatic = 1;
code = "iMatra-deva iMatra-deva.0 iMatra-deva.05 iMatra-deva.10";
name = DevaIMatras;
},
{
automatic = 1;
code = "iMatra_reph-deva iMatra_reph-deva.0 iMatra_reph-deva.05 iMatra_reph-deva.10";
name = DevaIMatraRephs;
},
{
automatic = 1;
code = "iMatra_reph_anusvara-deva iMatra_reph_anusvara-deva.0 iMatra_reph_anusvara-deva.05 iMatra_reph_anusvara-deva.10";
name = DevaIMatraRephAnusvaras;
},
{
automatic = 1;
code = "ka-deva kha-deva ga-deva gha-deva nga-deva ca-deva cha-deva ja-deva jha-deva nya-deva tta-deva ttha-deva dda-deva ddha-deva nna-deva ta-deva tha-deva da-deva dha-deva na-deva nnna-deva pa-deva pha-deva ba-deva bha-deva ma-deva ya-deva ra-deva rra-deva la-deva lla-deva llla-deva va-deva sha-deva ssa-deva sa-deva ha-deva qa-deva khha-deva ghha-deva za-deva dddha-deva rha-deva fa-deva yya-deva zha-deva jjya-deva gga-deva jja-deva ddda-deva bba-deva la-deva.loclMAR sha-deva.loclMAR jha-deva.loclNEP zha-deva.loclNEP na-deva.post ya-deva.post ra-deva.post va-deva.post";
name = DevaFullforms;
},
{
automatic = 1;
code = "k-deva k_r-deva k_ss-deva kh-deva kh_r-deva g-deva g_r-deva gh-deva gh_r-deva ng-deva ng_k-deva c-deva ch-deva j-deva j_j-deva j_ny-deva jh-deva ny-deva tt-deva tth-deva tth_r-deva dd-deva dd_r-deva ddh-deva ddh_r-deva nn-deva t-deva t_t-deva t_r-deva th-deva d-deva dh-deva n-deva nnn-deva p-deva p_r-deva ph-deva b-deva bh-deva m-deva y-deva rr-deva l-deva ll-deva lll-deva v-deva sh-deva sh_r-deva ss-deva s-deva h-deva q-deva khh-deva ghh-deva z-deva f-deva l-deva.loclMAR sh-deva.loclMAR jh-deva.loclNEP";
name = DevaHalfforms;
},
{
automatic = 1;

glyphs = (
{
glyphname = A;
lastChange = "2014-09-14 11:46:27 +0100";
layers = (
{
layerId = "E777F328-EA17-4AE7-9EBA-8002E537BA4F";
name = Light;
paths = (
{
closed = 1;
nodes = (
"1 0 LINE",
"221 0 LINE",
"221 33 LINE",
"136 44 LINE",
"197 222 LINE",
"512 222 LINE",
"574 44 LINE",
"492 33 LINE",
"492 0 LINE",
"730 0 LINE",
"730 33 LINE",
"649 44 LINE",
"394 762 LINE",
"335 762 LINE",
"72 44 LINE",
"1 33 LINE"
);
},
{
closed = 1;
nodes = (
"212 267 LINE",
"356 680 LINE",
"392 566 LINE",
"497 267 LINE"
);
}
);
width = 729;
},
{
layerId = "39185045-6A8C-415A-8312-7B8F11386A4C";
name = Regular;
paths = (
{
closed = 1;
nodes = (
"1 0 LINE",
"234 0 LINE",
"234 42 LINE",
"153 56 LINE",
"206 213 LINE",
"499 213 LINE",
"551 56 LINE",
"470 42 LINE",
"470 0 LINE",
"728 0 LINE",
"728 42 LINE",
"650 56 LINE",
"407 758 LINE",
"325 758 LINE",
"71 56 LINE",
"1 42 LINE"
);
},
{
closed = 1;
nodes = (
"225 271 LINE",
"354 656 LINE",
"400 509 LINE",
"479 271 LINE"
);
}
);
width = 729;
}
);
unicode = 0041;
},
{
glyphname = Aacute;
lastChange = "2014-09-14 11:46:27 +0100";
layers = (
{
layerId = "E777F328-EA17-4AE7-9EBA-8002E537BA4F";
name = Light;
paths = (
{
closed = 1;
nodes = (
"361 785 LINE",
"420 809 OFFCURVE",
"491 848 OFFCURVE",
"538 884 CURVE",
"485 938 LINE",
"341 806 LINE"
);
},
{
closed = 1;
nodes = (
"1 0 LINE",
"221 0 LINE",
"221 33 LINE",
"136 44 LINE",
"197 222 LINE",
"512 222 LINE",
"574 44 LINE",
"492 33 LINE",
"492 0 LINE",
"730 0 LINE",
"730 33 LINE",
"649 44 LINE",
"394 762 LINE",
"335 762 LINE",
"72 44 LINE",
"1 33 LINE"
);
},
{
closed = 1;
nodes = (
"212 267 LINE",
"356 680 LINE",
"392 566 LINE",
"497 267 LINE"
);
}
);
width = 729;
},
{
layerId = "39185045-6A8C-415A-8312-7B8F11386A4C";
name = Regular;
paths = (
{
closed = 1;
nodes = (
"361 785 LINE",
"422 795 OFFCURVE",
"495 826 OFFCURVE",
"556 865 CURVE",
"485 938 LINE",
"335 811 LINE"
);
},
{
closed = 1;
nodes = (
"1 0 LINE",
"234 0 LINE",
"234 42 LINE",
"153 56 LINE",
"206 213 LINE",
"499 213 LINE",
"551 56 LINE",
"470 42 LINE",
"470 0 LINE",
"728 0 LINE",
"728 42 LINE",
"650 56 LINE",
"407 758 LINE",
"325 758 LINE",
"71 56 LINE",
"1 42 LINE"
);
},
{
closed = 1;
nodes = (
"225 271 LINE",
"354 656 LINE",
"400 509 LINE",
"479 271 LINE"
);
}
);
width = 729;
}
);
unicode = 00C1;
},
{
glyphname = Acircumflex;
lastChange = "2014-09-14 11:46:27 +0100";
layers = (
{
layerId = "E777F328-EA17-4AE7-9EBA-8002E537BA4F";
name = Light;
paths = (
{
closed = 1;
nodes = (
"228 790 LINE",
"364 887 LINE",
"497 790 LINE",
"531 809 LINE",
"400 938 LINE",
"329 938 LINE",
"197 808 LINE"
);
},
{
closed = 1;
nodes = (
"1 0 LINE",
"221 0 LINE",
"221 33 LINE",
"136 44 LINE",
"197 222 LINE",
"512 222 LINE",
"574 44 LINE",
"492 33 LINE",
"492 0 LINE",
"730 0 LINE",
"730 33 LINE",
"649 44 LINE",
"394 762 LINE",
"335 762 LINE",
"72 44 LINE",
"1 33 LINE"
);
},
{
closed = 1;
nodes = (
"212 267 LINE",
"356 680 LINE",
"392 566 LINE",
"497 267 LINE"
);
}
);
width = 729;
},
{
layerId = "39185045-6A8C-415A-8312-7B8F11386A4C";
name = Regular;
paths = (
{
closed = 1;
nodes = (
"234 789 LINE",
"366 871 LINE",
"495 789 LINE",
"537 813 LINE",
"412 938 LINE",
"319 938 LINE",
"196 812 LINE"
);
},
{
closed = 1;
nodes = (
"1 0 LINE",
"234 0 LINE",
"234 42 LINE",
"153 56 LINE",
"206 213 LINE",
"499 213 LINE",
"551 56 LINE",
"470 42 LINE",
"470 0 LINE",
"728 0 LINE",
"728 42 LINE",
"650 56 LINE",
"407 758 LINE",
"325 758 LINE",
"71 56 LINE",
"1 42 LINE"
);
},
{
closed = 1;
nodes = (
"225 271 LINE",
"354 656 LINE",
"400 509 LINE",
"479 271 LINE"
);
}
);
width = 729;
}
);
unicode = 00C2;
},
{
glyphname = Adieresis;
lastChange = "2014-09-14 16:20:51 +0100";
layers = (
{
layerId = "E777F328-EA17-4AE7-9EBA-8002E537BA4F";
name = Light;
paths = (
{
closed = 1;
nodes = (
"335 762 LINE",
"72 44 LINE",
"1 33 LINE",
"1 0 LINE",
"221 0 LINE",
"221 33 LINE",
"136 44 LINE",
"197 222 LINE",
"512 222 LINE",
"574 44 LINE",
"492 33 LINE",
"492 0 LINE",
"730 0 LINE",
"730 33 LINE",
"649 44 LINE",
"394 762 LINE"
);
},
{
closed = 1;
nodes = (
"392 566 LINE",
"497 267 LINE",
"212 267 LINE",
"356 680 LINE"
);
},
{
closed = 1;
nodes = (
"229 926 OFFCURVE",
"199 903 OFFCURVE",
"199 872 CURVE SMOOTH",
"199 843 OFFCURVE",
"222 825 OFFCURVE",
"247 825 CURVE SMOOTH",
"276 825 OFFCURVE",
"304 847 OFFCURVE",
"304 880 CURVE SMOOTH",
"304 905 OFFCURVE",
"289 926 OFFCURVE",
"256 926 CURVE SMOOTH"
);
},
{
closed = 1;
nodes = (
"452 926 OFFCURVE",
"422 902 OFFCURVE",
"422 871 CURVE SMOOTH",
"422 842 OFFCURVE",
"445 825 OFFCURVE",
"470 825 CURVE SMOOTH",
"499 825 OFFCURVE",
"527 847 OFFCURVE",
"527 879 CURVE SMOOTH",
"527 905 OFFCURVE",
"513 926 OFFCURVE",
"479 926 CURVE SMOOTH"
);
}
);
width = 729;
},
{
layerId = "39185045-6A8C-415A-8312-7B8F11386A4C";
name = Regular;
paths = (
{
closed = 1;
nodes = (
"325 758 LINE",
"71 56 LINE",
"1 42 LINE",
"1 0 LINE",
"234 0 LINE",
"234 42 LINE",
"153 56 LINE",
"206 213 LINE",
"499 213 LINE",
"551 56 LINE",
"470 42 LINE",
"470 0 LINE",
"728 0 LINE",
"728 42 LINE",
"650 56 LINE",
"407 758 LINE"
);
},
{
closed = 1;
nodes = (
"400 509 LINE",
"479 271 LINE",
"225 271 LINE",
"354 656 LINE"
);
},
{
closed = 1;
nodes = (
"222 938 OFFCURVE",
"184 907 OFFCURVE",
"184 866 CURVE SMOOTH",
"184 829 OFFCURVE",
"213 806 OFFCURVE",
"245 806 CURVE SMOOTH",
"282 806 OFFCURVE",
"318 834 OFFCURVE",
"318 877 CURVE SMOOTH",
"318 910 OFFCURVE",
"299 938 OFFCURVE",
"256 938 CURVE SMOOTH"
);
},
{
closed = 1;
nodes = (
"449 938 OFFCURVE",
"411 907 OFFCURVE",
"411 866 CURVE SMOOTH",
"411 829 OFFCURVE",
"441 806 OFFCURVE",
"473 806 CURVE SMOOTH",
"509 806 OFFCURVE",
"546 834 OFFCURVE",
"546 877 CURVE SMOOTH",
"546 910 OFFCURVE",
"527 938 OFFCURVE",
"484 938 CURVE SMOOTH"
);
}
);
width = 729;
}
);
unicode = 00C4;
},
{
glyphname = Agrave;
lastChange = "2014-09-14 11:46:27 +0100";
layers = (
{
layerId = "E777F328-EA17-4AE7-9EBA-8002E537BA4F";
name = Light;
paths = (
{
closed = 1;
nodes = (
"386 806 LINE",
"242 938 LINE",
"189 884 LINE",
"236 848 OFFCURVE",
"307 809 OFFCURVE",
"366 785 CURVE"
);
},
{
closed = 1;
nodes = (
"1 0 LINE",
"221 0 LINE",
"221 33 LINE",
"136 44 LINE",
"197 222 LINE",
"512 222 LINE",
"574 44 LINE",
"492 33 LINE",
"492 0 LINE",
"730 0 LINE",
"730 33 LINE",
"649 44 LINE",
"394 762 LINE",
"335 762 LINE",
"72 44 LINE",
"1 33 LINE"
);
},
{
closed = 1;
nodes = (
"212 267 LINE",
"356 680 LINE",
"392 566 LINE",
"497 267 LINE"
);
}
);
width = 729;
},
{
layerId = "39185045-6A8C-415A-8312-7B8F11386A4C";
name = Regular;
paths = (
{
closed = 1;
nodes = (
"397 811 LINE",
"248 938 LINE",
"176 865 LINE",
"237 826 OFFCURVE",
"310 795 OFFCURVE",
"371 785 CURVE"
);
},
{
closed = 1;
nodes = (
"1 0 LINE",
"234 0 LINE",
"234 42 LINE",
"153 56 LINE",
"206 213 LINE",
"499 213 LINE",
"551 56 LINE",
"470 42 LINE",
"470 0 LINE",
"728 0 LINE",
"728 42 LINE",
"650 56 LINE",
"407 758 LINE",
"325 758 LINE",
"71 56 LINE",
"1 42 LINE"
);
},
{
closed = 1;
nodes = (
"225 271 LINE",
"354 656 LINE",
"400 509 LINE",
"479 271 LINE"
);
}
);
width = 729;
}
);
unicode = 00C0;
},
{
glyphname = Aogonek;
lastChange = "2014-09-14 11:46:27 +0100";
layers = (
{
layerId = "E777F328-EA17-4AE7-9EBA-8002E537BA4F";
name = Light;
paths = (
{
closed = 1;
nodes = (
"1 0 LINE",
"221 0 LINE",
"221 33 LINE",
"136 44 LINE",
"197 222 LINE",
"512 222 LINE",
"574 44 LINE",
"492 33 LINE",
"492 0 LINE",
"573 0 LINE",
"497 -30 OFFCURVE",
"420 -101 OFFCURVE",
"420 -165 CURVE SMOOTH",
"420 -212 OFFCURVE",
"452 -255 OFFCURVE",
"518 -257 CURVE SMOOTH",
"598 -260 OFFCURVE",
"646 -228 OFFCURVE",
"672 -208 CURVE",
"663 -173 LINE",
"644 -185 OFFCURVE",
"599 -211 OFFCURVE",
"556 -209 CURVE SMOOTH",
"509 -207 OFFCURVE",
"486 -190 OFFCURVE",
"486 -145 CURVE SMOOTH",
"486 -85 OFFCURVE",
"589 -16 OFFCURVE",
"646 0 CURVE",
"730 0 LINE",
"730 33 LINE",
"649 44 LINE",
"394 762 LINE",
"335 762 LINE",
"72 44 LINE",
"1 33 LINE"
);
},
{
closed = 1;
nodes = (
"212 267 LINE",
"356 680 LINE",
"392 566 LINE",
"497 267 LINE"
);
}
);
width = 729;
},
{
layerId = "39185045-6A8C-415A-8312-7B8F11386A4C";
name = Regular;
paths = (
{
closed = 1;
nodes = (
"1 0 LINE",
"234 0 LINE",
"234 42 LINE",
"153 56 LINE",
"206 213 LINE",
"499 213 LINE",
"551 56 LINE",
"470 42 LINE",
"470 0 LINE",
"557 0 LINE",
"488 -33 OFFCURVE",
"413 -104 OFFCURVE",
"413 -165 CURVE SMOOTH",
"413 -208 OFFCURVE",
"438 -253 OFFCURVE",
"510 -257 CURVE SMOOTH",
"604 -262 OFFCURVE",
"653 -223 OFFCURVE",
"679 -203 CURVE",
"668 -160 LINE",
"652 -168 OFFCURVE",
"604 -197 OFFCURVE",
"563 -195 CURVE SMOOTH",
"521 -192 OFFCURVE",
"500 -182 OFFCURVE",
"500 -137 CURVE SMOOTH",
"500 -93 OFFCURVE",
"579 -23 OFFCURVE",
"637 0 CURVE",
"728 0 LINE",
"728 42 LINE",
"650 56 LINE",
"407 758 LINE",
"325 758 LINE",
"71 56 LINE",
"1 42 LINE"
);
},
{
closed = 1;
nodes = (
"225 271 LINE",
"354 656 LINE",
"400 509 LINE",
"479 271 LINE"
);
}
);
width = 729;
}
);
unicode = 0104;
},
{
glyphname = Aring;
lastChange = "2014-09-14 16:21:02 +0100";
layers = (
{
layerId = "E777F328-EA17-4AE7-9EBA-8002E537BA4F";
name = Light;
paths = (
{
closed = 1;
nodes = (
"296 938 OFFCURVE",
"240 892 OFFCURVE",
"240 830 CURVE SMOOTH",
"240 780 OFFCURVE",
"275 743 OFFCURVE",
"322 728 CURVE",
"72 44 LINE",
"1 33 LINE",
"1 0 LINE",
"221 0 LINE",
"221 33 LINE",
"136 44 LINE",
"197 222 LINE",
"512 222 LINE",
"574 44 LINE",
"492 33 LINE",
"492 0 LINE",
"730 0 LINE",
"730 33 LINE",
"649 44 LINE",
"406 729 LINE",
"453 743 OFFCURVE",
"486 782 OFFCURVE",
"486 830 CURVE SMOOTH",
"486 893 OFFCURVE",
"431 938 OFFCURVE",
"363 938 CURVE SMOOTH"
);
},
{
closed = 1;
nodes = (
"392 566 LINE",
"497 267 LINE",
"212 267 LINE",
"356 680 LINE"
);
},
{
closed = 1;
nodes = (
"405 896 OFFCURVE",
"440 868 OFFCURVE",
"440 829 CURVE SMOOTH",
"440 790 OFFCURVE",
"405 763 OFFCURVE",
"363 763 CURVE SMOOTH",
"321 763 OFFCURVE",
"286 790 OFFCURVE",
"286 830 CURVE SMOOTH",
"286 868 OFFCURVE",
"321 896 OFFCURVE",
"363 896 CURVE SMOOTH"
);
}
);
width = 729;
},
{
layerId = "39185045-6A8C-415A-8312-7B8F11386A4C";
name = Regular;
paths = (
{
closed = 1;
nodes = (
"297 938 OFFCURVE",
"242 887 OFFCURVE",
"242 822 CURVE SMOOTH",
"242 775 OFFCURVE",
"270 737 OFFCURVE",
"311 718 CURVE",
"71 56 LINE",
"1 42 LINE",
"1 0 LINE",
"234 0 LINE",
"234 42 LINE",
"153 56 LINE",
"206 213 LINE",
"499 213 LINE",
"551 56 LINE",
"470 42 LINE",
"470 0 LINE",
"728 0 LINE",
"728 42 LINE",
"650 56 LINE",
"420 719 LINE",
"461 738 OFFCURVE",
"488 776 OFFCURVE",
"488 822 CURVE SMOOTH",
"488 887 OFFCURVE",
"432 938 OFFCURVE",
"365 938 CURVE SMOOTH"
);
},
{
closed = 1;
nodes = (
"400 509 LINE",
"479 271 LINE",
"225 271 LINE",
"354 656 LINE"
);
},
{
closed = 1;
nodes = (
"400 883 OFFCURVE",
"430 856 OFFCURVE",
"430 821 CURVE SMOOTH",
"430 785 OFFCURVE",
"400 759 OFFCURVE",
"365 759 CURVE SMOOTH",
"329 759 OFFCURVE",
"300 785 OFFCURVE",
"300 821 CURVE SMOOTH",
"300 856 OFFCURVE",
"329 883 OFFCURVE",
"365 883 CURVE SMOOTH"
);
}
);
width = 729;
}
);
unicode = 00C5;
},
{
glyphname = Atilde;
lastChange = "2014-09-14 11:46:27 +0100";
layers = (
{
layerId = "E777F328-EA17-4AE7-9EBA-8002E537BA4F";
name = Light;
paths = (
{
closed = 1;
nodes = (
"191 831 LINE",
"214 855 OFFCURVE",
"246 879 OFFCURVE",
"285 879 CURVE SMOOTH",
"335 879 OFFCURVE",
"358 807 OFFCURVE",
"421 807 CURVE SMOOTH",
"474 807 OFFCURVE",
"525 844 OFFCURVE",
"550 885 CURVE",
"529 915 LINE",
"507 890 OFFCURVE",
"477 867 OFFCURVE",
"436 867 CURVE SMOOTH",
"387 867 OFFCURVE",
"363 938 OFFCURVE",
"300 938 CURVE SMOOTH",
"248 938 OFFCURVE",
"196 902 OFFCURVE",
"171 859 CURVE"
);
},
{
closed = 1;
nodes = (
"1 0 LINE",
"221 0 LINE",
"221 33 LINE",
"136 44 LINE",
"197 222 LINE",
"512 222 LINE",
"574 44 LINE",
"492 33 LINE",
"492 0 LINE",
"730 0 LINE",
"730 33 LINE",
"649 44 LINE",
"394 762 LINE",
"335 762 LINE",
"72 44 LINE",
"1 33 LINE"
);
},
{
closed = 1;
nodes = (
"212 267 LINE",
"356 680 LINE",
"392 566 LINE",
"497 267 LINE"
);
}
);
width = 729;
},
{
layerId = "39185045-6A8C-415A-8312-7B8F11386A4C";
name = Regular;
paths = (
{
closed = 1;
nodes = (
"197 819 LINE",
"216 838 OFFCURVE",
"253 860 OFFCURVE",
"287 860 CURVE SMOOTH",
"335 860 OFFCURVE",
"350 796 OFFCURVE",
"414 796 CURVE SMOOTH",
"466 796 OFFCURVE",
"525 834 OFFCURVE",
"549 880 CURVE",
"524 916 LINE",
"503 895 OFFCURVE",
"471 876 OFFCURVE",
"434 876 CURVE SMOOTH",
"386 876 OFFCURVE",
"370 938 OFFCURVE",
"307 938 CURVE SMOOTH",
"255 938 OFFCURVE",
"196 900 OFFCURVE",
"171 854 CURVE"
);
},
{
closed = 1;
nodes = (
"1 0 LINE",
"234 0 LINE",
"234 42 LINE",
"153 56 LINE",
"206 213 LINE",
"499 213 LINE",
"551 56 LINE",
"470 42 LINE",
"470 0 LINE",
"728 0 LINE",
"728 42 LINE",
"650 56 LINE",
"407 758 LINE",
"325 758 LINE",
"71 56 LINE",
"1 42 LINE"
);
},
{
closed = 1;
nodes = (
"225 271 LINE",
"354 656 LINE",
"400 509 LINE",
"479 271 LINE"
);
}
);
width = 729;
}
);
unicode = 00C3;
},
{
glyphname = AE;
lastChange = "2014-09-14 11:46:27 +0100";
layers = (
{
layerId = "E777F328-EA17-4AE7-9EBA-8002E537BA4F";
name = Light;
paths = (
{
closed = 1;
nodes = (
"1 0 LINE",
"221 0 LINE",
"221 33 LINE",
"131 44 LINE",
"204 234 LINE",
"509 234 LINE",
"567 44 LINE",
"480 33 LINE",
"480 0 LINE",
"882 0 LINE",
"904 142 LINE",
"871 158 LINE",
"827 48 LINE",
"647 42 LINE",
"544 379 LINE",
"746 377 LINE",
"758 298 LINE",
"794 298 LINE",
"794 503 LINE",
"758 503 LINE",
"746 423 LINE",
"532 420 LINE",
"442 718 LINE",
"771 713 LINE",
"793 618 LINE",
"832 619 LINE",
"817 758 LINE",
"356 758 LINE",
"68 44 LINE",
"1 33 LINE"
);
},
{
closed = 1;
nodes = (
"220 278 LINE",
"376 686 LINE",
"395 600 LINE",
"495 278 LINE"
);
}
);
width = 947;
},
{
layerId = "39185045-6A8C-415A-8312-7B8F11386A4C";
name = Regular;
paths = (
{
closed = 1;
nodes = (
"1 0 LINE",
"234 0 LINE",
"234 42 LINE",
"152 56 LINE",
"214 223 LINE",
"510 223 LINE",
"561 56 LINE",
"481 42 LINE",
"481 0 LINE",
"895 0 LINE",
"917 142 LINE",
"874 163 LINE",
"825 62 LINE",
"668 54 LINE",
"574 370 LINE",
"747 368 LINE",
"761 298 LINE",
"806 298 LINE",
"806 503 LINE",
"761 503 LINE",
"747 427 LINE",
"558 424 LINE",
"474 707 LINE",
"772 701 LINE",
"794 618 LINE",
"843 619 LINE",
"829 758 LINE",
"355 758 LINE",
"70 56 LINE",
"1 42 LINE"
);
},
{
closed = 1;
nodes = (
"236 280 LINE",
"383 672 LINE",
"400 579 LINE",
"492 280 LINE"
);
}
);
width = 947;
}
);
unicode = 00C6;
},
{
glyphname = B;
lastChange = "2014-09-14 11:46:27 +0100";
layers = (
{
layerId = "E777F328-EA17-4AE7-9EBA-8002E537BA4F";
name = Light;
paths = (
{
closed = 1;
nodes = (
"52 0 LINE",
"172 0 LINE",
"210 -1 OFFCURVE",
"276 -7 OFFCURVE",
"332 -7 CURVE SMOOTH",
"546 -7 OFFCURVE",
"647 89 OFFCURVE",
"647 224 CURVE SMOOTH",
"647 337 OFFCURVE",
"556 404 OFFCURVE",
"449 404 CURVE",
"552 425 OFFCURVE",
"598 505 OFFCURVE",
"598 594 CURVE SMOOTH",
"598 699 OFFCURVE",
"515 765 OFFCURVE",
"360 765 CURVE SMOOTH",
"282 765 OFFCURVE",
"230 760 OFFCURVE",
"171 758 CURVE SMOOTH",
"54 758 LINE",
"54 721 LINE",
"139 714 LINE",
"139 45 LINE",
"52 33 LINE"
);
},
{
closed = 1;
nodes = (
"211 717 LINE",
"239 723 OFFCURVE",
"306 724 OFFCURVE",
"345 724 CURVE SMOOTH",
"444 724 OFFCURVE",
"529 684 OFFCURVE",
"529 581 CURVE SMOOTH",
"529 467 OFFCURVE",
"452 418 OFFCURVE",
"356 418 CURVE SMOOTH",
"324 418 OFFCURVE",
"246 416 OFFCURVE",
"210 421 CURVE"
);
},
{
closed = 1;
nodes = (
"211 371 LINE",
"248 374 OFFCURVE",
"326 373 OFFCURVE",
"372 373 CURVE SMOOTH",
"488 373 OFFCURVE",
"572 331 OFFCURVE",
"572 209 CURVE SMOOTH",
"572 73 OFFCURVE",
"459 35 OFFCURVE",
"349 35 CURVE SMOOTH",
"308 35 OFFCURVE",
"234 42 OFFCURVE",
"211 50 CURVE"
);
}
);
width = 693;
},
{
layerId = "39185045-6A8C-415A-8312-7B8F11386A4C";
name = Regular;
paths = (
{
closed = 1;
nodes = (
"52 0 LINE",
"176 0 LINE",
"210 -2 OFFCURVE",
"275 -7 OFFCURVE",
"331 -7 CURVE SMOOTH",
"545 -7 OFFCURVE",
"647 91 OFFCURVE",
"647 223 CURVE SMOOTH",
"647 333 OFFCURVE",
"562 406 OFFCURVE",
"455 408 CURVE",
"553 430 OFFCURVE",
"598 504 OFFCURVE",
"598 594 CURVE SMOOTH",
"598 699 OFFCURVE",
"514 764 OFFCURVE",
"357 765 CURVE SMOOTH",
"278 766 OFFCURVE",
"220 760 OFFCURVE",
"177 758 CURVE SMOOTH",
"54 758 LINE",
"54 710 LINE",
"134 702 LINE",
"134 56 LINE",
"52 42 LINE"
);
},
{
closed = 1;
nodes = (
"230 706 LINE",
"252 715 OFFCURVE",
"313 713 OFFCURVE",
"337 713 CURVE SMOOTH",
"435 713 OFFCURVE",
"508 667 OFFCURVE",
"508 576 CURVE SMOOTH",
"508 477 OFFCURVE",
"446 426 OFFCURVE",
"347 426 CURVE SMOOTH",
"314 426 OFFCURVE",
"262 423 OFFCURVE",
"229 429 CURVE"
);
},
{
closed = 1;
nodes = (
"229 364 LINE",
"265 368 OFFCURVE",
"316 366 OFFCURVE",
"362 366 CURVE SMOOTH",
"484 366 OFFCURVE",
"546 317 OFFCURVE",
"546 204 CURVE SMOOTH",
"546 88 OFFCURVE",
"460 47 OFFCURVE",
"353 47 CURVE SMOOTH",
"312 47 OFFCURVE",
"247 55 OFFCURVE",
"229 66 CURVE"
);
}
);
width = 693;
}
);
unicode = 0042;
},
{
glyphname = C;
lastChange = "2014-09-14 16:12:41 +0100";
layers = (
{
layerId = "E777F328-EA17-4AE7-9EBA-8002E537BA4F";
name = Light;
paths = (
{
closed = 1;
nodes = (
"227 765 OFFCURVE",
"42 605 OFFCURVE",
"42 357 CURVE SMOOTH",
"42 140 OFFCURVE",
"190 -14 OFFCURVE",
"392 -14 CURVE SMOOTH",
"531 -14 OFFCURVE",
"593 28 OFFCURVE",
"640 31 CURVE",
"640 163 LINE",
"630 163 OFFCURVE",
"616 164 OFFCURVE",
"606 164 CURVE",
"585 81 LINE",
"556 50 OFFCURVE",
"494 27 OFFCURVE",
"414 27 CURVE SMOOTH",
"221 25 OFFCURVE",
"117 189 OFFCURVE",
"117 380 CURVE SMOOTH",
"117 599 OFFCURVE",
"262 722 OFFCURVE",
"415 722 CURVE SMOOTH",
"483 722 OFFCURVE",
"533 709 OFFCURVE",
"574 684 CURVE",
"592 596 LINE",
"632 596 LINE",
"639 730 LINE",
"596 740 OFFCURVE",
"530 765 OFFCURVE",
"436 765 CURVE SMOOTH"
);
}
);
width = 688;
},
{
layerId = "39185045-6A8C-415A-8312-7B8F11386A4C";
name = Regular;
paths = (
{
closed = 1;
nodes = (
"227 765 OFFCURVE",
"42 605 OFFCURVE",
"42 354 CURVE SMOOTH",
"42 137 OFFCURVE",
"189 -14 OFFCURVE",
"391 -14 CURVE SMOOTH",
"530 -14 OFFCURVE",
"593 28 OFFCURVE",
"640 31 CURVE",
"640 171 LINE",
"625 171 OFFCURVE",
"613 171 OFFCURVE",
"598 171 CURVE",
"570 96 LINE",
"541 59 OFFCURVE",
"492 38 OFFCURVE",
"414 38 CURVE SMOOTH",
"235 38 OFFCURVE",
"142 199 OFFCURVE",
"142 384 CURVE SMOOTH",
"142 591 OFFCURVE",
"266 708 OFFCURVE",
"405 708 CURVE SMOOTH",
"473 708 OFFCURVE",
"512 698 OFFCURVE",
"554 670 CURVE",
"580 589 LINE",
"631 589 LINE",
"639 730 LINE",
"597 740 OFFCURVE",
"529 765 OFFCURVE",
"436 765 CURVE SMOOTH"
);
}
);
width = 688;
}
);
unicode = 0043;
},
{
glyphname = Ccedilla;
lastChange = "2014-09-14 16:21:07 +0100";
layers = (
{
layerId = "E777F328-EA17-4AE7-9EBA-8002E537BA4F";
name = Light;
paths = (
{
closed = 1;
nodes = (
"227 765 OFFCURVE",
"42 605 OFFCURVE",
"42 357 CURVE SMOOTH",
"42 149 OFFCURVE",
"178 0 OFFCURVE",
"366 -13 CURVE",
"358 -42 OFFCURVE",
"355 -69 OFFCURVE",
"355 -97 CURVE",
"360 -96 OFFCURVE",
"376 -94 OFFCURVE",
"385 -94 CURVE SMOOTH",
"437 -94 OFFCURVE",
"473 -111 OFFCURVE",
"473 -154 CURVE SMOOTH",
"473 -210 OFFCURVE",
"425 -217 OFFCURVE",
"389 -217 CURVE SMOOTH",
"375 -217 OFFCURVE",
"343 -213 OFFCURVE",
"325 -208 CURVE",
"325 -219 OFFCURVE",
"324 -236 OFFCURVE",
"324 -247 CURVE",
"349 -253 OFFCURVE",
"370 -260 OFFCURVE",
"420 -257 CURVE SMOOTH",
"487 -255 OFFCURVE",
"544 -219 OFFCURVE",
"544 -154 CURVE SMOOTH",
"544 -104 OFFCURVE",
"501 -58 OFFCURVE",
"410 -62 CURVE",
"409 -47 OFFCURVE",
"409 -28 OFFCURVE",
"411 -13 CURVE",
"538 -9 OFFCURVE",
"595 28 OFFCURVE",
"640 31 CURVE",
"640 163 LINE",
"630 163 OFFCURVE",
"616 164 OFFCURVE",
"606 164 CURVE",
"585 81 LINE",
"556 50 OFFCURVE",
"494 27 OFFCURVE",
"414 27 CURVE SMOOTH",
"221 25 OFFCURVE",
"117 189 OFFCURVE",
"117 380 CURVE SMOOTH",
"117 599 OFFCURVE",
"262 722 OFFCURVE",
"415 722 CURVE SMOOTH",
"483 722 OFFCURVE",
"533 709 OFFCURVE",
"574 684 CURVE",
"592 596 LINE",
"632 596 LINE",
"639 730 LINE",
"596 740 OFFCURVE",
"530 765 OFFCURVE",
"436 765 CURVE SMOOTH"
);
}
);
width = 688;
},
{
layerId = "39185045-6A8C-415A-8312-7B8F11386A4C";
name = Regular;
paths = (
{
closed = 1;
nodes = (
"227 765 OFFCURVE",
"42 605 OFFCURVE",
"42 354 CURVE SMOOTH",
"42 149 OFFCURVE",
"172 4 OFFCURVE",
"356 -12 CURVE",
"347 -46 OFFCURVE",
"343 -75 OFFCURVE",
"342 -104 CURVE",
"344 -104 OFFCURVE",
"359 -102 OFFCURVE",
"366 -102 CURVE SMOOTH",
"419 -102 OFFCURVE",
"443 -122 OFFCURVE",
"443 -151 CURVE SMOOTH",
"443 -200 OFFCURVE",
"411 -205 OFFCURVE",
"375 -205 CURVE SMOOTH",
"363 -205 OFFCURVE",
"334 -202 OFFCURVE",
"319 -198 CURVE",
"319 -215 OFFCURVE",
"319 -230 OFFCURVE",
"319 -247 CURVE",
"339 -252 OFFCURVE",
"358 -260 OFFCURVE",
"415 -257 CURVE SMOOTH",
"486 -253 OFFCURVE",
"539 -218 OFFCURVE",
"539 -153 CURVE SMOOTH",
"539 -111 OFFCURVE",
"504 -61 OFFCURVE",
"414 -61 CURVE",
"413 -46 OFFCURVE",
"413 -28 OFFCURVE",
"414 -13 CURVE",
"538 -9 OFFCURVE",
"596 28 OFFCURVE",
"640 31 CURVE",
"640 171 LINE",
"625 171 OFFCURVE",
"613 171 OFFCURVE",
"598 171 CURVE",
"570 96 LINE",
"541 59 OFFCURVE",
"492 38 OFFCURVE",
"414 38 CURVE SMOOTH",
"235 38 OFFCURVE",
"142 199 OFFCURVE",
"142 384 CURVE SMOOTH",
"142 591 OFFCURVE",
"266 708 OFFCURVE",
"405 708 CURVE SMOOTH",
"473 708 OFFCURVE",
"512 698 OFFCURVE",
"554 670 CURVE",
"580 589 LINE",
"631 589 LINE",
"639 730 LINE",
"597 740 OFFCURVE",
"529 765 OFFCURVE",
"436 765 CURVE SMOOTH"
);
}
);
width = 688;
}
);
unicode = 00C7;
},
{
glyphname = D;
lastChange = "2014-09-14 11:46:27 +0100";
layers = (
{
layerId = "E777F328-EA17-4AE7-9EBA-8002E537BA4F";
name = Light;
paths = (
{
closed = 1;
nodes = (
"52 0 LINE",
"82 0 OFFCURVE",
"146 0 OFFCURVE",
"176 0 CURVE SMOOTH",
"229 0 OFFCURVE",
"291 -5 OFFCURVE",
"338 -5 CURVE SMOOTH",
"569 -9 OFFCURVE",
"732 144 OFFCURVE",
"732 399 CURVE SMOOTH",
"732 629 OFFCURVE",
"610 766 OFFCURVE",
"363 765 CURVE SMOOTH",
"302 765 OFFCURVE",
"251 758 OFFCURVE",
"175 758 CURVE SMOOTH",
"54 758 LINE",
"54 721 LINE",
"140 713 LINE",
"140 45 LINE",
"52 33 LINE"
);
},
{
closed = 1;
nodes = (
"212 713 LINE",
"244 718 OFFCURVE",
"288 721 OFFCURVE",
"341 722 CURVE SMOOTH",
"541 728 OFFCURVE",
"657 611 OFFCURVE",
"657 379 CURVE SMOOTH",
"657 144 OFFCURVE",
"514 40 OFFCURVE",
"348 37 CURVE SMOOTH",
"298 36 OFFCURVE",
"257 41 OFFCURVE",
"212 49 CURVE"
);
}
);
width = 778;
},
{
layerId = "39185045-6A8C-415A-8312-7B8F11386A4C";
name = Regular;
paths = (
{
closed = 1;
nodes = (
"52 0 LINE",
"96 0 OFFCURVE",
"139 0 OFFCURVE",
"184 0 CURVE SMOOTH",
"249 0 OFFCURVE",
"300 -3 OFFCURVE",
"348 -5 CURVE SMOOTH",
"565 -10 OFFCURVE",
"734 143 OFFCURVE",
"734 399 CURVE SMOOTH",
"734 626 OFFCURVE",
"618 767 OFFCURVE",
"366 765 CURVE SMOOTH",
"304 765 OFFCURVE",
"269 758 OFFCURVE",
"182 758 CURVE SMOOTH",
"54 758 LINE",
"54 710 LINE",
"134 702 LINE",
"134 56 LINE",
"52 42 LINE"
);
},
{
closed = 1;
nodes = (
"229 701 LINE",
"259 706 OFFCURVE",
"283 709 OFFCURVE",
"336 710 CURVE SMOOTH",
"519 716 OFFCURVE",
"634 604 OFFCURVE",
"634 375 CURVE SMOOTH",
"634 154 OFFCURVE",
"508 53 OFFCURVE",
"365 49 CURVE SMOOTH",
"314 48 OFFCURVE",
"271 53 OFFCURVE",
"229 64 CURVE"
);
}
);
width = 778;
}
);
unicode = 0044;
},
{
glyphname = Eth;
lastChange = "2014-09-14 11:46:27 +0100";
layers = (
{
layerId = "E777F328-EA17-4AE7-9EBA-8002E537BA4F";
name = Light;
paths = (
{
closed = 1;
nodes = (
"52 0 LINE",
"82 0 OFFCURVE",
"146 0 OFFCURVE",
"176 0 CURVE SMOOTH",
"229 0 OFFCURVE",
"291 -5 OFFCURVE",
"338 -5 CURVE SMOOTH",
"569 -9 OFFCURVE",
"732 144 OFFCURVE",
"732 399 CURVE SMOOTH",
"732 629 OFFCURVE",
"610 766 OFFCURVE",
"363 765 CURVE SMOOTH",
"302 765 OFFCURVE",
"251 758 OFFCURVE",
"175 758 CURVE SMOOTH",
"54 758 LINE",
"54 721 LINE",
"140 713 LINE",
"140 425 LINE",
"47 425 LINE",
"47 371 LINE",
"140 371 LINE",
"140 45 LINE",
"52 33 LINE"
);
},
{
closed = 1;
nodes = (
"212 371 LINE",
"345 371 LINE",
"345 425 LINE",
"212 425 LINE",
"212 713 LINE",
"244 718 OFFCURVE",
"288 721 OFFCURVE",
"341 722 CURVE SMOOTH",
"541 728 OFFCURVE",
"657 611 OFFCURVE",
"657 379 CURVE SMOOTH",
"657 144 OFFCURVE",
"514 40 OFFCURVE",
"348 37 CURVE SMOOTH",
"298 36 OFFCURVE",
"257 41 OFFCURVE",
"212 49 CURVE"
);
}
);
width = 778;
},
{
layerId = "39185045-6A8C-415A-8312-7B8F11386A4C";
name = Regular;
paths = (
{
closed = 1;
nodes = (
"52 0 LINE",
"96 0 OFFCURVE",
"139 0 OFFCURVE",
"184 0 CURVE SMOOTH",
"249 0 OFFCURVE",
"300 -3 OFFCURVE",
"348 -5 CURVE SMOOTH",
"565 -10 OFFCURVE",
"734 143 OFFCURVE",
"734 399 CURVE SMOOTH",
"734 626 OFFCURVE",
"618 767 OFFCURVE",
"366 765 CURVE SMOOTH",
"304 765 OFFCURVE",
"269 758 OFFCURVE",
"182 758 CURVE SMOOTH",
"54 758 LINE",
"54 710 LINE",
"134 702 LINE",
"134 425 LINE",
"48 425 LINE",
"48 354 LINE",
"134 354 LINE",
"134 56 LINE",
"52 42 LINE"
);
},
{
closed = 1;
nodes = (
"229 354 LINE",
"355 354 LINE",
"355 425 LINE",
"229 425 LINE",
"229 701 LINE",
"259 706 OFFCURVE",
"283 709 OFFCURVE",
"336 710 CURVE SMOOTH",
"519 716 OFFCURVE",
"634 604 OFFCURVE",
"634 375 CURVE SMOOTH",
"634 154 OFFCURVE",
"508 53 OFFCURVE",
"365 49 CURVE SMOOTH",
"314 48 OFFCURVE",
"271 53 OFFCURVE",
"229 64 CURVE"
);
}
);
width = 778;
}
);
unicode = 00D0;
},
{
glyphname = E;
lastChange = "2014-09-14 11:46:27 +0100";
layers = (
{
layerId = "E777F328-EA17-4AE7-9EBA-8002E537BA4F";
name = Light;
paths = (
{
closed = 1;
nodes = (
"50 0 LINE",
"589 0 LINE",
"611 154 LINE",
"575 163 LINE",
"531 49 LINE",
"209 41 LINE",
"209 382 LINE",
"409 379 LINE",
"421 297 LINE",
"460 297 LINE",
"460 504 LINE",
"421 504 LINE",
"409 426 LINE",
"209 422 LINE",
"209 719 LINE",
"508 713 LINE",
"531 619 LINE",
"572 619 LINE",
"558 758 LINE",
"52 758 LINE",
"52 721 LINE",
"138 713 LINE",
"138 44 LINE",
"50 33 LINE"
);
}
);
width = 644;
},
{
layerId = "39185045-6A8C-415A-8312-7B8F11386A4C";
name = Regular;
paths = (
{
closed = 1;
nodes = (
"50 0 LINE",
"591 0 LINE",
"613 151 LINE",
"566 163 LINE",
"517 62 LINE",
"227 53 LINE",
"227 370 LINE",
"409 367 LINE",
"423 292 LINE",
"473 292 LINE",
"473 502 LINE",
"423 502 LINE",
"409 426 LINE",
"227 422 LINE",
"227 707 LINE",
"497 701 LINE",
"519 619 LINE",
"573 619 LINE",
"559 758 LINE",
"52 758 LINE",
"52 710 LINE",
"132 702 LINE",
"132 56 LINE",
"50 42 LINE"
);
}
);
width = 644;
}
);
unicode = 0045;
},
{
glyphname = Eacute;
lastChange = "2014-09-14 11:46:27 +0100";
layers = (
{
layerId = "E777F328-EA17-4AE7-9EBA-8002E537BA4F";
name = Light;
paths = (
{
closed = 1;
nodes = (
"350 785 LINE",
"409 809 OFFCURVE",
"479 848 OFFCURVE",
"525 884 CURVE",
"473 938 LINE",
"329 806 LINE"
);
},
{
closed = 1;
nodes = (
"50 0 LINE",
"589 0 LINE",
"611 154 LINE",
"575 163 LINE",
"531 49 LINE",
"209 41 LINE",
"209 382 LINE",
"409 379 LINE",
"421 297 LINE",
"460 297 LINE",
"460 504 LINE",
"421 504 LINE",
"409 426 LINE",
"209 422 LINE",
"209 719 LINE",
"508 713 LINE",
"531 619 LINE",
"572 619 LINE",
"558 758 LINE",
"52 758 LINE",
"52 721 LINE",
"138 713 LINE",
"138 44 LINE",
"50 33 LINE"
);
}
);
width = 644;
},
{
layerId = "39185045-6A8C-415A-8312-7B8F11386A4C";
name = Regular;
paths = (
{
closed = 1;
nodes = (
"351 785 LINE",
"411 795 OFFCURVE",
"484 826 OFFCURVE",
"545 865 CURVE",
"474 938 LINE",
"325 811 LINE"
);
},
{
closed = 1;
nodes = (
"50 0 LINE",
"591 0 LINE",
"613 151 LINE",
"566 163 LINE",
"517 62 LINE",
"227 53 LINE",
"227 370 LINE",
"409 367 LINE",
"423 292 LINE",
"473 292 LINE",
"473 502 LINE",
"423 502 LINE",
"409 426 LINE",
"227 422 LINE",
"227 707 LINE",
"497 701 LINE",
"519 619 LINE",
"573 619 LINE",
"559 758 LINE",
"52 758 LINE",
"52 710 LINE",
"132 702 LINE",
"132 56 LINE",
"50 42 LINE"
);
}
);
width = 644;
}
);
unicode = 00C9;
},
{
glyphname = Ecircumflex;
lastChange = "2014-09-14 11:46:27 +0100";
layers = (
{
layerId = "E777F328-EA17-4AE7-9EBA-8002E537BA4F";
name = Light;
paths = (
{
closed = 1;
nodes = (
"216 790 LINE",
"352 887 LINE",
"485 790 LINE",
"520 809 LINE",
"388 938 LINE",
"316 938 LINE",
"185 808 LINE"
);
},
{
closed = 1;
nodes = (
"50 0 LINE",
"589 0 LINE",
"611 154 LINE",
"575 163 LINE",
"531 49 LINE",
"209 41 LINE",
"209 382 LINE",
"409 379 LINE",
"421 297 LINE",
"460 297 LINE",
"460 504 LINE",
"421 504 LINE",
"409 426 LINE",
"209 422 LINE",
"209 719 LINE",
"508 713 LINE",
"531 619 LINE",
"572 619 LINE",
"558 758 LINE",
"52 758 LINE",
"52 721 LINE",
"138 713 LINE",
"138 44 LINE",
"50 33 LINE"
);
}
);
width = 644;
},
{
layerId = "39185045-6A8C-415A-8312-7B8F11386A4C";
name = Regular;
paths = (
{
closed = 1;
nodes = (
"223 789 LINE",
"355 871 LINE",
"484 789 LINE",
"526 813 LINE",
"401 938 LINE",
"309 938 LINE",
"185 812 LINE"
);
},
{
closed = 1;
nodes = (
"50 0 LINE",
"591 0 LINE",
"613 151 LINE",
"566 163 LINE",
"517 62 LINE",
"227 53 LINE",
"227 370 LINE",
"409 367 LINE",
"423 292 LINE",
"473 292 LINE",
"473 502 LINE",
"423 502 LINE",
"409 426 LINE",
"227 422 LINE",
"227 707 LINE",
"497 701 LINE",
"519 619 LINE",
"573 619 LINE",
"559 758 LINE",
"52 758 LINE",
"52 710 LINE",
"132 702 LINE",
"132 56 LINE",
"50 42 LINE"
);
}
);
width = 644;
}
);
unicode = 00CA;
},
{
glyphname = Edieresis;
lastChange = "2014-09-14 16:26:49 +0100";
layers = (
{
layerId = "E777F328-EA17-4AE7-9EBA-8002E537BA4F";
name = Light;
paths = (
{
closed = 1;
nodes = (
"52 758 LINE",
"52 721 LINE",
"138 713 LINE",
"138 44 LINE",
"50 33 LINE",
"50 0 LINE",
"589 0 LINE",
"611 154 LINE",
"575 163 LINE",
"531 49 LINE",
"209 41 LINE",
"209 382 LINE",
"409 379 LINE",
"421 297 LINE",
"460 297 LINE",
"460 504 LINE",
"421 504 LINE",
"409 426 LINE",
"209 422 LINE",
"209 719 LINE",
"508 713 LINE",
"531 619 LINE",
"572 619 LINE",
"558 758 LINE"
);
},
{
closed = 1;
nodes = (
"216 926 OFFCURVE",
"187 903 OFFCURVE",
"187 872 CURVE SMOOTH",
"187 843 OFFCURVE",
"210 825 OFFCURVE",
"235 825 CURVE SMOOTH",
"264 825 OFFCURVE",
"292 847 OFFCURVE",
"292 880 CURVE SMOOTH",
"292 905 OFFCURVE",
"277 926 OFFCURVE",
"244 926 CURVE SMOOTH"
);
},
{
closed = 1;
nodes = (
"439 926 OFFCURVE",
"410 902 OFFCURVE",
"410 871 CURVE SMOOTH",
"410 842 OFFCURVE",
"433 825 OFFCURVE",
"458 825 CURVE SMOOTH",
"487 825 OFFCURVE",
"516 847 OFFCURVE",
"516 879 CURVE SMOOTH",
"516 905 OFFCURVE",
"500 926 OFFCURVE",
"467 926 CURVE SMOOTH"
);
}
);
width = 644;
},
{
layerId = "39185045-6A8C-415A-8312-7B8F11386A4C";
name = Regular;
paths = (
{
closed = 1;
nodes = (
"52 758 LINE",
"52 710 LINE",
"132 702 LINE",
"132 56 LINE",
"50 42 LINE",
"50 0 LINE",
"591 0 LINE",
"613 151 LINE",
"566 163 LINE",
"517 62 LINE",
"227 53 LINE",
"227 370 LINE",
"409 367 LINE",
"423 292 LINE",
"473 292 LINE",
"473 502 LINE",
"423 502 LINE",
"409 426 LINE",
"227 422 LINE",
"227 707 LINE",
"497 701 LINE",
"519 619 LINE",
"573 619 LINE",
"559 758 LINE"
);
},
{
closed = 1;
nodes = (
"211 938 OFFCURVE",
"173 907 OFFCURVE",
"173 866 CURVE SMOOTH",
"173 829 OFFCURVE",
"203 806 OFFCURVE",
"234 806 CURVE SMOOTH",
"271 806 OFFCURVE",
"308 834 OFFCURVE",
"308 877 CURVE SMOOTH",
"308 910 OFFCURVE",
"289 938 OFFCURVE",
"246 938 CURVE SMOOTH"
);
},
{
closed = 1;
nodes = (
"438 938 OFFCURVE",
"400 907 OFFCURVE",
"400 866 CURVE SMOOTH",
"400 829 OFFCURVE",
"430 806 OFFCURVE",
"462 806 CURVE SMOOTH",
"499 806 OFFCURVE",
"535 834 OFFCURVE",
"535 877 CURVE SMOOTH",
"535 910 OFFCURVE",
"516 938 OFFCURVE",
"473 938 CURVE SMOOTH"
);
}
);
width = 644;
}
);
unicode = 00CB;
},
{
glyphname = Egrave;
lastChange = "2014-09-14 11:46:27 +0100";
layers = (
{
layerId = "E777F328-EA17-4AE7-9EBA-8002E537BA4F";
name = Light;
paths = (
{
closed = 1;
nodes = (
"374 806 LINE",
"229 938 LINE",
"178 884 LINE",
"224 848 OFFCURVE",
"294 809 OFFCURVE",
"354 785 CURVE"
);
},
{
closed = 1;
nodes = (
"50 0 LINE",
"589 0 LINE",
"611 154 LINE",
"575 163 LINE",
"531 49 LINE",
"209 41 LINE",
"209 382 LINE",
"409 379 LINE",
"421 297 LINE",
"460 297 LINE",
"460 504 LINE",
"421 504 LINE",
"409 426 LINE",
"209 422 LINE",
"209 719 LINE",
"508 713 LINE",
"531 619 LINE",
"572 619 LINE",
"558 758 LINE",
"52 758 LINE",
"52 721 LINE",
"138 713 LINE",
"138 44 LINE",
"50 33 LINE"
);
}
);
width = 644;
},
{
layerId = "39185045-6A8C-415A-8312-7B8F11386A4C";
name = Regular;
paths = (
{
closed = 1;
nodes = (
"386 811 LINE",
"237 938 LINE",
"166 865 LINE",
"227 826 OFFCURVE",
"299 795 OFFCURVE",
"360 785 CURVE"
);
},
{
closed = 1;
nodes = (
"50 0 LINE",
"591 0 LINE",
"613 151 LINE",
"566 163 LINE",
"517 62 LINE",
"227 53 LINE",
"227 370 LINE",
"409 367 LINE",
"423 292 LINE",
"473 292 LINE",
"473 502 LINE",
"423 502 LINE",
"409 426 LINE",
"227 422 LINE",
"227 707 LINE",
"497 701 LINE",
"519 619 LINE",
"573 619 LINE",
"559 758 LINE",
"52 758 LINE",
"52 710 LINE",
"132 702 LINE",
"132 56 LINE",
"50 42 LINE"
);
}
);
width = 644;
}
);
unicode = 00C8;
},
{
glyphname = Eogonek;
lastChange = "2014-09-14 11:46:27 +0100";
layers = (
{
layerId = "E777F328-EA17-4AE7-9EBA-8002E537BA4F";
name = Light;
paths = (
{
closed = 1;
nodes = (
"50 0 LINE",
"516 0 LINE",
"440 -30 OFFCURVE",
"363 -101 OFFCURVE",
"363 -165 CURVE SMOOTH",
"363 -212 OFFCURVE",
"395 -255 OFFCURVE",
"461 -257 CURVE SMOOTH",
"542 -260 OFFCURVE",
"589 -228 OFFCURVE",
"615 -208 CURVE",
"606 -173 LINE",
"586 -185 OFFCURVE",
"542 -211 OFFCURVE",
"500 -209 CURVE SMOOTH",
"453 -207 OFFCURVE",
"429 -190 OFFCURVE",
"429 -145 CURVE SMOOTH",
"429 -85 OFFCURVE",
"533 -16 OFFCURVE",
"589 0 CURVE",
"611 154 LINE",
"575 163 LINE",
"531 49 LINE",
"209 41 LINE",
"209 382 LINE",
"409 379 LINE",
"421 297 LINE",
"460 297 LINE",
"460 504 LINE",
"421 504 LINE",
"409 426 LINE",
"209 422 LINE",
"209 719 LINE",
"508 713 LINE",
"531 619 LINE",
"572 619 LINE",
"558 758 LINE",
"52 758 LINE",
"52 721 LINE",
"138 713 LINE",
"138 44 LINE",
"50 33 LINE"
);
}
);
width = 644;
},
{
layerId = "39185045-6A8C-415A-8312-7B8F11386A4C";
name = Regular;
paths = (
{
closed = 1;
nodes = (
"50 0 LINE",
"511 0 LINE",
"442 -33 OFFCURVE",
"368 -104 OFFCURVE",
"368 -165 CURVE SMOOTH",
"368 -208 OFFCURVE",
"393 -253 OFFCURVE",
"464 -257 CURVE SMOOTH",
"558 -262 OFFCURVE",
"607 -223 OFFCURVE",
"633 -203 CURVE",
"623 -160 LINE",
"607 -168 OFFCURVE",
"558 -197 OFFCURVE",
"517 -195 CURVE SMOOTH",
"476 -192 OFFCURVE",
"455 -182 OFFCURVE",
"455 -137 CURVE SMOOTH",
"455 -93 OFFCURVE",
"533 -23 OFFCURVE",
"591 0 CURVE",
"613 151 LINE",
"566 163 LINE",
"517 62 LINE",
"227 53 LINE",
"227 370 LINE",
"409 367 LINE",
"423 292 LINE",
"473 292 LINE",
"473 502 LINE",
"423 502 LINE",
"409 426 LINE",
"227 422 LINE",
"227 707 LINE",
"497 701 LINE",
"519 619 LINE",
"573 619 LINE",
"559 758 LINE",
"52 758 LINE",
"52 710 LINE",
"132 702 LINE",
"132 56 LINE",
"50 42 LINE"
);
}
);
width = 644;
}
);
unicode = 0118;
},
{
glyphname = F;
lastChange = "2014-09-14 11:46:27 +0100";
layers = (
{
layerId = "E777F328-EA17-4AE7-9EBA-8002E537BA4F";
name = Light;
paths = (
{
closed = 1;
nodes = (
"51 0 LINE",
"367 0 LINE",
"367 36 LINE",
"216 44 LINE",
"216 367 LINE",
"442 363 LINE",
"454 282 LINE",
"496 282 LINE",
"496 487 LINE",
"458 487 LINE",
"442 411 LINE",
"216 407 LINE",
"216 717 LINE",
"525 711 LINE",
"548 618 LINE",
"586 619 LINE",
"575 758 LINE",
"58 758 LINE",
"58 721 LINE",
"144 713 LINE",
"144 45 LINE",
"51 33 LINE"
);
}
);
width = 604;
},
{
layerId = "39185045-6A8C-415A-8312-7B8F11386A4C";
name = Regular;
paths = (
{
closed = 1;
nodes = (
"51 0 LINE",
"370 0 LINE",
"370 46 LINE",
"229 56 LINE",
"229 361 LINE",
"444 357 LINE",
"457 284 LINE",
"511 284 LINE",
"511 489 LINE",
"463 489 LINE",
"444 418 LINE",
"229 414 LINE",
"229 705 LINE",
"516 698 LINE",
"539 618 LINE",
"587 619 LINE",
"578 758 LINE",
"54 758 LINE",
"54 710 LINE",
"134 702 LINE",
"134 56 LINE",
"51 42 LINE"
);
}
);
width = 604;
}
);
unicode = 0046;
},
{
glyphname = G;
lastChange = "2014-09-14 16:12:48 +0100";
layers = (
{
layerId = "E777F328-EA17-4AE7-9EBA-8002E537BA4F";
name = Light;
paths = (
{
closed = 1;
nodes = (
"221 765 OFFCURVE",
"42 606 OFFCURVE",
"42 357 CURVE SMOOTH",
"42 143 OFFCURVE",
"180 -14 OFFCURVE",
"382 -14 CURVE SMOOTH",
"500 -14 OFFCURVE",
"611 33 OFFCURVE",
"654 37 CURVE",
"654 301 LINE",
"721 309 LINE",
"721 346 LINE",
"447 346 LINE",
"447 309 LINE",
"582 302 LINE",
"582 75 LINE",
"544 42 OFFCURVE",
"464 27 OFFCURVE",
"401 27 CURVE SMOOTH",
"204 27 OFFCURVE",
"117 202 OFFCURVE",
"117 379 CURVE SMOOTH",
"117 597 OFFCURVE",
"260 720 OFFCURVE",
"412 722 CURVE SMOOTH",
"504 723 OFFCURVE",
"567 701 OFFCURVE",
"586 685 CURVE",
"606 599 LINE",
"646 599 LINE",
"653 732 LINE",
"615 740 OFFCURVE",
"552 765 OFFCURVE",
"434 765 CURVE SMOOTH"
);
}
);
width = 750;
},
{
layerId = "39185045-6A8C-415A-8312-7B8F11386A4C";
name = Regular;
paths = (
{
closed = 1;
nodes = (
"221 765 OFFCURVE",
"42 605 OFFCURVE",
"42 354 CURVE SMOOTH",
"42 142 OFFCURVE",
"180 -14 OFFCURVE",
"381 -14 CURVE SMOOTH",
"500 -14 OFFCURVE",
"618 37 OFFCURVE",
"661 40 CURVE",
"661 289 LINE",
"721 298 LINE",
"721 346 LINE",
"447 346 LINE",
"447 298 LINE",
"565 290 LINE",
"565 89 LINE",
"527 47 OFFCURVE",
"460 38 OFFCURVE",
"404 38 CURVE SMOOTH",
"226 38 OFFCURVE",
"142 207 OFFCURVE",
"142 384 CURVE SMOOTH",
"142 587 OFFCURVE",
"264 706 OFFCURVE",
"403 708 CURVE SMOOTH",
"507 710 OFFCURVE",
"563 687 OFFCURVE",
"573 674 CURVE",
"598 592 LINE",
"650 592 LINE",
"658 734 LINE",
"624 742 OFFCURVE",
"556 765 OFFCURVE",
"434 765 CURVE SMOOTH"
);
}
);
width = 750;
}
);
unicode = 0047;
},
{
glyphname = H;
lastChange = "2014-09-14 11:46:27 +0100";
layers = (
{
layerId = "E777F328-EA17-4AE7-9EBA-8002E537BA4F";
name = Light;
paths = (
{
closed = 1;
nodes = (
"52 0 LINE",
"291 0 LINE",
"291 33 LINE",
"208 44 LINE",
"208 343 LINE",
"617 343 LINE",
"617 44 LINE",
"534 33 LINE",
"534 0 LINE",
"774 0 LINE",
"774 33 LINE",
"689 45 LINE",
"689 714 LINE",
"766 721 LINE",
"766 758 LINE",
"537 758 LINE",
"537 721 LINE",
"617 714 LINE",
"617 388 LINE",
"208 388 LINE",
"208 714 LINE",
"287 721 LINE",
"287 758 LINE",
"55 758 LINE",
"55 721 LINE",
"136 714 LINE",
"136 45 LINE",
"52 33 LINE"
);
}
);
width = 833;
},
{
layerId = "39185045-6A8C-415A-8312-7B8F11386A4C";
name = Regular;
paths = (
{
closed = 1;
nodes = (
"52 0 LINE",
"313 0 LINE",
"313 42 LINE",
"229 56 LINE",
"229 340 LINE",
"604 340 LINE",
"604 56 LINE",
"520 42 LINE",
"520 0 LINE",
"783 0 LINE",
"783 42 LINE",
"699 56 LINE",
"699 702 LINE",
"777 710 LINE",
"777 758 LINE",
"523 758 LINE",
"523 710 LINE",
"604 702 LINE",
"604 397 LINE",
"229 397 LINE",
"229 702 LINE",
"309 710 LINE",
"309 758 LINE",
"54 758 LINE",
"54 710 LINE",
"134 702 LINE",
"134 56 LINE",
"52 42 LINE"
);
}
);
width = 833;
}
);
unicode = 0048;
},
{
glyphname = I;
lastChange = "2014-09-14 11:46:27 +0100";
layers = (
{
layerId = "E777F328-EA17-4AE7-9EBA-8002E537BA4F";
name = Light;
paths = (
{
closed = 1;
nodes = (
"66 0 LINE",
"307 0 LINE",
"307 33 LINE",
"221 44 LINE",
"221 714 LINE",
"303 721 LINE",
"303 758 LINE",
"68 758 LINE",
"68 721 LINE",
"149 714 LINE",
"149 44 LINE",
"66 33 LINE"
);
}
);
width = 373;
},
{
layerId = "39185045-6A8C-415A-8312-7B8F11386A4C";
name = Regular;
paths = (
{
closed = 1;
nodes = (
"51 0 LINE",
"323 0 LINE",
"323 42 LINE",
"234 56 LINE",
"234 702 LINE",
"318 710 LINE",
"318 758 LINE",
"53 758 LINE",
"53 710 LINE",
"139 702 LINE",
"139 56 LINE",
"51 42 LINE"
);
}
);
width = 373;
}
);
unicode = 0049;
},
{
glyphname = IJ;
lastChange = "2014-09-14 11:46:27 +0100";
layers = (
{
layerId = "E777F328-EA17-4AE7-9EBA-8002E537BA4F";
name = Light;
paths = (
{
closed = 1;
nodes = (
"352 -189 LINE",
"451 -175 OFFCURVE",
"556 -100 OFFCURVE",
"579 17 CURVE SMOOTH",
"591 78 OFFCURVE",
"588 151 OFFCURVE",
"588 232 CURVE SMOOTH",
"588 714 LINE",
"676 721 LINE",
"676 758 LINE",
"430 758 LINE",
"430 721 LINE",
"516 714 LINE",
"516 196 LINE SMOOTH",
"516 96 OFFCURVE",
"514 28 OFFCURVE",
"495 -29 CURVE",
"470 -92 OFFCURVE",
"411 -139 OFFCURVE",
"331 -160 CURVE"
);
},
{
closed = 1;
nodes = (
"66 0 LINE",
"307 0 LINE",
"307 33 LINE",
"221 44 LINE",
"221 714 LINE",
"303 721 LINE",
"303 758 LINE",
"68 758 LINE",
"68 721 LINE",
"149 714 LINE",
"149 44 LINE",
"66 33 LINE"
);
}
);
width = 725;
},
{
layerId = "39185045-6A8C-415A-8312-7B8F11386A4C";
name = Regular;
paths = (
{
closed = 1;
nodes = (
"356 -190 LINE",
"458 -175 OFFCURVE",
"571 -104 OFFCURVE",
"597 24 CURVE SMOOTH",
"610 91 OFFCURVE",
"606 176 OFFCURVE",
"606 269 CURVE SMOOTH",
"606 702 LINE",
"686 710 LINE",
"686 758 LINE",
"431 758 LINE",
"431 710 LINE",
"511 702 LINE",
"511 196 LINE SMOOTH",
"511 96 OFFCURVE",
"508 28 OFFCURVE",
"489 -29 CURVE SMOOTH",
"464 -91 OFFCURVE",
"403 -132 OFFCURVE",
"331 -156 CURVE"
);
},
{
closed = 1;
nodes = (
"51 0 LINE",
"323 0 LINE",
"323 42 LINE",
"234 56 LINE",
"234 702 LINE",
"318 710 LINE",
"318 758 LINE",
"53 758 LINE",
"53 710 LINE",
"139 702 LINE",
"139 56 LINE",
"51 42 LINE"
);
}
);
width = 724;
}
);
unicode = 0132;
},
{
glyphname = Iacute;
lastChange = "2014-09-14 11:46:27 +0100";
layers = (
{
layerId = "E777F328-EA17-4AE7-9EBA-8002E537BA4F";
name = Light;
paths = (
{
closed = 1;
nodes = (
"184 785 LINE",
"243 809 OFFCURVE",
"313 848 OFFCURVE",
"360 884 CURVE",
"308 938 LINE",
"163 806 LINE"
);
},
{
closed = 1;
nodes = (
"66 0 LINE",
"307 0 LINE",
"307 33 LINE",
"221 44 LINE",
"221 714 LINE",
"303 721 LINE",
"303 758 LINE",
"68 758 LINE",
"68 721 LINE",
"149 714 LINE",
"149 44 LINE",
"66 33 LINE"
);
}
);
width = 373;
},
{
layerId = "39185045-6A8C-415A-8312-7B8F11386A4C";
name = Regular;
paths = (
{
closed = 1;
nodes = (
"184 785 LINE",
"244 795 OFFCURVE",
"317 826 OFFCURVE",
"378 865 CURVE",
"307 938 LINE",
"158 811 LINE"
);
},
{
closed = 1;
nodes = (
"51 0 LINE",
"323 0 LINE",
"323 42 LINE",
"234 56 LINE",
"234 702 LINE",
"318 710 LINE",
"318 758 LINE",
"53 758 LINE",
"53 710 LINE",
"139 702 LINE",
"139 56 LINE",
"51 42 LINE"
);
}
);
width = 373;
}
);
unicode = 00CD;
},
{
glyphname = Icircumflex;
lastChange = "2014-09-14 11:46:27 +0100";
layers = (
{
layerId = "E777F328-EA17-4AE7-9EBA-8002E537BA4F";
name = Light;
paths = (
{
closed = 1;
nodes = (
"50 790 LINE",
"187 887 LINE",
"320 790 LINE",
"354 809 LINE",
"222 938 LINE",
"151 938 LINE",
"20 808 LINE"
);
},
{
closed = 1;
nodes = (
"66 0 LINE",
"307 0 LINE",
"307 33 LINE",
"221 44 LINE",
"221 714 LINE",
"303 721 LINE",
"303 758 LINE",
"68 758 LINE",
"68 721 LINE",
"149 714 LINE",
"149 44 LINE",
"66 33 LINE"
);
}
);
width = 373;
},
{
layerId = "39185045-6A8C-415A-8312-7B8F11386A4C";
name = Regular;
paths = (
{
closed = 1;
nodes = (
"56 789 LINE",
"188 871 LINE",
"317 789 LINE",
"359 813 LINE",
"234 938 LINE",
"142 938 LINE",
"18 812 LINE"
);
},
{
closed = 1;
nodes = (
"51 0 LINE",
"323 0 LINE",
"323 42 LINE",
"234 56 LINE",
"234 702 LINE",
"318 710 LINE",
"318 758 LINE",
"53 758 LINE",
"53 710 LINE",
"139 702 LINE",
"139 56 LINE",
"51 42 LINE"
);
}
);
width = 373;
}
);
unicode = 00CE;
},
{
glyphname = Idieresis;
lastChange = "2014-09-14 16:26:49 +0100";
layers = (
{
layerId = "E777F328-EA17-4AE7-9EBA-8002E537BA4F";
name = Light;
paths = (
{
closed = 1;
nodes = (
"68 758 LINE",
"68 721 LINE",
"149 714 LINE",
"149 44 LINE",
"66 33 LINE",
"66 0 LINE",
"307 0 LINE",
"307 33 LINE",
"221 44 LINE",
"221 714 LINE",
"303 721 LINE",
"303 758 LINE"
);
},
{
closed = 1;
nodes = (
"51 926 OFFCURVE",
"21 903 OFFCURVE",
"21 872 CURVE SMOOTH",
"21 843 OFFCURVE",
"44 825 OFFCURVE",
"69 825 CURVE SMOOTH",
"99 825 OFFCURVE",
"127 847 OFFCURVE",
"127 880 CURVE SMOOTH",
"127 905 OFFCURVE",
"112 926 OFFCURVE",
"78 926 CURVE SMOOTH"
);
},
{
closed = 1;
nodes = (
"274 926 OFFCURVE",
"244 902 OFFCURVE",
"244 871 CURVE SMOOTH",
"244 842 OFFCURVE",
"268 825 OFFCURVE",
"292 825 CURVE SMOOTH",
"322 825 OFFCURVE",
"350 847 OFFCURVE",
"350 879 CURVE SMOOTH",
"350 905 OFFCURVE",
"335 926 OFFCURVE",
"302 926 CURVE SMOOTH"
);
}
);
width = 373;
},
{
layerId = "39185045-6A8C-415A-8312-7B8F11386A4C";
name = Regular;
paths = (
{
closed = 1;
nodes = (
"53 758 LINE",
"53 710 LINE",
"139 702 LINE",
"139 56 LINE",
"51 42 LINE",
"51 0 LINE",
"323 0 LINE",
"323 42 LINE",
"234 56 LINE",
"234 702 LINE",
"318 710 LINE",
"318 758 LINE"
);
},
{
closed = 1;
nodes = (
"44 938 OFFCURVE",
"6 907 OFFCURVE",
"6 866 CURVE SMOOTH",
"6 829 OFFCURVE",
"36 806 OFFCURVE",
"67 806 CURVE SMOOTH",
"104 806 OFFCURVE",
"141 834 OFFCURVE",
"141 877 CURVE SMOOTH",
"141 910 OFFCURVE",
"122 938 OFFCURVE",
"79 938 CURVE SMOOTH"
);
},
{
closed = 1;
nodes = (
"271 938 OFFCURVE",
"233 907 OFFCURVE",
"233 866 CURVE SMOOTH",
"233 829 OFFCURVE",
"263 806 OFFCURVE",
"295 806 CURVE SMOOTH",
"332 806 OFFCURVE",
"368 834 OFFCURVE",
"368 877 CURVE SMOOTH",
"368 910 OFFCURVE",
"349 938 OFFCURVE",
"306 938 CURVE SMOOTH"
);
}
);
width = 373;
}
);
unicode = 00CF;
},
{
glyphname = Igrave;
lastChange = "2014-09-14 11:46:27 +0100";
layers = (
{
layerId = "E777F328-EA17-4AE7-9EBA-8002E537BA4F";
name = Light;
paths = (
{
closed = 1;
nodes = (
"208 806 LINE",
"64 938 LINE",
"12 884 LINE",
"58 848 OFFCURVE",
"129 809 OFFCURVE",
"188 785 CURVE"
);
},
{
closed = 1;
nodes = (
"66 0 LINE",
"307 0 LINE",
"307 33 LINE",
"221 44 LINE",
"221 714 LINE",
"303 721 LINE",
"303 758 LINE",
"68 758 LINE",
"68 721 LINE",
"149 714 LINE",
"149 44 LINE",
"66 33 LINE"
);
}
);
width = 373;
},
{
layerId = "39185045-6A8C-415A-8312-7B8F11386A4C";
name = Regular;
paths = (
{
closed = 1;
nodes = (
"219 811 LINE",
"70 938 LINE",
"-1 865 LINE",
"60 826 OFFCURVE",
"132 795 OFFCURVE",
"193 785 CURVE"
);
},
{
closed = 1;
nodes = (
"51 0 LINE",
"323 0 LINE",
"323 42 LINE",
"234 56 LINE",
"234 702 LINE",
"318 710 LINE",
"318 758 LINE",
"53 758 LINE",
"53 710 LINE",
"139 702 LINE",
"139 56 LINE",
"51 42 LINE"
);
}
);
width = 373;
}
);
unicode = 00CC;
},
{
glyphname = Itilde;
lastChange = "2014-09-14 11:46:27 +0100";
layers = (
{
layerId = "E777F328-EA17-4AE7-9EBA-8002E537BA4F";
name = Light;
paths = (
{
closed = 1;
nodes = (
"18 831 LINE",
"39 855 OFFCURVE",
"73 879 OFFCURVE",
"111 879 CURVE SMOOTH",
"161 879 OFFCURVE",
"184 807 OFFCURVE",
"248 807 CURVE SMOOTH",
"300 807 OFFCURVE",
"351 844 OFFCURVE",
"375 885 CURVE",
"355 915 LINE",
"333 890 OFFCURVE",
"303 867 OFFCURVE",
"262 867 CURVE SMOOTH",
"212 867 OFFCURVE",
"189 938 OFFCURVE",
"126 938 CURVE SMOOTH",
"74 938 OFFCURVE",
"22 902 OFFCURVE",
"-3 859 CURVE"
);
},
{
closed = 1;
nodes = (
"66 0 LINE",
"307 0 LINE",
"307 33 LINE",
"221 44 LINE",
"221 714 LINE",
"303 721 LINE",
"303 758 LINE",
"68 758 LINE",
"68 721 LINE",
"149 714 LINE",
"149 44 LINE",
"66 33 LINE"
);
}
);
width = 373;
},
{
layerId = "39185045-6A8C-415A-8312-7B8F11386A4C";
name = Regular;
paths = (
{
closed = 1;
nodes = (
"19 819 LINE",
"39 838 OFFCURVE",
"76 860 OFFCURVE",
"109 860 CURVE SMOOTH",
"157 860 OFFCURVE",
"172 796 OFFCURVE",
"236 796 CURVE SMOOTH",
"288 796 OFFCURVE",
"347 834 OFFCURVE",
"372 880 CURVE",
"346 916 LINE",
"325 895 OFFCURVE",
"293 876 OFFCURVE",
"256 876 CURVE SMOOTH",
"208 876 OFFCURVE",
"192 938 OFFCURVE",
"129 938 CURVE SMOOTH",
"77 938 OFFCURVE",
"19 900 OFFCURVE",
"-6 854 CURVE"
);
},
{
closed = 1;
nodes = (
"51 0 LINE",
"323 0 LINE",
"323 42 LINE",
"234 56 LINE",
"234 702 LINE",
"318 710 LINE",
"318 758 LINE",
"53 758 LINE",
"53 710 LINE",
"139 702 LINE",
"139 56 LINE",
"51 42 LINE"
);
}
);
width = 373;
}
);
unicode = 0128;
},
{
glyphname = J;
lastChange = "2014-09-14 16:12:56 +0100";
layers = (
{
layerId = "E777F328-EA17-4AE7-9EBA-8002E537BA4F";
name = Light;
paths = (
{
closed = 1;
nodes = (
"57 758 LINE",
"57 721 LINE",
"143 714 LINE",
"143 196 LINE SMOOTH",
"143 96 OFFCURVE",
"142 28 OFFCURVE",
"122 -29 CURVE",
"97 -92 OFFCURVE",
"38 -139 OFFCURVE",
"-42 -160 CURVE",
"-21 -189 LINE",
"79 -175 OFFCURVE",
"183 -100 OFFCURVE",
"207 17 CURVE SMOOTH",
"218 78 OFFCURVE",
"215 151 OFFCURVE",
"215 232 CURVE SMOOTH",
"215 714 LINE",
"303 721 LINE",
"303 758 LINE"
);
}
);
width = 352;
},
{
layerId = "39185045-6A8C-415A-8312-7B8F11386A4C";
name = Regular;
paths = (
{
closed = 1;
nodes = (
"58 758 LINE",
"58 710 LINE",
"139 702 LINE",
"139 196 LINE SMOOTH",
"139 96 OFFCURVE",
"136 28 OFFCURVE",
"116 -29 CURVE SMOOTH",
"91 -91 OFFCURVE",
"31 -132 OFFCURVE",
"-42 -156 CURVE",
"-17 -190 LINE",
"86 -175 OFFCURVE",
"199 -104 OFFCURVE",
"225 24 CURVE SMOOTH",
"237 91 OFFCURVE",
"234 176 OFFCURVE",
"234 269 CURVE SMOOTH",
"234 702 LINE",
"313 710 LINE",
"313 758 LINE"
);
}
);
width = 352;
}
);
unicode = 004A;
},
{
glyphname = Jcircumflex;
lastChange = "2014-09-14 16:26:49 +0100";
layers = (
{
layerId = "E777F328-EA17-4AE7-9EBA-8002E537BA4F";
name = Light;
paths = (
{
closed = 1;
nodes = (
"57 758 LINE",
"57 721 LINE",
"143 714 LINE",
"143 196 LINE SMOOTH",
"143 96 OFFCURVE",
"142 28 OFFCURVE",
"122 -29 CURVE",
"97 -92 OFFCURVE",
"38 -139 OFFCURVE",
"-42 -160 CURVE",
"-21 -189 LINE",
"79 -175 OFFCURVE",
"183 -100 OFFCURVE",
"207 17 CURVE SMOOTH",
"218 78 OFFCURVE",
"215 151 OFFCURVE",
"215 232 CURVE SMOOTH",
"215 714 LINE",
"303 721 LINE",
"303 758 LINE"
);
},
{
closed = 1;
nodes = (
"144 938 LINE",
"13 808 LINE",
"43 790 LINE",
"180 887 LINE",
"313 790 LINE",
"347 809 LINE",
"215 938 LINE"
);
}
);
width = 352;
},
{
layerId = "39185045-6A8C-415A-8312-7B8F11386A4C";
name = Regular;
paths = (
{
closed = 1;
nodes = (
"58 758 LINE",
"58 710 LINE",
"139 702 LINE",
"139 196 LINE SMOOTH",
"139 96 OFFCURVE",
"136 28 OFFCURVE",
"116 -29 CURVE SMOOTH",
"91 -91 OFFCURVE",
"31 -132 OFFCURVE",
"-42 -156 CURVE",
"-17 -190 LINE",
"86 -175 OFFCURVE",
"199 -104 OFFCURVE",
"225 24 CURVE SMOOTH",
"237 91 OFFCURVE",
"234 176 OFFCURVE",
"234 269 CURVE SMOOTH",
"234 702 LINE",
"313 710 LINE",
"313 758 LINE"
);
},
{
closed = 1;
nodes = (
"141 938 LINE",
"17 812 LINE",
"55 789 LINE",
"187 871 LINE",
"316 789 LINE",
"358 813 LINE",
"233 938 LINE"
);
}
);
width = 352;
}
);
unicode = 0134;
},
{
glyphname = K;
lastChange = "2014-09-14 11:46:27 +0100";
layers = (
{
layerId = "E777F328-EA17-4AE7-9EBA-8002E537BA4F";
name = Light;
paths = (
{
closed = 1;
nodes = (
"52 0 LINE",
"290 0 LINE",
"290 33 LINE",
"204 44 LINE",
"204 283 LINE",
"297 389 LINE",
"366 323 OFFCURVE",
"534 0 OFFCURVE",
"568 0 CURVE SMOOTH",
"696 0 LINE",
"696 33 LINE",
"622 47 LINE",
"588 47 OFFCURVE",
"400 373 OFFCURVE",
"339 437 CURVE",
"584 713 LINE",
"662 721 LINE",
"662 758 LINE",
"437 758 LINE",
"437 747 OFFCURVE",
"438 732 OFFCURVE",
"438 721 CURVE",
"516 713 LINE",
"204 350 LINE",
"204 714 LINE",
"282 721 LINE",
"282 758 LINE",
"53 758 LINE",
"53 721 LINE",
"131 714 LINE",
"131 44 LINE",
"52 33 LINE"
);
}
);
width = 693;
},
{
layerId = "39185045-6A8C-415A-8312-7B8F11386A4C";
name = Regular;
paths = (
{
closed = 1;
nodes = (
"52 0 LINE",
"319 0 LINE",
"319 42 LINE",
"229 55 LINE",
"229 280 LINE",
"311 374 LINE",
"381 303 OFFCURVE",
"520 0 OFFCURVE",
"554 0 CURVE SMOOTH",
"705 0 LINE",
"705 42 LINE",
"626 60 LINE",
"593 60 OFFCURVE",
"431 365 OFFCURVE",
"366 438 CURVE",
"595 702 LINE",
"675 710 LINE",
"675 758 LINE",
"431 758 LINE",
"431 742 OFFCURVE",
"432 727 OFFCURVE",
"432 710 CURVE",
"507 702 LINE",
"229 365 LINE",
"229 702 LINE",
"309 710 LINE",
"309 758 LINE",
"54 758 LINE",
"54 710 LINE",
"134 702 LINE",
"134 56 LINE",
"52 42 LINE"
);
}
);
width = 693;
}
);
unicode = 004B;
},
{
glyphname = Kcommaaccent;
lastChange = "2014-09-14 11:46:27 +0100";
layers = (
{
layerId = "E777F328-EA17-4AE7-9EBA-8002E537BA4F";
name = Light;
paths = (
{
closed = 1;
nodes = (
"52 0 LINE",
"290 0 LINE",
"290 33 LINE",
"204 44 LINE",
"204 283 LINE",
"297 389 LINE",
"366 323 OFFCURVE",
"534 0 OFFCURVE",
"568 0 CURVE SMOOTH",
"696 0 LINE",
"696 33 LINE",
"622 47 LINE",
"588 47 OFFCURVE",
"400 373 OFFCURVE",
"339 437 CURVE",
"584 713 LINE",
"662 721 LINE",
"662 758 LINE",
"437 758 LINE",
"437 747 OFFCURVE",
"438 732 OFFCURVE",
"438 721 CURVE",
"516 713 LINE",
"204 350 LINE",
"204 714 LINE",
"282 721 LINE",
"282 758 LINE",
"53 758 LINE",
"53 721 LINE",
"131 714 LINE",
"131 44 LINE",
"52 33 LINE"
);
},
{
closed = 1;
nodes = (
"336 -73 LINE",
"336 -94 LINE",
"359 -94 OFFCURVE",
"395 -120 OFFCURVE",
"395 -163 CURVE SMOOTH",
"395 -212 OFFCURVE",
"375 -264 OFFCURVE",
"335 -281 CURVE",
"335 -294 LINE",
"356 -313 LINE",
"404 -296 OFFCURVE",
"471 -229 OFFCURVE",
"469 -147 CURVE",
"469 -101 OFFCURVE",
"435 -48 OFFCURVE",
"372 -36 CURVE"
);
}
);
width = 693;
},
{
layerId = "39185045-6A8C-415A-8312-7B8F11386A4C";
name = Regular;
paths = (
{
closed = 1;
nodes = (
"52 0 LINE",
"319 0 LINE",
"319 42 LINE",
"229 55 LINE",
"229 280 LINE",
"311 374 LINE",
"381 303 OFFCURVE",
"520 0 OFFCURVE",
"554 0 CURVE SMOOTH",
"705 0 LINE",
"705 42 LINE",
"626 60 LINE",
"593 60 OFFCURVE",
"431 365 OFFCURVE",
"366 438 CURVE",
"595 702 LINE",
"675 710 LINE",
"675 758 LINE",
"431 758 LINE",
"431 742 OFFCURVE",
"432 727 OFFCURVE",
"432 710 CURVE",
"507 702 LINE",
"229 365 LINE",
"229 702 LINE",
"309 710 LINE",
"309 758 LINE",
"54 758 LINE",
"54 710 LINE",
"134 702 LINE",
"134 56 LINE",
"52 42 LINE"
);
},
{
closed = 1;
nodes = (
"349 -71 LINE",
"349 -97 LINE",
"366 -97 OFFCURVE",
"398 -126 OFFCURVE",
"398 -164 CURVE SMOOTH",
"398 -207 OFFCURVE",
"386 -258 OFFCURVE",
"349 -275 CURVE",
"349 -288 LINE",
"376 -313 LINE",
"420 -301 OFFCURVE",
"499 -233 OFFCURVE",
"499 -144 CURVE SMOOTH",
"499 -96 OFFCURVE",
"466 -38 OFFCURVE",
"398 -20 CURVE"
);
}
);
width = 693;
}
);
unicode = 0136;
},
{
glyphname = L;
lastChange = "2014-09-14 11:46:27 +0100";
layers = (
{
layerId = "E777F328-EA17-4AE7-9EBA-8002E537BA4F";
name = Light;
paths = (
{
closed = 1;
nodes = (
"52 0 LINE",
"561 0 LINE",
"593 155 LINE",
"560 171 LINE",
"507 51 LINE",
"211 42 LINE",
"212 710 LINE",
"307 717 LINE",
"307 758 LINE",
"54 758 LINE",
"54 717 LINE",
"140 710 LINE",
"140 45 LINE",
"52 33 LINE"
);
}
);
width = 607;
},
{
layerId = "39185045-6A8C-415A-8312-7B8F11386A4C";
name = Regular;
paths = (
{
closed = 1;
nodes = (
"52 0 LINE",
"561 0 LINE",
"593 162 LINE",
"550 183 LINE",
"490 66 LINE",
"229 55 LINE",
"230 697 LINE",
"316 705 LINE",
"316 758 LINE",
"54 758 LINE",
"54 705 LINE",
"134 697 LINE",
"134 56 LINE",
"52 42 LINE"
);
}
);
width = 607;
}
);
unicode = 004C;
},
{
glyphname = Ldot;
lastChange = "2014-09-14 16:26:49 +0100";
layers = (
{
layerId = "E777F328-EA17-4AE7-9EBA-8002E537BA4F";
name = Light;
paths = (
{
closed = 1;
nodes = (
"54 758 LINE",
"54 717 LINE",
"140 710 LINE",
"140 45 LINE",
"52 33 LINE",
"52 0 LINE",
"561 0 LINE",
"593 155 LINE",
"560 171 LINE",
"507 51 LINE",
"211 42 LINE",
"212 710 LINE",
"307 717 LINE",
"307 758 LINE"
);
},
{
closed = 1;
nodes = (
"576 461 OFFCURVE",
"547 444 OFFCURVE",
"543 417 CURVE SMOOTH",
"539 392 OFFCURVE",
"555 373 OFFCURVE",
"576 370 CURVE SMOOTH",
"601 366 OFFCURVE",
"628 383 OFFCURVE",
"632 411 CURVE SMOOTH",
"636 434 OFFCURVE",
"628 455 OFFCURVE",
"599 459 CURVE SMOOTH"
);
}
);
width = 680;
},
{
layerId = "39185045-6A8C-415A-8312-7B8F11386A4C";
name = Regular;
paths = (
{
closed = 1;
nodes = (
"54 758 LINE",
"54 705 LINE",
"134 697 LINE",
"134 56 LINE",
"52 42 LINE",
"52 0 LINE",
"561 0 LINE",
"593 162 LINE",
"550 183 LINE",
"490 66 LINE",
"229 55 LINE",
"230 697 LINE",
"316 705 LINE",
"316 758 LINE"
);
},
{
closed = 1;
nodes = (
"560 479 OFFCURVE",
"521 449 OFFCURVE",
"521 408 CURVE SMOOTH",
"521 370 OFFCURVE",
"551 348 OFFCURVE",
"583 348 CURVE SMOOTH",
"620 348 OFFCURVE",
"656 375 OFFCURVE",
"656 418 CURVE SMOOTH",
"656 452 OFFCURVE",
"637 479 OFFCURVE",
"594 479 CURVE SMOOTH"
);
}
);
width = 680;
}
);
unicode = 013F;
},
{
glyphname = Lslash;
lastChange = "2014-09-14 16:11:38 +0100";
layers = (
{
layerId = "E777F328-EA17-4AE7-9EBA-8002E537BA4F";
name = Light;
paths = (
{
closed = 1;
nodes = (
"54 758 LINE",
"54 717 LINE",
"140 710 LINE",
"140 343 LINE",
"43 303 LINE",
"43 275 LINE",
"43 266 OFFCURVE",
"43 258 OFFCURVE",
"43 249 CURVE",
"140 287 LINE",
"140 45 LINE",
"52 33 LINE",
"52 0 LINE",
"561 0 LINE",
"593 155 LINE",
"560 171 LINE",
"507 51 LINE",
"211 42 LINE",
"211 316 LINE",
"475 422 LINE",
"475 481 LINE",
"389 445 LINE",
"330 421 OFFCURVE",
"270 397 OFFCURVE",
"211 373 CURVE",
"212 710 LINE",
"307 717 LINE",
"307 758 LINE"
);
}
);
width = 607;
},
{
layerId = "39185045-6A8C-415A-8312-7B8F11386A4C";
name = Regular;
paths = (
{
closed = 1;
nodes = (
"54 758 LINE",
"54 705 LINE",
"134 697 LINE",
"134 348 LINE",
"47 313 LINE",
"47 277 LINE SMOOTH",
"47 267 OFFCURVE",
"47 255 OFFCURVE",
"47 242 CURVE",
"134 275 LINE",
"134 56 LINE",
"52 42 LINE",
"52 0 LINE",
"561 0 LINE",
"593 162 LINE",
"550 183 LINE",
"490 66 LINE",
"229 55 LINE",
"229 311 LINE",
"496 413 LINE",
"496 491 LINE",
"409 457 LINE SMOOTH",
"358 437 OFFCURVE",
"292 410 OFFCURVE",
"229 385 CURVE",
"230 697 LINE",
"316 705 LINE",
"316 758 LINE"
);
}
);
width = 607;
}
);
unicode = 0141;
},
{
glyphname = M;
lastChange = "2014-09-14 11:46:27 +0100";
layers = (
{
layerId = "E777F328-EA17-4AE7-9EBA-8002E537BA4F";
name = Light;
paths = (
{
closed = 1;
nodes = (
"38 0 LINE",
"291 0 LINE",
"291 33 LINE",
"187 45 LINE",
"214 520 LINE",
"222 712 LINE",
"237 668 OFFCURVE",
"258 605 OFFCURVE",
"272 566 CURVE SMOOTH",
"475 -7 LINE",
"500 -7 LINE",
"710 619 LINE",
"736 712 LINE",
"743 546 LINE",
"786 44 LINE",
"692 33 LINE",
"692 0 LINE",
"949 0 LINE",
"949 33 LINE",
"854 44 LINE",
"796 710 LINE",
"893 718 LINE",
"893 758 LINE",
"704 758 LINE",
"519 184 LINE",
"497 115 LINE",
"477 183 LINE",
"281 758 LINE",
"80 758 LINE",
"80 718 LINE",
"178 710 LINE",
"128 44 LINE",
"38 33 LINE"
);
}
);
width = 965;
},
{
layerId = "39185045-6A8C-415A-8312-7B8F11386A4C";
name = Regular;
paths = (
{
closed = 1;
nodes = (
"38 0 LINE",
"291 0 LINE",
"291 42 LINE",
"198 56 LINE",
"222 520 LINE",
"226 687 LINE",
"244 633 OFFCURVE",
"261 580 OFFCURVE",
"280 527 CURVE SMOOTH",
"467 -7 LINE",
"500 -7 LINE",
"706 602 LINE",
"726 682 LINE",
"730 513 LINE",
"771 56 LINE",
"690 42 LINE",
"690 0 LINE",
"944 0 LINE",
"944 42 LINE",
"860 56 LINE",
"805 697 LINE",
"896 705 LINE",
"896 758 LINE",
"689 758 LINE",
"521 228 LINE",
"499 154 LINE",
"476 226 LINE",
"300 758 LINE",
"75 758 LINE",
"75 705 LINE",
"170 697 LINE",
"122 56 LINE",
"38 42 LINE"
);
}
);
width = 965;
}
);
unicode = 004D;
},
{
glyphname = N;
lastChange = "2014-09-14 16:13:11 +0100";
layers = (
{
layerId = "E777F328-EA17-4AE7-9EBA-8002E537BA4F";
name = Light;
paths = (
{
closed = 1;
nodes = (
"551 758 LINE",
"551 718 LINE",
"636 710 LINE",
"636 63 LINE",
"564 195 LINE",
"213 758 LINE",
"54 758 LINE",
"54 717 LINE",
"137 710 LINE",
"137 44 LINE",
"51 33 LINE",
"51 0 LINE",
"291 0 LINE",
"291 33 LINE",
"190 44 LINE",
"190 191 OFFCURVE",
"191 529 OFFCURVE",
"191 680 CURVE",
"263 543 LINE",
"610 0 LINE",
"689 0 LINE",
"689 710 LINE",
"774 718 LINE",
"774 758 LINE"
);
}
);
width = 812;
},
{
layerId = "39185045-6A8C-415A-8312-7B8F11386A4C";
name = Regular;
paths = (
{
closed = 1;
nodes = (
"543 758 LINE",
"543 706 LINE",
"623 697 LINE",
"623 90 LINE",
"554 224 LINE",
"227 758 LINE",
"54 758 LINE",
"54 705 LINE",
"134 697 LINE",
"134 56 LINE",
"51 42 LINE",
"51 0 LINE",
"299 0 LINE",
"299 42 LINE",
"204 56 LINE",
"204 252 OFFCURVE",
"204 448 OFFCURVE",
"204 644 CURVE",
"271 508 LINE",
"593 0 LINE",
"693 0 LINE",
"693 697 LINE",
"774 706 LINE",
"774 758 LINE"
);
}
);
width = 812;
}
);
unicode = 004E;
},
{
glyphname = Nacute;
lastChange = "2014-09-14 16:27:40 +0100";
layers = (
{
layerId = "E777F328-EA17-4AE7-9EBA-8002E537BA4F";
name = Light;
paths = (
{
closed = 1;
nodes = (
"551 758 LINE",
"551 718 LINE",
"636 710 LINE",
"636 63 LINE",
"564 195 LINE",
"213 758 LINE",
"54 758 LINE",
"54 717 LINE",
"137 710 LINE",
"137 44 LINE",
"51 33 LINE",
"51 0 LINE",
"291 0 LINE",
"291 33 LINE",
"190 44 LINE",
"190 191 OFFCURVE",
"191 529 OFFCURVE",
"191 680 CURVE",
"263 543 LINE",
"610 0 LINE",
"689 0 LINE",
"689 710 LINE",
"774 718 LINE",
"774 758 LINE"
);
},
{
closed = 1;
nodes = (
"387 806 LINE",
"407 785 LINE",
"466 809 OFFCURVE",
"537 848 OFFCURVE",
"583 884 CURVE",
"531 938 LINE"
);
}
);
width = 812;
},
{
layerId = "39185045-6A8C-415A-8312-7B8F11386A4C";
name = Regular;
paths = (
{
closed = 1;
nodes = (
"543 758 LINE",
"543 706 LINE",
"623 697 LINE",
"623 90 LINE",
"554 224 LINE",
"227 758 LINE",
"54 758 LINE",
"54 705 LINE",
"134 697 LINE",
"134 56 LINE",
"51 42 LINE",
"51 0 LINE",
"299 0 LINE",
"299 42 LINE",
"204 56 LINE",
"204 252 OFFCURVE",
"204 448 OFFCURVE",
"204 644 CURVE",
"271 508 LINE",
"593 0 LINE",
"693 0 LINE",
"693 697 LINE",
"774 706 LINE",
"774 758 LINE"
);
},
{
closed = 1;
nodes = (
"375 811 LINE",
"401 785 LINE",
"462 795 OFFCURVE",
"535 826 OFFCURVE",
"596 865 CURVE",
"525 938 LINE"
);
}
);
width = 812;
}
);
unicode = 0143;
},
{
glyphname = Ntilde;
lastChange = "2014-09-14 16:21:16 +0100";
layers = (
{
layerId = "E777F328-EA17-4AE7-9EBA-8002E537BA4F";
name = Light;
paths = (
{
closed = 1;
nodes = (
"551 758 LINE",
"551 718 LINE",
"636 710 LINE",
"636 63 LINE",
"564 195 LINE",
"213 758 LINE",
"54 758 LINE",
"54 717 LINE",
"137 710 LINE",
"137 44 LINE",
"51 33 LINE",
"51 0 LINE",
"291 0 LINE",
"291 33 LINE",
"190 44 LINE",
"190 191 OFFCURVE",
"191 529 OFFCURVE",
"191 680 CURVE",
"263 543 LINE",
"610 0 LINE",
"689 0 LINE",
"689 710 LINE",
"774 718 LINE",
"774 758 LINE"
);
},
{
closed = 1;
nodes = (
"293 938 OFFCURVE",
"242 902 OFFCURVE",
"216 859 CURVE",
"237 831 LINE",
"258 855 OFFCURVE",
"292 879 OFFCURVE",
"331 879 CURVE SMOOTH",
"381 879 OFFCURVE",
"404 807 OFFCURVE",
"467 807 CURVE SMOOTH",
"520 807 OFFCURVE",
"570 844 OFFCURVE",
"595 885 CURVE",
"575 915 LINE",
"553 890 OFFCURVE",
"523 867 OFFCURVE",
"481 867 CURVE SMOOTH",
"432 867 OFFCURVE",
"409 938 OFFCURVE",
"346 938 CURVE SMOOTH"
);
}
);
width = 812;
},
{
layerId = "39185045-6A8C-415A-8312-7B8F11386A4C";
name = Regular;
paths = (
{
closed = 1;
nodes = (
"543 758 LINE",
"543 706 LINE",
"623 697 LINE",
"623 90 LINE",
"554 224 LINE",
"227 758 LINE",
"54 758 LINE",
"54 705 LINE",
"134 697 LINE",
"134 56 LINE",
"51 42 LINE",
"51 0 LINE",
"299 0 LINE",
"299 42 LINE",
"204 56 LINE",
"204 252 OFFCURVE",
"204 448 OFFCURVE",
"204 644 CURVE",
"271 508 LINE",
"593 0 LINE",
"693 0 LINE",
"693 697 LINE",
"774 706 LINE",
"774 758 LINE"
);
},
{
closed = 1;
nodes = (
"295 938 OFFCURVE",
"236 900 OFFCURVE",
"211 854 CURVE",
"237 819 LINE",
"256 838 OFFCURVE",
"293 860 OFFCURVE",
"327 860 CURVE SMOOTH",
"375 860 OFFCURVE",
"390 796 OFFCURVE",
"454 796 CURVE SMOOTH",
"506 796 OFFCURVE",
"565 834 OFFCURVE",
"589 880 CURVE",
"564 916 LINE",
"543 895 OFFCURVE",
"511 876 OFFCURVE",
"474 876 CURVE SMOOTH",
"426 876 OFFCURVE",
"410 938 OFFCURVE",
"347 938 CURVE SMOOTH"
);
}
);
width = 812;
}
);
unicode = 00D1;
},
{
glyphname = O;
lastChange = "2014-09-14 16:13:38 +0100";
layers = (
{
background = {
paths = (
{
closed = 1;
nodes = (
"42 142 OFFCURVE",
"176 -18 OFFCURVE",
"379 -14 CURVE SMOOTH",
"562 -10 OFFCURVE",
"711 132 OFFCURVE",
"716 386 CURVE SMOOTH",
"720 609 OFFCURVE",
"592 769 OFFCURVE",
"393 765 CURVE SMOOTH",
"207 761 OFFCURVE",
"51 624 OFFCURVE",
"45 369 CURVE SMOOTH"
);
},
{
closed = 1;
nodes = (
"224 27 OFFCURVE",
"125 176 OFFCURVE",
"125 369 CURVE SMOOTH",
"125 595 OFFCURVE",
"234 724 OFFCURVE",
"385 724 CURVE SMOOTH",
"547 724 OFFCURVE",
"638 573 OFFCURVE",
"638 386 CURVE SMOOTH",
"638 165 OFFCURVE",
"536 27 OFFCURVE",
"386 27 CURVE SMOOTH"
);
}
);
};
layerId = "E777F328-EA17-4AE7-9EBA-8002E537BA4F";
name = Light;
paths = (
{
closed = 1;
nodes = (
"336 765 OFFCURVE",
"275 749 OFFCURVE",
"222 718 CURVE SMOOTH",
"120 657 OFFCURVE",
"49 539 OFFCURVE",
"45 369 CURVE SMOOTH",
"42 145 OFFCURVE",
"173 -14 OFFCURVE",
"372 -14 CURVE SMOOTH",
"560 -14 OFFCURVE",
"716 133 OFFCURVE",
"716 396 CURVE SMOOTH",
"716 611 OFFCURVE",
"592 765 OFFCURVE",
"400 765 CURVE SMOOTH"
);
},
{
closed = 1;
nodes = (
"547 724 OFFCURVE",
"638 573 OFFCURVE",
"638 386 CURVE SMOOTH",
"638 165 OFFCURVE",
"536 27 OFFCURVE",
"386 27 CURVE SMOOTH",
"224 27 OFFCURVE",
"125 176 OFFCURVE",
"125 369 CURVE SMOOTH",
"125 595 OFFCURVE",
"234 724 OFFCURVE",
"385 724 CURVE SMOOTH"
);
}
);
width = 759;
},
{
background = {
paths = (
{
closed = 1;
nodes = (
"44 367 CURVE SMOOTH",
"40 146 OFFCURVE",
"172 -18 OFFCURVE",
"378 -14 CURVE SMOOTH",
"564 -10 OFFCURVE",
"712 136 OFFCURVE",
"718 385 CURVE SMOOTH",
"722 606 OFFCURVE",
"596 771 OFFCURVE",
"393 765 CURVE SMOOTH",
"204 760 OFFCURVE",
"49 616 OFFCURVE"
);
},
{
closed = 1;
nodes = (
"386 38 CURVE SMOOTH",
"236 38 OFFCURVE",
"149 198 OFFCURVE",
"149 368 CURVE SMOOTH",
"149 585 OFFCURVE",
"241 713 OFFCURVE",
"384 713 CURVE SMOOTH",
"533 713 OFFCURVE",
"612 554 OFFCURVE",
"612 384 CURVE SMOOTH",
"612 167 OFFCURVE",
"529 38 OFFCURVE"
);
}
);
};
layerId = "39185045-6A8C-415A-8312-7B8F11386A4C";
name = Regular;
paths = (
{
closed = 1;
nodes = (
"354 765 OFFCURVE",
"294 756 OFFCURVE",
"233 723 CURVE SMOOTH",
"124 664 OFFCURVE",
"44 536 OFFCURVE",
"44 357 CURVE SMOOTH",
"44 144 OFFCURVE",
"172 -14 OFFCURVE",
"371 -14 CURVE SMOOTH",
"560 -14 OFFCURVE",
"712 133 OFFCURVE",
"718 385 CURVE SMOOTH",
"722 602 OFFCURVE",
"600 765 OFFCURVE",
"404 765 CURVE SMOOTH"
);
},
{
closed = 1;
nodes = (
"533 713 OFFCURVE",
"612 554 OFFCURVE",
"612 384 CURVE SMOOTH",
"612 167 OFFCURVE",
"529 38 OFFCURVE",
"386 38 CURVE SMOOTH",
"236 38 OFFCURVE",
"149 198 OFFCURVE",
"149 368 CURVE SMOOTH",
"149 585 OFFCURVE",
"241 713 OFFCURVE",
"384 713 CURVE SMOOTH"
);
}
);
width = 759;
}
);
unicode = 004F;
},
{
glyphname = Oacute;
lastChange = "2014-09-14 16:26:49 +0100";
layers = (
{
layerId = "E777F328-EA17-4AE7-9EBA-8002E537BA4F";
name = Light;
paths = (
{
closed = 1;
nodes = (
"207 761 OFFCURVE",
"51 624 OFFCURVE",
"45 369 CURVE SMOOTH",
"42 142 OFFCURVE",
"176 -18 OFFCURVE",
"379 -14 CURVE SMOOTH",
"562 -10 OFFCURVE",
"711 132 OFFCURVE",
"716 386 CURVE SMOOTH",
"720 609 OFFCURVE",
"592 769 OFFCURVE",
"393 765 CURVE SMOOTH"
);
},
{
closed = 1;
nodes = (
"547 724 OFFCURVE",
"638 573 OFFCURVE",
"638 386 CURVE SMOOTH",
"638 165 OFFCURVE",
"536 27 OFFCURVE",
"386 27 CURVE SMOOTH",
"224 27 OFFCURVE",
"125 176 OFFCURVE",
"125 369 CURVE SMOOTH",
"125 595 OFFCURVE",
"234 724 OFFCURVE",
"385 724 CURVE SMOOTH"
);
},
{
closed = 1;
nodes = (
"365 806 LINE",
"386 785 LINE",
"445 809 OFFCURVE",
"516 848 OFFCURVE",
"562 884 CURVE",
"510 938 LINE"
);
}
);
width = 759;
},
{
layerId = "39185045-6A8C-415A-8312-7B8F11386A4C";
name = Regular;
paths = (
{
closed = 1;
nodes = (
"204 760 OFFCURVE",
"49 616 OFFCURVE",
"44 367 CURVE SMOOTH",
"40 146 OFFCURVE",
"172 -18 OFFCURVE",
"378 -14 CURVE SMOOTH",
"564 -10 OFFCURVE",
"712 136 OFFCURVE",
"718 385 CURVE SMOOTH",
"722 606 OFFCURVE",
"596 771 OFFCURVE",
"393 765 CURVE SMOOTH"
);
},
{
closed = 1;
nodes = (
"533 713 OFFCURVE",
"612 554 OFFCURVE",
"612 384 CURVE SMOOTH",
"612 167 OFFCURVE",
"529 38 OFFCURVE",
"386 38 CURVE SMOOTH",
"236 38 OFFCURVE",
"149 198 OFFCURVE",
"149 368 CURVE SMOOTH",
"149 585 OFFCURVE",
"241 713 OFFCURVE",
"384 713 CURVE SMOOTH"
);
},
{
closed = 1;
nodes = (
"355 811 LINE",
"381 785 LINE",
"442 795 OFFCURVE",
"515 826 OFFCURVE",
"576 865 CURVE",
"505 938 LINE"
);
}
);
width = 759;
}
);
unicode = 00D3;
},
{
glyphname = Ocircumflex;
lastChange = "2014-09-14 16:26:49 +0100";
layers = (
{
layerId = "E777F328-EA17-4AE7-9EBA-8002E537BA4F";
name = Light;
paths = (
{
closed = 1;
nodes = (
"207 761 OFFCURVE",
"51 624 OFFCURVE",
"45 369 CURVE SMOOTH",
"42 142 OFFCURVE",
"176 -18 OFFCURVE",
"379 -14 CURVE SMOOTH",
"562 -10 OFFCURVE",
"711 132 OFFCURVE",
"716 386 CURVE SMOOTH",
"720 609 OFFCURVE",
"592 769 OFFCURVE",
"393 765 CURVE SMOOTH"
);
},
{
closed = 1;
nodes = (
"547 724 OFFCURVE",
"638 573 OFFCURVE",
"638 386 CURVE SMOOTH",
"638 165 OFFCURVE",
"536 27 OFFCURVE",
"386 27 CURVE SMOOTH",
"224 27 OFFCURVE",
"125 176 OFFCURVE",
"125 369 CURVE SMOOTH",
"125 595 OFFCURVE",
"234 724 OFFCURVE",
"385 724 CURVE SMOOTH"
);
},
{
closed = 1;
nodes = (
"353 938 LINE",
"222 808 LINE",
"252 790 LINE",
"388 887 LINE",
"521 790 LINE",
"556 809 LINE",
"424 938 LINE"
);
}
);
width = 759;
},
{
layerId = "39185045-6A8C-415A-8312-7B8F11386A4C";
name = Regular;
paths = (
{
closed = 1;
nodes = (
"204 760 OFFCURVE",
"49 616 OFFCURVE",
"44 367 CURVE SMOOTH",
"40 146 OFFCURVE",
"172 -18 OFFCURVE",
"378 -14 CURVE SMOOTH",
"564 -10 OFFCURVE",
"712 136 OFFCURVE",
"718 385 CURVE SMOOTH",
"722 606 OFFCURVE",
"596 771 OFFCURVE",
"393 765 CURVE SMOOTH"
);
},
{
closed = 1;
nodes = (
"533 713 OFFCURVE",
"612 554 OFFCURVE",
"612 384 CURVE SMOOTH",
"612 167 OFFCURVE",
"529 38 OFFCURVE",
"386 38 CURVE SMOOTH",
"236 38 OFFCURVE",
"149 198 OFFCURVE",
"149 368 CURVE SMOOTH",
"149 585 OFFCURVE",
"241 713 OFFCURVE",
"384 713 CURVE SMOOTH"
);
},
{
closed = 1;
nodes = (
"339 938 LINE",
"216 812 LINE",
"254 789 LINE",
"386 871 LINE",
"515 789 LINE",
"557 813 LINE",
"432 938 LINE"
);
}
);
width = 759;
}
);
unicode = 00D4;
},
{
glyphname = Odieresis;
lastChange = "2014-09-14 16:21:27 +0100";
layers = (
{
layerId = "E777F328-EA17-4AE7-9EBA-8002E537BA4F";
name = Light;
paths = (
{
closed = 1;
nodes = (
"207 761 OFFCURVE",
"51 624 OFFCURVE",
"45 369 CURVE SMOOTH",
"42 142 OFFCURVE",
"176 -18 OFFCURVE",
"379 -14 CURVE SMOOTH",
"562 -10 OFFCURVE",
"711 132 OFFCURVE",
"716 386 CURVE SMOOTH",
"720 609 OFFCURVE",
"592 769 OFFCURVE",
"393 765 CURVE SMOOTH"
);
},
{
closed = 1;
nodes = (
"547 724 OFFCURVE",
"638 573 OFFCURVE",
"638 386 CURVE SMOOTH",
"638 165 OFFCURVE",
"536 27 OFFCURVE",
"386 27 CURVE SMOOTH",
"224 27 OFFCURVE",
"125 176 OFFCURVE",
"125 369 CURVE SMOOTH",
"125 595 OFFCURVE",
"234 724 OFFCURVE",
"385 724 CURVE SMOOTH"
);
},
{
closed = 1;
nodes = (
"253 926 OFFCURVE",
"223 903 OFFCURVE",
"223 872 CURVE SMOOTH",
"223 843 OFFCURVE",
"246 825 OFFCURVE",
"271 825 CURVE SMOOTH",
"300 825 OFFCURVE",
"329 847 OFFCURVE",
"329 880 CURVE SMOOTH",
"329 905 OFFCURVE",
"313 926 OFFCURVE",
"280 926 CURVE SMOOTH"
);
},
{
closed = 1;
nodes = (
"476 926 OFFCURVE",
"446 902 OFFCURVE",
"446 871 CURVE SMOOTH",
"446 842 OFFCURVE",
"470 825 OFFCURVE",
"495 825 CURVE SMOOTH",
"523 825 OFFCURVE",
"552 847 OFFCURVE",
"552 879 CURVE SMOOTH",
"552 905 OFFCURVE",
"537 926 OFFCURVE",
"503 926 CURVE SMOOTH"
);
}
);
width = 759;
},
{
layerId = "39185045-6A8C-415A-8312-7B8F11386A4C";
name = Regular;
paths = (
{
closed = 1;
nodes = (
"204 760 OFFCURVE",
"49 616 OFFCURVE",
"44 367 CURVE SMOOTH",
"40 146 OFFCURVE",
"172 -18 OFFCURVE",
"378 -14 CURVE SMOOTH",
"564 -10 OFFCURVE",
"712 136 OFFCURVE",
"718 385 CURVE SMOOTH",
"722 606 OFFCURVE",
"596 771 OFFCURVE",
"393 765 CURVE SMOOTH"
);
},
{
closed = 1;
nodes = (
"533 713 OFFCURVE",
"612 554 OFFCURVE",
"612 384 CURVE SMOOTH",
"612 167 OFFCURVE",
"529 38 OFFCURVE",
"386 38 CURVE SMOOTH",
"236 38 OFFCURVE",
"149 198 OFFCURVE",
"149 368 CURVE SMOOTH",
"149 585 OFFCURVE",
"241 713 OFFCURVE",
"384 713 CURVE SMOOTH"
);
},
{
closed = 1;
nodes = (
"242 938 OFFCURVE",
"204 907 OFFCURVE",
"204 866 CURVE SMOOTH",
"204 829 OFFCURVE",
"233 806 OFFCURVE",
"265 806 CURVE SMOOTH",
"302 806 OFFCURVE",
"338 834 OFFCURVE",
"338 877 CURVE SMOOTH",
"338 910 OFFCURVE",
"319 938 OFFCURVE",
"276 938 CURVE SMOOTH"
);
},
{
closed = 1;
nodes = (
"469 938 OFFCURVE",
"431 907 OFFCURVE",
"431 866 CURVE SMOOTH",
"431 829 OFFCURVE",
"461 806 OFFCURVE",
"493 806 CURVE SMOOTH",
"529 806 OFFCURVE",
"566 834 OFFCURVE",
"566 877 CURVE SMOOTH",
"566 910 OFFCURVE",
"547 938 OFFCURVE",
"504 938 CURVE SMOOTH"
);
}
);
width = 759;
}
);
unicode = 00D6;
},
{
glyphname = Ograve;
lastChange = "2014-09-14 16:26:49 +0100";
layers = (
{
layerId = "E777F328-EA17-4AE7-9EBA-8002E537BA4F";
name = Light;
paths = (
{
closed = 1;
nodes = (
"207 761 OFFCURVE",
"51 624 OFFCURVE",
"45 369 CURVE SMOOTH",
"42 142 OFFCURVE",
"176 -18 OFFCURVE",
"379 -14 CURVE SMOOTH",
"562 -10 OFFCURVE",
"711 132 OFFCURVE",
"716 386 CURVE SMOOTH",
"720 609 OFFCURVE",
"592 769 OFFCURVE",
"393 765 CURVE SMOOTH"
);
},
{
closed = 1;
nodes = (
"547 724 OFFCURVE",
"638 573 OFFCURVE",
"638 386 CURVE SMOOTH",
"638 165 OFFCURVE",
"536 27 OFFCURVE",
"386 27 CURVE SMOOTH",
"224 27 OFFCURVE",
"125 176 OFFCURVE",
"125 369 CURVE SMOOTH",
"125 595 OFFCURVE",
"234 724 OFFCURVE",
"385 724 CURVE SMOOTH"
);
},
{
closed = 1;
nodes = (
"214 884 LINE",
"261 848 OFFCURVE",
"330 809 OFFCURVE",
"390 785 CURVE",
"411 806 LINE",
"266 938 LINE"
);
}
);
width = 759;
},
{
layerId = "39185045-6A8C-415A-8312-7B8F11386A4C";
name = Regular;
paths = (
{
closed = 1;
nodes = (
"204 760 OFFCURVE",
"49 616 OFFCURVE",
"44 367 CURVE SMOOTH",
"40 146 OFFCURVE",
"172 -18 OFFCURVE",
"378 -14 CURVE SMOOTH",
"564 -10 OFFCURVE",
"712 136 OFFCURVE",
"718 385 CURVE SMOOTH",
"722 606 OFFCURVE",
"596 771 OFFCURVE",
"393 765 CURVE SMOOTH"
);
},
{
closed = 1;
nodes = (
"533 713 OFFCURVE",
"612 554 OFFCURVE",
"612 384 CURVE SMOOTH",
"612 167 OFFCURVE",
"529 38 OFFCURVE",
"386 38 CURVE SMOOTH",
"236 38 OFFCURVE",
"149 198 OFFCURVE",
"149 368 CURVE SMOOTH",
"149 585 OFFCURVE",
"241 713 OFFCURVE",
"384 713 CURVE SMOOTH"
);
},
{
closed = 1;
nodes = (
"196 865 LINE",
"257 826 OFFCURVE",
"330 795 OFFCURVE",
"391 785 CURVE",
"417 811 LINE",
"268 938 LINE"
);
}
);
width = 759;
}
);
unicode = 00D2;
},
{
glyphname = Oslash;
lastChange = "2014-09-14 11:46:27 +0100";
layers = (
{
layerId = "E777F328-EA17-4AE7-9EBA-8002E537BA4F";
name = Light;
paths = (
{
closed = 1;
nodes = (
"217 -81 LINE",
"252 -94 LINE",
"283 -2 LINE",
"313 -10 OFFCURVE",
"346 -14 OFFCURVE",
"379 -14 CURVE SMOOTH",
"562 -10 OFFCURVE",
"711 132 OFFCURVE",
"716 386 CURVE SMOOTH",
"719 549 OFFCURVE",
"652 677 OFFCURVE",
"538 733 CURVE",
"565 812 LINE",
"532 825 LINE",
"505 748 LINE",
"470 759 OFFCURVE",
"433 765 OFFCURVE",
"393 765 CURVE SMOOTH",
"207 761 OFFCURVE",
"51 624 OFFCURVE",
"45 369 CURVE SMOOTH",
"42 195 OFFCURVE",
"121 61 OFFCURVE",
"248 9 CURVE"
);
},
{
closed = 1;
nodes = (
"267 59 LINE",
"177 113 OFFCURVE",
"125 229 OFFCURVE",
"125 369 CURVE SMOOTH",
"125 595 OFFCURVE",
"234 724 OFFCURVE",
"385 724 CURVE SMOOTH",
"424 724 OFFCURVE",
"458 715 OFFCURVE",
"487 700 CURVE"
);
},
{
closed = 1;
nodes = (
"519 681 LINE",
"596 624 OFFCURVE",
"638 512 OFFCURVE",
"638 386 CURVE SMOOTH",
"638 165 OFFCURVE",
"536 27 OFFCURVE",
"386 27 CURVE SMOOTH",
"355 27 OFFCURVE",
"327 32 OFFCURVE",
"301 42 CURVE"
);
}
);
width = 759;
},
{
layerId = "39185045-6A8C-415A-8312-7B8F11386A4C";
name = Regular;
paths = (
{
closed = 1;
nodes = (
"216 -81 LINE",
"259 -97 LINE",
"291 -5 LINE",
"318 -11 OFFCURVE",
"347 -14 OFFCURVE",
"378 -14 CURVE SMOOTH",
"564 -10 OFFCURVE",
"712 136 OFFCURVE",
"718 385 CURVE SMOOTH",
"720 542 OFFCURVE",
"657 672 OFFCURVE",
"546 731 CURVE",
"573 810 LINE",
"533 827 LINE",
"505 749 LINE",
"471 760 OFFCURVE",
"434 767 OFFCURVE",
"393 765 CURVE SMOOTH",
"204 760 OFFCURVE",
"49 616 OFFCURVE",
"44 367 CURVE SMOOTH",
"40 198 OFFCURVE",
"118 62 OFFCURVE",
"247 9 CURVE"
);
},
{
closed = 1;
nodes = (
"271 74 LINE",
"192 131 OFFCURVE",
"149 247 OFFCURVE",
"149 368 CURVE SMOOTH",
"149 585 OFFCURVE",
"241 713 OFFCURVE",
"384 713 CURVE SMOOTH",
"421 713 OFFCURVE",
"453 703 OFFCURVE",
"482 686 CURVE"
);
},
{
closed = 1;
nodes = (
"519 657 LINE",
"580 596 OFFCURVE",
"612 492 OFFCURVE",
"612 384 CURVE SMOOTH",
"612 167 OFFCURVE",
"529 38 OFFCURVE",
"386 38 CURVE SMOOTH",
"359 38 OFFCURVE",
"335 42 OFFCURVE",
"312 52 CURVE"
);
}
);
width = 759;
}
);
unicode = 00D8;
},
{
glyphname = Otilde;
lastChange = "2014-09-14 16:26:49 +0100";
layers = (
{
layerId = "E777F328-EA17-4AE7-9EBA-8002E537BA4F";
name = Light;
paths = (
{
closed = 1;
nodes = (
"207 761 OFFCURVE",
"51 624 OFFCURVE",
"45 369 CURVE SMOOTH",
"42 142 OFFCURVE",
"176 -18 OFFCURVE",
"379 -14 CURVE SMOOTH",
"562 -10 OFFCURVE",
"711 132 OFFCURVE",
"716 386 CURVE SMOOTH",
"720 609 OFFCURVE",
"592 769 OFFCURVE",
"393 765 CURVE SMOOTH"
);
},
{
closed = 1;
nodes = (
"547 724 OFFCURVE",
"638 573 OFFCURVE",
"638 386 CURVE SMOOTH",
"638 165 OFFCURVE",
"536 27 OFFCURVE",
"386 27 CURVE SMOOTH",
"224 27 OFFCURVE",
"125 176 OFFCURVE",
"125 369 CURVE SMOOTH",
"125 595 OFFCURVE",
"234 724 OFFCURVE",
"385 724 CURVE SMOOTH"
);
},
{
closed = 1;
nodes = (
"272 938 OFFCURVE",
"220 902 OFFCURVE",
"195 859 CURVE",
"216 831 LINE",
"238 855 OFFCURVE",
"271 879 OFFCURVE",
"310 879 CURVE SMOOTH",
"360 879 OFFCURVE",
"383 807 OFFCURVE",
"446 807 CURVE SMOOTH",
"498 807 OFFCURVE",
"549 844 OFFCURVE",
"574 885 CURVE",
"554 915 LINE",
"531 890 OFFCURVE",
"501 867 OFFCURVE",
"460 867 CURVE SMOOTH",
"411 867 OFFCURVE",
"387 938 OFFCURVE",
"325 938 CURVE SMOOTH"
);
}
);
width = 759;
},
{
layerId = "39185045-6A8C-415A-8312-7B8F11386A4C";
name = Regular;
paths = (
{
closed = 1;
nodes = (
"204 760 OFFCURVE",
"49 616 OFFCURVE",
"44 367 CURVE SMOOTH",
"40 146 OFFCURVE",
"172 -18 OFFCURVE",
"378 -14 CURVE SMOOTH",
"564 -10 OFFCURVE",
"712 136 OFFCURVE",
"718 385 CURVE SMOOTH",
"722 606 OFFCURVE",
"596 771 OFFCURVE",
"393 765 CURVE SMOOTH"
);
},
{
closed = 1;
nodes = (
"533 713 OFFCURVE",
"612 554 OFFCURVE",
"612 384 CURVE SMOOTH",
"612 167 OFFCURVE",
"529 38 OFFCURVE",
"386 38 CURVE SMOOTH",
"236 38 OFFCURVE",
"149 198 OFFCURVE",
"149 368 CURVE SMOOTH",
"149 585 OFFCURVE",
"241 713 OFFCURVE",
"384 713 CURVE SMOOTH"
);
},
{
closed = 1;
nodes = (
"275 938 OFFCURVE",
"216 900 OFFCURVE",
"191 854 CURVE",
"217 819 LINE",
"236 838 OFFCURVE",
"273 860 OFFCURVE",
"307 860 CURVE SMOOTH",
"355 860 OFFCURVE",
"370 796 OFFCURVE",
"434 796 CURVE SMOOTH",
"486 796 OFFCURVE",
"545 834 OFFCURVE",
"569 880 CURVE",
"544 916 LINE",
"523 895 OFFCURVE",
"491 876 OFFCURVE",
"454 876 CURVE SMOOTH",
"406 876 OFFCURVE",
"390 938 OFFCURVE",
"327 938 CURVE SMOOTH"
);
}
);
width = 759;
}
);
unicode = 00D5;
},
{
glyphname = OE;
lastChange = "2014-09-14 16:26:49 +0100";
layers = (
{
layerId = "E777F328-EA17-4AE7-9EBA-8002E537BA4F";
name = Light;
paths = (
{
closed = 1;
nodes = (
"204 761 OFFCURVE",
"51 619 OFFCURVE",
"45 371 CURVE SMOOTH",
"42 143 OFFCURVE",
"176 -16 OFFCURVE",
"378 -14 CURVE SMOOTH",
"414 -13 OFFCURVE",
"446 -8 OFFCURVE",
"476 0 CURVE",
"962 0 LINE",
"984 154 LINE",
"948 163 LINE",
"903 49 LINE",
"595 41 LINE",
"595 383 LINE",
"792 380 LINE",
"806 298 LINE",
"844 298 LINE",
"844 505 LINE",
"806 505 LINE",
"792 427 LINE",
"595 423 LINE",
"595 719 LINE",
"884 713 LINE",
"907 619 LINE",
"948 619 LINE",
"934 758 LINE",
"472 758 LINE",
"447 763 OFFCURVE",
"422 765 OFFCURVE",
"393 765 CURVE SMOOTH"
);
},
{
closed = 1;
nodes = (
"442 724 OFFCURVE",
"488 701 OFFCURVE",
"523 664 CURVE",
"523 82 LINE",
"488 45 OFFCURVE",
"443 26 OFFCURVE",
"386 26 CURVE SMOOTH",
"224 26 OFFCURVE",
"125 178 OFFCURVE",
"125 371 CURVE SMOOTH",
"125 591 OFFCURVE",
"231 724 OFFCURVE",
"385 724 CURVE SMOOTH"
);
}
);
width = 1015;
},
{
layerId = "39185045-6A8C-415A-8312-7B8F11386A4C";
name = Regular;
paths = (
{
closed = 1;
nodes = (
"204 760 OFFCURVE",
"49 616 OFFCURVE",
"44 367 CURVE SMOOTH",
"40 146 OFFCURVE",
"172 -18 OFFCURVE",
"378 -14 CURVE SMOOTH",
"409 -12 OFFCURVE",
"438 -8 OFFCURVE",
"467 0 CURVE",
"959 0 LINE",
"981 151 LINE",
"934 163 LINE",
"885 62 LINE",
"611 53 LINE",
"611 371 LINE",
"791 368 LINE",
"806 293 LINE",
"855 293 LINE",
"855 503 LINE",
"806 503 LINE",
"791 427 LINE",
"611 423 LINE",
"611 707 LINE",
"869 701 LINE",
"892 619 LINE",
"945 619 LINE",
"931 758 LINE",
"469 758 LINE",
"444 763 OFFCURVE",
"419 766 OFFCURVE",
"393 765 CURVE SMOOTH"
);
},
{
closed = 1;
nodes = (
"438 713 OFFCURVE",
"481 693 OFFCURVE",
"517 659 CURVE",
"517 86 LINE",
"481 55 OFFCURVE",
"438 38 OFFCURVE",
"386 38 CURVE SMOOTH",
"236 38 OFFCURVE",
"149 198 OFFCURVE",
"149 368 CURVE SMOOTH",
"149 585 OFFCURVE",
"241 713 OFFCURVE",
"384 713 CURVE SMOOTH"
);
}
);
width = 1010;
}
);
unicode = 0152;
},
{
glyphname = P;
lastChange = "2014-09-14 11:46:27 +0100";
layers = (
{
layerId = "E777F328-EA17-4AE7-9EBA-8002E537BA4F";
name = Light;
paths = (
{
closed = 1;
nodes = (
"42 0 LINE",
"347 0 LINE",
"347 33 LINE",
"212 45 LINE",
"212 289 LINE",
"233 291 OFFCURVE",
"267 290 OFFCURVE",
"321 290 CURVE SMOOTH",
"464 289 OFFCURVE",
"604 378 OFFCURVE",
"604 537 CURVE SMOOTH",
"604 712 OFFCURVE",
"499 765 OFFCURVE",
"349 765 CURVE SMOOTH",
"284 765 OFFCURVE",
"214 758 OFFCURVE",
"175 758 CURVE SMOOTH",
"53 758 LINE",
"53 717 LINE",
"140 710 LINE",
"140 45 LINE",
"42 33 LINE"
);
},
{
closed = 1;
nodes = (
"212 713 LINE",
"241 721 OFFCURVE",
"288 721 OFFCURVE",
"319 723 CURVE SMOOTH",
"462 727 OFFCURVE",
"531 664 OFFCURVE",
"531 536 CURVE SMOOTH",
"531 383 OFFCURVE",
"437 331 OFFCURVE",
"319 329 CURVE SMOOTH",
"289 329 OFFCURVE",
"249 329 OFFCURVE",
"212 334 CURVE"
);
}
);
width = 633;
},
{
layerId = "39185045-6A8C-415A-8312-7B8F11386A4C";
name = Regular;
paths = (
{
closed = 1;
nodes = (
"42 0 LINE",
"360 0 LINE",
"360 42 LINE",
"229 56 LINE",
"229 288 LINE",
"250 292 OFFCURVE",
"279 292 OFFCURVE",
"328 291 CURVE SMOOTH",
"471 287 OFFCURVE",
"611 380 OFFCURVE",
"611 539 CURVE SMOOTH",
"611 714 OFFCURVE",
"506 765 OFFCURVE",
"356 765 CURVE SMOOTH",
"292 765 OFFCURVE",
"213 758 OFFCURVE",
"182 758 CURVE SMOOTH",
"54 758 LINE",
"54 705 LINE",
"134 697 LINE",
"134 56 LINE",
"42 42 LINE"
);
},
{
closed = 1;
nodes = (
"229 701 LINE",
"259 708 OFFCURVE",
"287 709 OFFCURVE",
"319 711 CURVE SMOOTH",
"444 715 OFFCURVE",
"514 657 OFFCURVE",
"514 537 CURVE SMOOTH",
"514 372 OFFCURVE",
"421 340 OFFCURVE",
"327 340 CURVE SMOOTH",
"297 340 OFFCURVE",
"267 340 OFFCURVE",
"229 346 CURVE"
);
}
);
width = 633;
}
);
unicode = 0050;
},
{
glyphname = Thorn;
lastChange = "2014-09-14 11:46:27 +0100";
layers = (
{
layerId = "E777F328-EA17-4AE7-9EBA-8002E537BA4F";
name = Light;
paths = (
{
closed = 1;
nodes = (
"42 0 LINE",
"347 0 LINE",
"347 33 LINE",
"212 45 LINE",
"212 162 LINE",
"233 162 OFFCURVE",
"267 159 OFFCURVE",
"321 159 CURVE SMOOTH",
"464 157 OFFCURVE",
"604 239 OFFCURVE",
"604 398 CURVE SMOOTH",
"604 550 OFFCURVE",
"495 612 OFFCURVE",
"345 612 CURVE SMOOTH",
"298 612 OFFCURVE",
"250 603 OFFCURVE",
"212 599 CURVE",
"212 714 LINE",
"295 721 LINE",
"295 758 LINE",
"60 758 LINE",
"60 721 LINE",
"140 714 LINE",
"140 45 LINE",
"42 33 LINE"
);
},
{
closed = 1;
nodes = (
"212 555 LINE",
"241 563 OFFCURVE",
"284 568 OFFCURVE",
"315 570 CURVE SMOOTH",
"458 575 OFFCURVE",
"531 511 OFFCURVE",
"531 397 CURVE SMOOTH",
"531 251 OFFCURVE",
"435 199 OFFCURVE",
"319 197 CURVE SMOOTH",
"289 197 OFFCURVE",
"249 198 OFFCURVE",
"212 204 CURVE"
);
}
);
width = 633;
},
{
layerId = "39185045-6A8C-415A-8312-7B8F11386A4C";
name = Regular;
paths = (
{
closed = 1;
nodes = (
"42 0 LINE",
"360 0 LINE",
"360 42 LINE",
"229 56 LINE",
"229 161 LINE",
"250 160 OFFCURVE",
"279 160 OFFCURVE",
"328 159 CURVE SMOOTH",
"471 155 OFFCURVE",
"611 243 OFFCURVE",
"611 402 CURVE SMOOTH",
"611 543 OFFCURVE",
"506 612 OFFCURVE",
"356 612 CURVE SMOOTH",
"313 612 OFFCURVE",
"267 605 OFFCURVE",
"229 601 CURVE",
"229 702 LINE",
"314 710 LINE",
"314 758 LINE",
"49 758 LINE",
"49 710 LINE",
"134 702 LINE",
"134 56 LINE",
"42 42 LINE"
);
},
{
closed = 1;
nodes = (
"229 544 LINE",
"259 551 OFFCURVE",
"287 557 OFFCURVE",
"319 558 CURVE SMOOTH",
"444 563 OFFCURVE",
"514 500 OFFCURVE",
"514 400 CURVE SMOOTH",
"514 245 OFFCURVE",
"420 208 OFFCURVE",
"327 208 CURVE SMOOTH",
"297 208 OFFCURVE",
"267 208 OFFCURVE",
"229 214 CURVE"
);
}
);
width = 633;
}
);
unicode = 00DE;
},
{
glyphname = Q;
lastChange = "2014-09-14 16:15:12 +0100";
layers = (
{
background = {
paths = (
{
closed = 1;
nodes = (
"40 142 OFFCURVE",
"175 -18 OFFCURVE",
"377 -14 CURVE",
"395 -13 LINE",
"424 -130 OFFCURVE",
"504 -173 OFFCURVE",
"596 -173 CURVE SMOOTH",
"651 -173 OFFCURVE",
"697 -157 OFFCURVE",
"708 -139 CURVE",
"701 -91 LINE",
"684 -104 OFFCURVE",
"653 -111 OFFCURVE",
"620 -111 CURVE SMOOTH",
"545 -111 OFFCURVE",
"462 -82 OFFCURVE",
"438 -7 CURVE",
"591 24 OFFCURVE",
"710 161 OFFCURVE",
"714 386 CURVE SMOOTH",
"718 609 OFFCURVE",
"591 769 OFFCURVE",
"391 765 CURVE SMOOTH",
"205 761 OFFCURVE",
"50 624 OFFCURVE",
"44 369 CURVE SMOOTH"
);
},
{
closed = 1;
nodes = (
"223 27 OFFCURVE",
"123 176 OFFCURVE",
"123 369 CURVE SMOOTH",
"123 595 OFFCURVE",
"233 724 OFFCURVE",
"384 724 CURVE SMOOTH",
"545 724 OFFCURVE",
"636 573 OFFCURVE",
"636 386 CURVE SMOOTH",
"636 165 OFFCURVE",
"534 27 OFFCURVE",
"385 27 CURVE SMOOTH"
);
}
);
};
layerId = "E777F328-EA17-4AE7-9EBA-8002E537BA4F";
name = Light;
paths = (
{
closed = 1;
nodes = (
"320 765 OFFCURVE",
"246 741 OFFCURVE",
"187 695 CURVE SMOOTH",
"101 629 OFFCURVE",
"44 516 OFFCURVE",
"44 359 CURVE SMOOTH",
"44 137 OFFCURVE",
"178 -18 OFFCURVE",
"377 -14 CURVE",
"378 -14 OFFCURVE",
"384 -14 OFFCURVE",
"395 -13 CURVE",
"424 -130 OFFCURVE",
"504 -173 OFFCURVE",
"596 -173 CURVE SMOOTH",
"651 -173 OFFCURVE",
"697 -157 OFFCURVE",
"708 -139 CURVE",
"701 -91 LINE",
"684 -104 OFFCURVE",
"653 -111 OFFCURVE",
"620 -111 CURVE SMOOTH",
"545 -111 OFFCURVE",
"462 -82 OFFCURVE",
"438 -7 CURVE",
"594 25 OFFCURVE",
"714 166 OFFCURVE",
"714 396 CURVE SMOOTH",
"714 611 OFFCURVE",
"591 765 OFFCURVE",
"398 765 CURVE SMOOTH"
);
},
{
closed = 1;
nodes = (
"545 724 OFFCURVE",
"636 573 OFFCURVE",
"636 386 CURVE SMOOTH",
"636 165 OFFCURVE",
"534 27 OFFCURVE",
"385 27 CURVE SMOOTH",
"223 27 OFFCURVE",
"123 176 OFFCURVE",
"123 369 CURVE SMOOTH",
"123 595 OFFCURVE",
"233 724 OFFCURVE",
"384 724 CURVE SMOOTH"
);
}
);
width = 759;
},
{
background = {
paths = (
{
closed = 1;
nodes = (
"233 723 CURVE SMOOTH",
"124 664 OFFCURVE",
"44 536 OFFCURVE",
"44 357 CURVE SMOOTH",
"44 144 OFFCURVE",
"172 -14 OFFCURVE",
"371 -14 CURVE SMOOTH",
"560 -14 OFFCURVE",
"712 133 OFFCURVE",
"718 385 CURVE SMOOTH",
"722 602 OFFCURVE",
"600 765 OFFCURVE",
"404 765 CURVE SMOOTH",
"354 765 OFFCURVE",
"294 756 OFFCURVE"
);
},
{
closed = 1;
nodes = (
"386 38 CURVE SMOOTH",
"236 38 OFFCURVE",
"149 198 OFFCURVE",
"149 368 CURVE SMOOTH",
"149 585 OFFCURVE",
"241 713 OFFCURVE",
"384 713 CURVE SMOOTH",
"533 713 OFFCURVE",
"612 554 OFFCURVE",
"612 384 CURVE SMOOTH",
"612 167 OFFCURVE",
"529 38 OFFCURVE"
);
}
);
};
layerId = "39185045-6A8C-415A-8312-7B8F11386A4C";
name = Regular;
paths = (
{
closed = 1;
nodes = (
"354 765 OFFCURVE",
"294 756 OFFCURVE",
"233 723 CURVE SMOOTH",
"124 664 OFFCURVE",
"44 536 OFFCURVE",
"44 357 CURVE",
"40 149 OFFCURVE",
"172 -14 OFFCURVE",
"378 -14 CURVE SMOOTH",
"379 -14 OFFCURVE",
"383 -14 OFFCURVE",
"389 -13 CURVE",
"422 -142 OFFCURVE",
"510 -174 OFFCURVE",
"604 -174 CURVE SMOOTH",
"659 -174 OFFCURVE",
"700 -156 OFFCURVE",
"713 -137 CURVE",
"704 -77 LINE",
"687 -88 OFFCURVE",
"660 -93 OFFCURVE",
"636 -93 CURVE SMOOTH",
"570 -93 OFFCURVE",
"475 -83 OFFCURVE",
"443 -6 CURVE",
"597 27 OFFCURVE",
"714 166 OFFCURVE",
"718 385 CURVE SMOOTH",
"722 602 OFFCURVE",
"600 765 OFFCURVE",
"404 765 CURVE"
);
},
{
closed = 1;
nodes = (
"533 713 OFFCURVE",
"612 554 OFFCURVE",
"612 384 CURVE SMOOTH",
"612 167 OFFCURVE",
"529 38 OFFCURVE",
"386 38 CURVE SMOOTH",
"236 38 OFFCURVE",
"149 198 OFFCURVE",
"149 368 CURVE",
"149 585 OFFCURVE",
"241 713 OFFCURVE",
"384 713 CURVE"
);
}
);
width = 759;
}
);
unicode = 0051;
},
{
glyphname = R;
lastChange = "2014-09-14 16:16:25 +0100";
layers = (
{
background = {
paths = (
{
closed = 1;
nodes = (
"262 765 OFFCURVE",
"210 759 OFFCURVE",
"177 758 CURVE SMOOTH",
"53 758 LINE",
"53 717 LINE",
"140 710 LINE",
"140 45 LINE",
"42 33 LINE",
"42 0 LINE",
"318 0 LINE",
"318 33 LINE",
"212 44 LINE",
"212 335 LINE",
"250 335 OFFCURVE",
"287 335 OFFCURVE",
"322 336 CURVE",
"320 335 LINE",
"430 343 OFFCURVE",
"528 0 OFFCURVE",
"572 0 CURVE SMOOTH",
"697 0 LINE",
"697 33 LINE",
"638 44 LINE SMOOTH",
"592 52 OFFCURVE",
"503 318 OFFCURVE",
"410 347 CURVE",
"409 347 OFFCURVE",
"408 348 OFFCURVE",
"408 348 CURVE",
"512 377 OFFCURVE",
"580 459 OFFCURVE",
"580 561 CURVE SMOOTH",
"580 718 OFFCURVE",
"475 765 OFFCURVE",
"327 765 CURVE SMOOTH"
);
},
{
closed = 1;
nodes = (
"453 729 OFFCURVE",
"504 664 OFFCURVE",
"504 552 CURVE SMOOTH",
"504 444 OFFCURVE",
"443 377 OFFCURVE",
"325 375 CURVE SMOOTH",
"300 375 OFFCURVE",
"235 377 OFFCURVE",
"212 379 CURVE",
"212 716 LINE",
"238 724 OFFCURVE",
"282 723 OFFCURVE",
"313 724 CURVE SMOOTH"
);
}
);
};
layerId = "E777F328-EA17-4AE7-9EBA-8002E537BA4F";
name = Light;
paths = (
{
closed = 1;
nodes = (
"262 765 OFFCURVE",
"210 759 OFFCURVE",
"177 758 CURVE SMOOTH",
"53 758 LINE",
"53 717 LINE",
"140 710 LINE",
"140 45 LINE",
"42 33 LINE",
"42 0 LINE",
"318 0 LINE",
"318 33 LINE",
"212 44 LINE",
"212 335 LINE",
"252 335 OFFCURVE",
"285 335 OFFCURVE",
"320 335 CURVE",
"430 343 OFFCURVE",
"528 0 OFFCURVE",
"572 0 CURVE SMOOTH",
"697 0 LINE",
"697 33 LINE",
"638 44 LINE SMOOTH",
"592 52 OFFCURVE",
"503 318 OFFCURVE",
"410 347 CURVE",
"408 348 LINE",
"512 377 OFFCURVE",
"580 459 OFFCURVE",
"580 561 CURVE SMOOTH",
"580 718 OFFCURVE",
"475 765 OFFCURVE",
"327 765 CURVE SMOOTH"
);
},
{
closed = 1;
nodes = (
"453 729 OFFCURVE",
"504 664 OFFCURVE",
"504 552 CURVE SMOOTH",
"504 444 OFFCURVE",
"443 377 OFFCURVE",
"325 375 CURVE SMOOTH",
"300 375 OFFCURVE",
"235 377 OFFCURVE",
"212 379 CURVE",
"212 716 LINE",
"238 724 OFFCURVE",
"282 723 OFFCURVE",
"313 724 CURVE SMOOTH"
);
}
);
width = 693;
},
{
layerId = "39185045-6A8C-415A-8312-7B8F11386A4C";
name = Regular;
paths = (
{
closed = 1;
nodes = (
"264 765 OFFCURVE",
"213 758 OFFCURVE",
"182 758 CURVE SMOOTH",
"54 758 LINE",
"54 705 LINE",
"134 697 LINE",
"134 56 LINE",
"42 42 LINE",
"42 0 LINE",
"331 0 LINE",
"331 42 LINE",
"229 56 LINE",
"229 328 LINE",
"259 328 OFFCURVE",
"285 328 OFFCURVE",
"308 329 CURVE SMOOTH",
"421 340 OFFCURVE",
"509 0 OFFCURVE",
"559 0 CURVE SMOOTH",
"700 0 LINE",
"700 42 LINE",
"647 56 LINE SMOOTH",
"597 70 OFFCURVE",
"524 298 OFFCURVE",
"432 344 CURVE",
"422 348 LINE",
"519 381 OFFCURVE",
"585 461 OFFCURVE",
"585 563 CURVE SMOOTH",
"585 721 OFFCURVE",
"479 765 OFFCURVE",
"329 765 CURVE SMOOTH"
);
},
{
closed = 1;
nodes = (
"446 718 OFFCURVE",
"486 651 OFFCURVE",
"486 552 CURVE SMOOTH",
"486 431 OFFCURVE",
"420 380 OFFCURVE",
"316 380 CURVE SMOOTH",
"295 380 OFFCURVE",
"245 381 OFFCURVE",
"229 383 CURVE",
"229 705 LINE",
"254 712 OFFCURVE",
"284 711 OFFCURVE",
"316 713 CURVE SMOOTH"
);
}
);
width = 693;
}
);
unicode = 0052;
},
{
glyphname = Racute;
lastChange = "2014-09-14 16:16:51 +0100";
layers = (
{
layerId = "E777F328-EA17-4AE7-9EBA-8002E537BA4F";
name = Light;
paths = (
{
closed = 1;
nodes = (
"333 785 LINE",
"392 809 OFFCURVE",
"462 848 OFFCURVE",
"508 884 CURVE",
"457 938 LINE",
"312 806 LINE"
);
},
{
closed = 1;
nodes = (
"262 765 OFFCURVE",
"210 759 OFFCURVE",
"177 758 CURVE SMOOTH",
"53 758 LINE",
"53 717 LINE",
"140 710 LINE",
"140 45 LINE",
"42 33 LINE",
"42 0 LINE",
"318 0 LINE",
"318 33 LINE",
"212 44 LINE",
"212 335 LINE",
"252 335 OFFCURVE",
"285 335 OFFCURVE",
"320 335 CURVE",
"430 343 OFFCURVE",
"528 0 OFFCURVE",
"572 0 CURVE SMOOTH",
"697 0 LINE",
"697 33 LINE",
"638 44 LINE SMOOTH",
"592 52 OFFCURVE",
"503 318 OFFCURVE",
"410 347 CURVE",
"408 348 LINE",
"512 377 OFFCURVE",
"580 459 OFFCURVE",
"580 561 CURVE SMOOTH",
"580 718 OFFCURVE",
"475 765 OFFCURVE",
"327 765 CURVE SMOOTH"
);
},
{
closed = 1;
nodes = (
"453 729 OFFCURVE",
"504 664 OFFCURVE",
"504 552 CURVE SMOOTH",
"504 444 OFFCURVE",
"443 377 OFFCURVE",
"325 375 CURVE SMOOTH",
"300 375 OFFCURVE",
"235 377 OFFCURVE",
"212 379 CURVE",
"212 716 LINE",
"238 724 OFFCURVE",
"282 723 OFFCURVE",
"313 724 CURVE SMOOTH"
);
}
);
width = 693;
},
{
layerId = "39185045-6A8C-415A-8312-7B8F11386A4C";
name = Regular;
paths = (
{
closed = 1;
nodes = (
"336 785 LINE",
"396 795 OFFCURVE",
"470 826 OFFCURVE",
"531 865 CURVE",
"459 938 LINE",
"310 811 LINE"
);
},
{
closed = 1;
nodes = (
"264 765 OFFCURVE",
"213 758 OFFCURVE",
"182 758 CURVE SMOOTH",
"54 758 LINE",
"54 705 LINE",
"134 697 LINE",
"134 56 LINE",
"42 42 LINE",
"42 0 LINE",
"331 0 LINE",
"331 42 LINE",
"229 56 LINE",
"229 328 LINE",
"259 328 OFFCURVE",
"285 328 OFFCURVE",
"308 329 CURVE SMOOTH",
"421 340 OFFCURVE",
"509 0 OFFCURVE",
"559 0 CURVE SMOOTH",
"700 0 LINE",
"700 42 LINE",
"647 56 LINE SMOOTH",
"597 70 OFFCURVE",
"524 298 OFFCURVE",
"432 344 CURVE",
"422 348 LINE",
"519 381 OFFCURVE",
"585 461 OFFCURVE",
"585 563 CURVE SMOOTH",
"585 721 OFFCURVE",
"479 765 OFFCURVE",
"329 765 CURVE SMOOTH"
);
},
{
closed = 1;
nodes = (
"446 718 OFFCURVE",
"486 651 OFFCURVE",
"486 552 CURVE SMOOTH",
"486 431 OFFCURVE",
"420 380 OFFCURVE",
"316 380 CURVE SMOOTH",
"295 380 OFFCURVE",
"245 381 OFFCURVE",
"229 383 CURVE",
"229 705 LINE",
"254 712 OFFCURVE",
"284 711 OFFCURVE",
"316 713 CURVE SMOOTH"
);
}
);
width = 693;
}
);
unicode = 0154;
},
{
glyphname = Rcaron;
lastChange = "2014-09-14 16:28:08 +0100";
layers = (
{
layerId = "E777F328-EA17-4AE7-9EBA-8002E537BA4F";
name = Light;
paths = (
{
closed = 1;
nodes = (
"336 848 LINE",
"207 938 LINE",
"174 917 LINE",
"302 796 LINE",
"371 796 LINE",
"497 918 LINE",
"468 938 LINE"
);
},
{
closed = 1;
nodes = (
"262 765 OFFCURVE",
"210 759 OFFCURVE",
"177 758 CURVE SMOOTH",
"53 758 LINE",
"53 717 LINE",
"140 710 LINE",
"140 45 LINE",
"42 33 LINE",
"42 0 LINE",
"318 0 LINE",
"318 33 LINE",
"212 44 LINE",
"212 335 LINE",
"252 335 OFFCURVE",
"285 335 OFFCURVE",
"320 335 CURVE",
"430 343 OFFCURVE",
"528 0 OFFCURVE",
"572 0 CURVE SMOOTH",
"697 0 LINE",
"697 33 LINE",
"638 44 LINE SMOOTH",
"592 52 OFFCURVE",
"503 318 OFFCURVE",
"410 347 CURVE",
"408 348 LINE",
"512 377 OFFCURVE",
"580 459 OFFCURVE",
"580 561 CURVE SMOOTH",
"580 718 OFFCURVE",
"475 765 OFFCURVE",
"327 765 CURVE SMOOTH"
);
},
{
closed = 1;
nodes = (
"453 729 OFFCURVE",
"504 664 OFFCURVE",
"504 552 CURVE SMOOTH",
"504 444 OFFCURVE",
"443 377 OFFCURVE",
"325 375 CURVE SMOOTH",
"300 375 OFFCURVE",
"235 377 OFFCURVE",
"212 379 CURVE",
"212 716 LINE",
"238 724 OFFCURVE",
"282 723 OFFCURVE",
"313 724 CURVE SMOOTH"
);
}
);
width = 693;
},
{
layerId = "39185045-6A8C-415A-8312-7B8F11386A4C";
name = Regular;
paths = (
{
closed = 1;
nodes = (
"342 855 LINE",
"223 938 LINE",
"180 914 LINE",
"296 789 LINE",
"388 789 LINE",
"502 915 LINE",
"464 938 LINE"
);
},
{
closed = 1;
nodes = (
"264 765 OFFCURVE",
"213 758 OFFCURVE",
"182 758 CURVE SMOOTH",
"54 758 LINE",
"54 705 LINE",
"134 697 LINE",
"134 56 LINE",
"42 42 LINE",
"42 0 LINE",
"331 0 LINE",
"331 42 LINE",
"229 56 LINE",
"229 328 LINE",
"259 328 OFFCURVE",
"285 328 OFFCURVE",
"308 329 CURVE SMOOTH",
"421 340 OFFCURVE",
"509 0 OFFCURVE",
"559 0 CURVE SMOOTH",
"700 0 LINE",
"700 42 LINE",
"647 56 LINE SMOOTH",
"597 70 OFFCURVE",
"524 298 OFFCURVE",
"432 344 CURVE",
"422 348 LINE",
"519 381 OFFCURVE",
"585 461 OFFCURVE",
"585 563 CURVE SMOOTH",
"585 721 OFFCURVE",
"479 765 OFFCURVE",
"329 765 CURVE SMOOTH"
);
},
{
closed = 1;
nodes = (
"446 718 OFFCURVE",
"486 651 OFFCURVE",
"486 552 CURVE SMOOTH",
"486 431 OFFCURVE",
"420 380 OFFCURVE",
"316 380 CURVE SMOOTH",
"295 380 OFFCURVE",
"245 381 OFFCURVE",
"229 383 CURVE",
"229 705 LINE",
"254 712 OFFCURVE",
"284 711 OFFCURVE",
"316 713 CURVE SMOOTH"
);
}
);
width = 693;
}
);
unicode = 0158;
},
{
glyphname = Rcommaaccent;
lastChange = "2014-09-14 16:28:31 +0100";
layers = (
{
layerId = "E777F328-EA17-4AE7-9EBA-8002E537BA4F";
name = Light;
paths = (
{
closed = 1;
nodes = (
"329 -73 LINE",
"329 -94 LINE",
"352 -94 OFFCURVE",
"387 -120 OFFCURVE",
"387 -163 CURVE SMOOTH",
"387 -212 OFFCURVE",
"367 -265 OFFCURVE",
"328 -281 CURVE",
"328 -294 LINE",
"348 -313 LINE",
"396 -295 OFFCURVE",
"463 -229 OFFCURVE",
"462 -147 CURVE SMOOTH",
"460 -101 OFFCURVE",
"427 -48 OFFCURVE",
"364 -36 CURVE"
);
},
{
closed = 1;
nodes = (
"262 765 OFFCURVE",
"210 759 OFFCURVE",
"177 758 CURVE SMOOTH",
"53 758 LINE",
"53 717 LINE",
"140 710 LINE",
"140 45 LINE",
"42 33 LINE",
"42 0 LINE",
"318 0 LINE",
"318 33 LINE",
"212 44 LINE",
"212 335 LINE",
"252 335 OFFCURVE",
"285 335 OFFCURVE",
"320 335 CURVE",
"430 343 OFFCURVE",
"528 0 OFFCURVE",
"572 0 CURVE SMOOTH",
"697 0 LINE",
"697 33 LINE",
"638 44 LINE SMOOTH",
"592 52 OFFCURVE",
"503 318 OFFCURVE",
"410 347 CURVE",
"408 348 LINE",
"512 377 OFFCURVE",
"580 459 OFFCURVE",
"580 561 CURVE SMOOTH",
"580 718 OFFCURVE",
"475 765 OFFCURVE",
"327 765 CURVE SMOOTH"
);
},
{
closed = 1;
nodes = (
"453 729 OFFCURVE",
"504 664 OFFCURVE",
"504 552 CURVE SMOOTH",
"504 444 OFFCURVE",
"443 377 OFFCURVE",
"325 375 CURVE SMOOTH",
"300 375 OFFCURVE",
"235 377 OFFCURVE",
"212 379 CURVE",
"212 716 LINE",
"238 724 OFFCURVE",
"282 723 OFFCURVE",
"313 724 CURVE SMOOTH"
);
}
);
width = 693;
},
{
layerId = "39185045-6A8C-415A-8312-7B8F11386A4C";
name = Regular;
paths = (
{
closed = 1;
nodes = (
"321 -71 LINE",
"321 -97 LINE",
"339 -97 OFFCURVE",
"371 -126 OFFCURVE",
"371 -164 CURVE SMOOTH",
"371 -207 OFFCURVE",
"359 -258 OFFCURVE",
"322 -275 CURVE",
"322 -288 LINE",
"349 -313 LINE",
"393 -301 OFFCURVE",
"471 -233 OFFCURVE",
"471 -144 CURVE SMOOTH",
"471 -96 OFFCURVE",
"439 -38 OFFCURVE",
"371 -20 CURVE"
);
},
{
closed = 1;
nodes = (
"264 765 OFFCURVE",
"213 758 OFFCURVE",
"182 758 CURVE SMOOTH",
"54 758 LINE",
"54 705 LINE",
"134 697 LINE",
"134 56 LINE",
"42 42 LINE",
"42 0 LINE",
"331 0 LINE",
"331 42 LINE",
"229 56 LINE",
"229 328 LINE",
"259 328 OFFCURVE",
"285 328 OFFCURVE",
"308 329 CURVE SMOOTH",
"421 340 OFFCURVE",
"509 0 OFFCURVE",
"559 0 CURVE SMOOTH",
"700 0 LINE",
"700 42 LINE",
"647 56 LINE SMOOTH",
"597 70 OFFCURVE",
"524 298 OFFCURVE",
"432 344 CURVE",
"422 348 LINE",
"519 381 OFFCURVE",
"585 461 OFFCURVE",
"585 563 CURVE SMOOTH",
"585 721 OFFCURVE",
"479 765 OFFCURVE",
"329 765 CURVE SMOOTH"
);
},
{
closed = 1;
nodes = (
"446 718 OFFCURVE",
"486 651 OFFCURVE",
"486 552 CURVE SMOOTH",
"486 431 OFFCURVE",
"420 380 OFFCURVE",
"316 380 CURVE SMOOTH",
"295 380 OFFCURVE",
"245 381 OFFCURVE",
"229 383 CURVE",
"229 705 LINE",
"254 712 OFFCURVE",
"284 711 OFFCURVE",
"316 713 CURVE SMOOTH"
);
}
);
width = 693;
}
);
unicode = 0156;
},
{
glyphname = S;
lastChange = "2014-09-14 11:46:27 +0100";
layers = (
{
layerId = "E777F328-EA17-4AE7-9EBA-8002E537BA4F";
name = Light;
paths = (
{
closed = 1;
nodes = (
"75 31 LINE",
"103 14 OFFCURVE",
"201 -11 OFFCURVE",
"298 -11 CURVE SMOOTH",
"435 -11 OFFCURVE",
"550 49 OFFCURVE",
"550 192 CURVE SMOOTH",
"550 307 OFFCURVE",
"434 364 OFFCURVE",
"327 415 CURVE SMOOTH",
"234 459 OFFCURVE",
"147 503 OFFCURVE",
"147 586 CURVE SMOOTH",
"147 689 OFFCURVE",
"240 727 OFFCURVE",
"311 727 CURVE SMOOTH",
"363 727 OFFCURVE",
"414 718 OFFCURVE",
"443 693 CURVE",
"472 596 LINE",
"505 596 LINE",
"505 726 LINE",
"476 743 OFFCURVE",
"417 765 OFFCURVE",
"317 765 CURVE SMOOTH",
"216 765 OFFCURVE",
"80 712 OFFCURVE",
"80 575 CURVE SMOOTH",
"80 464 OFFCURVE",
"187 408 OFFCURVE",
"291 358 CURVE SMOOTH",
"388 311 OFFCURVE",
"482 263 OFFCURVE",
"482 173 CURVE SMOOTH",
"482 66 OFFCURVE",
"391 28 OFFCURVE",
"307 28 CURVE SMOOTH",
"250 28 OFFCURVE",
"174 38 OFFCURVE",
"134 77 CURVE",
"111 177 LINE",
"75 177 LINE"
);
}
);
width = 600;
},
{
layerId = "39185045-6A8C-415A-8312-7B8F11386A4C";
name = Regular;
paths = (
{
closed = 1;
nodes = (
"75 30 LINE",
"103 13 OFFCURVE",
"200 -11 OFFCURVE",
"298 -11 CURVE SMOOTH",
"432 -11 OFFCURVE",
"550 48 OFFCURVE",
"550 194 CURVE SMOOTH",
"550 308 OFFCURVE",
"436 369 OFFCURVE",
"332 425 CURVE SMOOTH",
"246 470 OFFCURVE",
"168 519 OFFCURVE",
"168 593 CURVE SMOOTH",
"168 688 OFFCURVE",
"255 717 OFFCURVE",
"308 717 CURVE SMOOTH",
"355 717 OFFCURVE",
"401 707 OFFCURVE",
"424 686 CURVE",
"462 592 LINE",
"504 592 LINE",
"504 728 LINE",
"476 744 OFFCURVE",
"410 765 OFFCURVE",
"315 765 CURVE SMOOTH",
"217 765 OFFCURVE",
"80 713 OFFCURVE",
"80 577 CURVE SMOOTH",
"80 467 OFFCURVE",
"182 406 OFFCURVE",
"281 352 CURVE SMOOTH",
"373 300 OFFCURVE",
"460 250 OFFCURVE",
"460 167 CURVE SMOOTH",
"460 76 OFFCURVE",
"383 38 OFFCURVE",
"311 38 CURVE SMOOTH",
"253 38 OFFCURVE",
"188 49 OFFCURVE",
"149 90 CURVE",
"118 187 LINE",
"75 187 LINE"
);
}
);
width = 600;
}
);
unicode = 0053;
},
{
glyphname = Scaron;
lastChange = "2014-09-14 11:46:27 +0100";
layers = (
{
layerId = "E777F328-EA17-4AE7-9EBA-8002E537BA4F";
name = Light;
paths = (
{
closed = 1;
nodes = (
"283 796 LINE",
"352 796 LINE",
"478 918 LINE",
"449 938 LINE",
"317 848 LINE",
"188 938 LINE",
"155 917 LINE"
);
},
{
closed = 1;
nodes = (
"73 31 LINE",
"101 14 OFFCURVE",
"199 -11 OFFCURVE",
"296 -11 CURVE SMOOTH",
"433 -11 OFFCURVE",
"548 49 OFFCURVE",
"548 192 CURVE SMOOTH",
"548 307 OFFCURVE",
"432 364 OFFCURVE",
"325 415 CURVE SMOOTH",
"232 459 OFFCURVE",
"145 503 OFFCURVE",
"145 586 CURVE SMOOTH",
"145 689 OFFCURVE",
"238 727 OFFCURVE",
"309 727 CURVE SMOOTH",
"361 727 OFFCURVE",
"412 718 OFFCURVE",
"441 693 CURVE",
"470 596 LINE",
"503 596 LINE",
"503 726 LINE",
"474 743 OFFCURVE",
"415 765 OFFCURVE",
"315 765 CURVE SMOOTH",
"214 765 OFFCURVE",
"78 712 OFFCURVE",
"78 575 CURVE SMOOTH",
"78 464 OFFCURVE",
"185 408 OFFCURVE",
"289 358 CURVE SMOOTH",
"386 311 OFFCURVE",
"480 263 OFFCURVE",
"480 173 CURVE SMOOTH",
"480 66 OFFCURVE",
"389 28 OFFCURVE",
"305 28 CURVE SMOOTH",
"248 28 OFFCURVE",
"172 38 OFFCURVE",
"132 77 CURVE",
"109 177 LINE",
"73 177 LINE"
);
}
);
width = 600;
},
{
layerId = "39185045-6A8C-415A-8312-7B8F11386A4C";
name = Regular;
paths = (
{
closed = 1;
nodes = (
"268 789 LINE",
"360 789 LINE",
"474 915 LINE",
"436 938 LINE",
"314 855 LINE",
"195 938 LINE",
"152 914 LINE"
);
},
{
closed = 1;
nodes = (
"72 30 LINE",
"100 13 OFFCURVE",
"197 -11 OFFCURVE",
"295 -11 CURVE SMOOTH",
"429 -11 OFFCURVE",
"547 48 OFFCURVE",
"547 194 CURVE SMOOTH",
"547 308 OFFCURVE",
"433 369 OFFCURVE",
"329 425 CURVE SMOOTH",
"243 470 OFFCURVE",
"166 519 OFFCURVE",
"166 593 CURVE SMOOTH",
"166 688 OFFCURVE",
"252 717 OFFCURVE",
"305 717 CURVE SMOOTH",
"353 717 OFFCURVE",
"398 707 OFFCURVE",
"421 686 CURVE",
"459 592 LINE",
"501 592 LINE",
"501 728 LINE",
"473 744 OFFCURVE",
"407 765 OFFCURVE",
"312 765 CURVE SMOOTH",
"214 765 OFFCURVE",
"77 713 OFFCURVE",
"77 577 CURVE SMOOTH",
"77 467 OFFCURVE",
"179 406 OFFCURVE",
"278 352 CURVE SMOOTH",
"370 300 OFFCURVE",
"457 250 OFFCURVE",
"457 167 CURVE SMOOTH",
"457 76 OFFCURVE",
"380 38 OFFCURVE",
"308 38 CURVE SMOOTH",
"250 38 OFFCURVE",
"185 49 OFFCURVE",
"146 90 CURVE",
"115 187 LINE",
"72 187 LINE"
);
}
);
width = 600;
}
);
unicode = 0160;
},
{
glyphname = T;
lastChange = "2014-09-14 11:46:27 +0100";
layers = (
{
layerId = "E777F328-EA17-4AE7-9EBA-8002E537BA4F";
name = Light;
paths = (
{
closed = 1;
nodes = (
"154 0 LINE",
"489 0 LINE",
"489 33 LINE",
"354 45 LINE",
"354 717 LINE",
"556 709 LINE",
"576 604 LINE",
"607 608 LINE",
"608 758 LINE",
"27 758 LINE",
"15 610 LINE",
"49 611 LINE",
"79 709 LINE",
"282 717 LINE",
"282 45 LINE",
"154 33 LINE"
);
}
);
width = 620;
},
{
layerId = "39185045-6A8C-415A-8312-7B8F11386A4C";
name = Regular;
paths = (
{
closed = 1;
nodes = (
"151 0 LINE",
"493 0 LINE",
"493 42 LINE",
"366 56 LINE",
"366 704 LINE",
"542 695 LINE",
"567 604 LINE",
"607 608 LINE",
"608 758 LINE",
"27 758 LINE",
"15 610 LINE",
"59 611 LINE",
"93 694 LINE",
"271 704 LINE",
"271 56 LINE",
"151 42 LINE"
);
}
);
width = 620;
}
);
leftKerningGroup = T;
rightKerningGroup = T;
unicode = 0054;
},
{
glyphname = U;
lastChange = "2014-09-14 16:17:04 +0100";
layers = (
{
layerId = "E777F328-EA17-4AE7-9EBA-8002E537BA4F";
name = Light;
paths = (
{
closed = 1;
nodes = (
"522 758 LINE",
"522 721 LINE",
"606 713 LINE",
"606 324 LINE SMOOTH",
"606 134 OFFCURVE",
"541 25 OFFCURVE",
"396 25 CURVE SMOOTH",
"261 25 OFFCURVE",
"164 89 OFFCURVE",
"164 313 CURVE SMOOTH",
"164 713 LINE",
"249 721 LINE",
"249 758 LINE",
"16 758 LINE",
"16 721 LINE",
"91 714 LINE",
"91 581 OFFCURVE",
"91 449 OFFCURVE",
"91 316 CURVE SMOOTH",
"91 94 OFFCURVE",
"175 -14 OFFCURVE",
"382 -14 CURVE SMOOTH",
"548 -14 OFFCURVE",
"663 81 OFFCURVE",
"663 324 CURVE SMOOTH",
"663 713 LINE",
"739 721 LINE",
"739 758 LINE"
);
}
);
width = 770;
},
{
layerId = "39185045-6A8C-415A-8312-7B8F11386A4C";
name = Regular;
paths = (
{
closed = 1;
nodes = (
"515 758 LINE",
"515 710 LINE",
"604 701 LINE",
"604 335 LINE SMOOTH",
"604 150 OFFCURVE",
"546 37 OFFCURVE",
"410 37 CURVE SMOOTH",
"283 37 OFFCURVE",
"189 100 OFFCURVE",
"189 320 CURVE SMOOTH",
"189 701 LINE",
"276 710 LINE",
"276 758 LINE",
"16 758 LINE",
"16 710 LINE",
"94 702 LINE",
"94 575 OFFCURVE",
"93 450 OFFCURVE",
"93 323 CURVE SMOOTH",
"93 103 OFFCURVE",
"172 -14 OFFCURVE",
"394 -14 CURVE SMOOTH",
"561 -14 OFFCURVE",
"677 91 OFFCURVE",
"677 335 CURVE SMOOTH",
"677 701 LINE",
"754 710 LINE",
"754 758 LINE"
);
}
);
width = 770;
}
);
unicode = 0055;
},
{
glyphname = Uacute;
lastChange = "2014-09-14 16:27:12 +0100";
layers = (
{
layerId = "E777F328-EA17-4AE7-9EBA-8002E537BA4F";
name = Light;
paths = (
{
closed = 1;
nodes = (
"522 758 LINE",
"522 721 LINE",
"606 713 LINE",
"606 324 LINE SMOOTH",
"606 134 OFFCURVE",
"541 25 OFFCURVE",
"396 25 CURVE SMOOTH",
"261 25 OFFCURVE",
"164 89 OFFCURVE",
"164 313 CURVE SMOOTH",
"164 713 LINE",
"249 721 LINE",
"249 758 LINE",
"16 758 LINE",
"16 721 LINE",
"91 714 LINE",
"91 581 OFFCURVE",
"91 449 OFFCURVE",
"91 316 CURVE SMOOTH",
"91 94 OFFCURVE",
"175 -14 OFFCURVE",
"382 -14 CURVE SMOOTH",
"548 -14 OFFCURVE",
"663 81 OFFCURVE",
"663 324 CURVE SMOOTH",
"663 713 LINE",
"739 721 LINE",
"739 758 LINE"
);
},
{
closed = 1;
nodes = (
"366 806 LINE",
"386 785 LINE",
"445 809 OFFCURVE",
"516 848 OFFCURVE",
"562 884 CURVE",
"510 938 LINE"
);
}
);
width = 770;
},
{
layerId = "39185045-6A8C-415A-8312-7B8F11386A4C";
name = Regular;
paths = (
{
closed = 1;
nodes = (
"515 758 LINE",
"515 710 LINE",
"604 701 LINE",
"604 335 LINE SMOOTH",
"604 150 OFFCURVE",
"546 37 OFFCURVE",
"410 37 CURVE SMOOTH",
"283 37 OFFCURVE",
"189 100 OFFCURVE",
"189 320 CURVE SMOOTH",
"189 701 LINE",
"276 710 LINE",
"276 758 LINE",
"16 758 LINE",
"16 710 LINE",
"94 702 LINE",
"94 575 OFFCURVE",
"93 450 OFFCURVE",
"93 323 CURVE SMOOTH",
"93 103 OFFCURVE",
"172 -14 OFFCURVE",
"394 -14 CURVE SMOOTH",
"561 -14 OFFCURVE",
"677 91 OFFCURVE",
"677 335 CURVE SMOOTH",
"677 701 LINE",
"754 710 LINE",
"754 758 LINE"
);
},
{
closed = 1;
nodes = (
"371 811 LINE",
"397 785 LINE",
"458 795 OFFCURVE",
"531 826 OFFCURVE",
"592 865 CURVE",
"521 938 LINE"
);
}
);
width = 770;
}
);
unicode = 00DA;
},
{
glyphname = Ucircumflex;
lastChange = "2014-09-14 16:27:25 +0100";
layers = (
{
layerId = "E777F328-EA17-4AE7-9EBA-8002E537BA4F";
name = Light;
paths = (
{
closed = 1;
nodes = (
"522 758 LINE",
"522 721 LINE",
"606 713 LINE",
"606 324 LINE SMOOTH",
"606 134 OFFCURVE",
"541 25 OFFCURVE",
"396 25 CURVE SMOOTH",
"261 25 OFFCURVE",
"164 89 OFFCURVE",
"164 313 CURVE SMOOTH",
"164 713 LINE",
"249 721 LINE",
"249 758 LINE",
"16 758 LINE",
"16 721 LINE",
"91 714 LINE",
"91 581 OFFCURVE",
"91 449 OFFCURVE",
"91 316 CURVE SMOOTH",
"91 94 OFFCURVE",
"175 -14 OFFCURVE",
"382 -14 CURVE SMOOTH",
"548 -14 OFFCURVE",
"663 81 OFFCURVE",
"663 324 CURVE SMOOTH",
"663 713 LINE",
"739 721 LINE",
"739 758 LINE"
);
},
{
closed = 1;
nodes = (
"353 938 LINE",
"222 808 LINE",
"252 790 LINE",
"389 887 LINE",
"522 790 LINE",
"556 809 LINE",
"424 938 LINE"
);
}
);
width = 770;
},
{
layerId = "39185045-6A8C-415A-8312-7B8F11386A4C";
name = Regular;
paths = (
{
closed = 1;
nodes = (
"515 758 LINE",
"515 710 LINE",
"604 701 LINE",
"604 335 LINE SMOOTH",
"604 150 OFFCURVE",
"546 37 OFFCURVE",
"410 37 CURVE SMOOTH",
"283 37 OFFCURVE",
"189 100 OFFCURVE",
"189 320 CURVE SMOOTH",
"189 701 LINE",
"276 710 LINE",
"276 758 LINE",
"16 758 LINE",
"16 710 LINE",
"94 702 LINE",
"94 575 OFFCURVE",
"93 450 OFFCURVE",
"93 323 CURVE SMOOTH",
"93 103 OFFCURVE",
"172 -14 OFFCURVE",
"394 -14 CURVE SMOOTH",
"561 -14 OFFCURVE",
"677 91 OFFCURVE",
"677 335 CURVE SMOOTH",
"677 701 LINE",
"754 710 LINE",
"754 758 LINE"
);
},
{
closed = 1;
nodes = (
"355 938 LINE",
"231 812 LINE",
"270 789 LINE",
"401 871 LINE",
"530 789 LINE",
"573 813 LINE",
"447 938 LINE"
);
}
);
width = 770;
}
);
unicode = 00DB;
},
{
glyphname = Udieresis;
lastChange = "2014-09-14 16:21:40 +0100";
layers = (
{
layerId = "E777F328-EA17-4AE7-9EBA-8002E537BA4F";
name = Light;
paths = (
{
closed = 1;
nodes = (
"522 758 LINE",
"522 721 LINE",
"606 713 LINE",
"606 324 LINE SMOOTH",
"606 134 OFFCURVE",
"541 25 OFFCURVE",
"396 25 CURVE SMOOTH",
"261 25 OFFCURVE",
"164 89 OFFCURVE",
"164 313 CURVE SMOOTH",
"164 713 LINE",
"249 721 LINE",
"249 758 LINE",
"16 758 LINE",
"16 721 LINE",
"91 714 LINE",
"91 581 OFFCURVE",
"91 449 OFFCURVE",
"91 316 CURVE SMOOTH",
"91 94 OFFCURVE",
"175 -14 OFFCURVE",
"382 -14 CURVE SMOOTH",
"548 -14 OFFCURVE",
"663 81 OFFCURVE",
"663 324 CURVE SMOOTH",
"663 713 LINE",
"739 721 LINE",
"739 758 LINE"
);
},
{
closed = 1;
nodes = (
"253 926 OFFCURVE",
"223 903 OFFCURVE",
"223 872 CURVE SMOOTH",
"223 843 OFFCURVE",
"247 825 OFFCURVE",
"271 825 CURVE SMOOTH",
"301 825 OFFCURVE",
"329 847 OFFCURVE",
"329 880 CURVE SMOOTH",
"329 905 OFFCURVE",
"314 926 OFFCURVE",
"281 926 CURVE SMOOTH"
);
},
{
closed = 1;
nodes = (
"476 926 OFFCURVE",
"446 902 OFFCURVE",
"446 871 CURVE SMOOTH",
"446 842 OFFCURVE",
"470 825 OFFCURVE",
"495 825 CURVE SMOOTH",
"524 825 OFFCURVE",
"552 847 OFFCURVE",
"552 879 CURVE SMOOTH",
"552 905 OFFCURVE",
"537 926 OFFCURVE",
"504 926 CURVE SMOOTH"
);
}
);
width = 770;
},
{
layerId = "39185045-6A8C-415A-8312-7B8F11386A4C";
name = Regular;
paths = (
{
closed = 1;
nodes = (
"515 758 LINE",
"515 710 LINE",
"604 701 LINE",
"604 335 LINE SMOOTH",
"604 150 OFFCURVE",
"546 37 OFFCURVE",
"410 37 CURVE SMOOTH",
"283 37 OFFCURVE",
"189 100 OFFCURVE",
"189 320 CURVE SMOOTH",
"189 701 LINE",
"276 710 LINE",
"276 758 LINE",
"16 758 LINE",
"16 710 LINE",
"94 702 LINE",
"94 575 OFFCURVE",
"93 450 OFFCURVE",
"93 323 CURVE SMOOTH",
"93 103 OFFCURVE",
"172 -14 OFFCURVE",
"394 -14 CURVE SMOOTH",
"561 -14 OFFCURVE",
"677 91 OFFCURVE",
"677 335 CURVE SMOOTH",
"677 701 LINE",
"754 710 LINE",
"754 758 LINE"
);
},
{
closed = 1;
nodes = (
"257 938 OFFCURVE",
"219 907 OFFCURVE",
"219 866 CURVE SMOOTH",
"219 829 OFFCURVE",
"249 806 OFFCURVE",
"281 806 CURVE SMOOTH",
"317 806 OFFCURVE",
"354 834 OFFCURVE",
"354 877 CURVE SMOOTH",
"354 910 OFFCURVE",
"335 938 OFFCURVE",
"292 938 CURVE SMOOTH"
);
},
{
closed = 1;
nodes = (
"485 938 OFFCURVE",
"447 907 OFFCURVE",
"447 866 CURVE SMOOTH",
"447 829 OFFCURVE",
"477 806 OFFCURVE",
"508 806 CURVE SMOOTH",
"545 806 OFFCURVE",
"582 834 OFFCURVE",
"582 877 CURVE SMOOTH",
"582 910 OFFCURVE",
"563 938 OFFCURVE",
"520 938 CURVE SMOOTH"
);
}
);
width = 770;
}
);
unicode = 00DC;
},
{
glyphname = Ugrave;
lastChange = "2014-09-14 16:27:29 +0100";
layers = (
{
layerId = "E777F328-EA17-4AE7-9EBA-8002E537BA4F";
name = Light;
paths = (
{
closed = 1;
nodes = (
"522 758 LINE",
"522 721 LINE",
"606 713 LINE",
"606 324 LINE SMOOTH",
"606 134 OFFCURVE",
"541 25 OFFCURVE",
"396 25 CURVE SMOOTH",
"261 25 OFFCURVE",
"164 89 OFFCURVE",
"164 313 CURVE SMOOTH",
"164 713 LINE",
"249 721 LINE",
"249 758 LINE",
"16 758 LINE",
"16 721 LINE",
"91 714 LINE",
"91 581 OFFCURVE",
"91 449 OFFCURVE",
"91 316 CURVE SMOOTH",
"91 94 OFFCURVE",
"175 -14 OFFCURVE",
"382 -14 CURVE SMOOTH",
"548 -14 OFFCURVE",
"663 81 OFFCURVE",
"663 324 CURVE SMOOTH",
"663 713 LINE",
"739 721 LINE",
"739 758 LINE"
);
},
{
closed = 1;
nodes = (
"214 884 LINE",
"260 848 OFFCURVE",
"331 809 OFFCURVE",
"390 785 CURVE",
"411 806 LINE",
"266 938 LINE"
);
}
);
width = 770;
},
{
layerId = "39185045-6A8C-415A-8312-7B8F11386A4C";
name = Regular;
paths = (
{
closed = 1;
nodes = (
"515 758 LINE",
"515 710 LINE",
"604 701 LINE",
"604 335 LINE SMOOTH",
"604 150 OFFCURVE",
"546 37 OFFCURVE",
"410 37 CURVE SMOOTH",
"283 37 OFFCURVE",
"189 100 OFFCURVE",
"189 320 CURVE SMOOTH",
"189 701 LINE",
"276 710 LINE",
"276 758 LINE",
"16 758 LINE",
"16 710 LINE",
"94 702 LINE",
"94 575 OFFCURVE",
"93 450 OFFCURVE",
"93 323 CURVE SMOOTH",
"93 103 OFFCURVE",
"172 -14 OFFCURVE",
"394 -14 CURVE SMOOTH",
"561 -14 OFFCURVE",
"677 91 OFFCURVE",
"677 335 CURVE SMOOTH",
"677 701 LINE",
"754 710 LINE",
"754 758 LINE"
);
},
{
closed = 1;
nodes = (
"212 865 LINE",
"273 826 OFFCURVE",
"346 795 OFFCURVE",
"407 785 CURVE",
"433 811 LINE",
"283 938 LINE"
);
}
);
width = 770;
}
);
unicode = 00D9;
},
{
glyphname = V;
lastChange = "2014-09-14 11:46:27 +0100";
layers = (
{
layerId = "E777F328-EA17-4AE7-9EBA-8002E537BA4F";
name = Light;
paths = (
{
closed = 1;
nodes = (
"334 -10 LINE",
"388 -10 LINE",
"627 714 LINE",
"697 721 LINE",
"697 758 LINE",
"483 758 LINE",
"483 721 LINE",
"564 714 LINE",
"397 166 LINE",
"372 73 LINE",
"343 165 LINE",
"153 714 LINE",
"250 721 LINE",
"250 758 LINE",
"2 758 LINE",
"2 721 LINE",
"70 714 LINE"
);
}
);
width = 696;
},
{
layerId = "39185045-6A8C-415A-8312-7B8F11386A4C";
name = Regular;
paths = (
{
closed = 1;
nodes = (
"324 -10 LINE",
"397 -10 LINE",
"634 703 LINE",
"693 710 LINE",
"693 758 LINE",
"471 758 LINE",
"471 710 LINE",
"551 702 LINE",
"405 203 LINE",
"376 95 LINE",
"342 202 LINE",
"177 702 LINE",
"265 710 LINE",
"265 758 LINE",
"2 758 LINE",
"2 710 LINE",
"67 703 LINE"
);
}
);
width = 696;
}
);
unicode = 0056;
},
{
glyphname = W;
lastChange = "2014-09-14 16:17:18 +0100";
layers = (
{
layerId = "E777F328-EA17-4AE7-9EBA-8002E537BA4F";
name = Light;
paths = (
{
closed = 1;
nodes = (
"313 -10 LINE",
"375 -10 LINE",
"521 527 LINE",
"674 -10 LINE",
"732 -10 LINE",
"942 714 LINE",
"1020 721 LINE",
"1020 758 LINE",
"792 758 LINE",
"792 721 LINE",
"881 714 LINE",
"738 173 LINE",
"715 73 LINE",
"692 161 LINE",
"544 714 LINE",
"637 721 LINE",
"637 758 LINE",
"387 758 LINE",
"387 721 LINE",
"468 714 LINE",
"494 625 LINE",
"377 163 LINE",
"350 76 LINE",
"340 106 OFFCURVE",
"331 137 OFFCURVE",
"321 167 CURVE",
"149 714 LINE",
"246 721 LINE",
"246 758 LINE",
"2 758 LINE",
"2 721 LINE",
"69 714 LINE"
);
}
);
width = 1026;
},
{
layerId = "39185045-6A8C-415A-8312-7B8F11386A4C";
name = Regular;
paths = (
{
closed = 1;
nodes = (
"305 -10 LINE",
"385 -10 LINE",
"524 486 LINE",
"664 -10 LINE",
"743 -10 LINE",
"951 702 LINE",
"1023 710 LINE",
"1023 758 LINE",
"787 758 LINE",
"787 710 LINE",
"872 702 LINE",
"744 208 LINE",
"719 96 LINE",
"695 189 LINE",
"563 702 LINE",
"647 710 LINE",
"647 758 LINE",
"381 758 LINE",
"381 710 LINE",
"460 702 LINE",
"488 614 LINE",
"384 193 LINE",
"354 104 LINE",
"344 136 OFFCURVE",
"334 167 OFFCURVE",
"324 199 CURVE SMOOTH",
"171 702 LINE",
"264 710 LINE",
"264 758 LINE",
"2 758 LINE",
"2 710 LINE",
"66 702 LINE"
);
}
);
width = 1026;
}
);
unicode = 0057;
},
{
glyphname = X;
lastChange = "2014-09-14 11:46:27 +0100";
layers = (
{
layerId = "E777F328-EA17-4AE7-9EBA-8002E537BA4F";
name = Light;
paths = (
{
closed = 1;
nodes = (
"7 0 LINE",
"261 0 LINE",
"261 33 LINE",
"163 44 LINE",
"335 348 LINE",
"518 44 LINE",
"419 33 LINE",
"419 0 LINE",
"688 0 LINE",
"688 33 LINE",
"600 44 LINE",
"386 396 LINE",
"597 714 LINE",
"670 721 LINE",
"670 758 LINE",
"446 758 LINE",
"446 721 LINE",
"530 714 LINE",
"359 427 LINE",
"191 714 LINE",
"285 721 LINE",
"285 758 LINE",
"27 758 LINE",
"27 721 LINE",
"104 714 LINE",
"311 386 LINE",
"94 44 LINE",
"7 33 LINE"
);
}
);
width = 693;
},
{
layerId = "39185045-6A8C-415A-8312-7B8F11386A4C";
name = Regular;
paths = (
{
closed = 1;
nodes = (
"7 0 LINE",
"275 0 LINE",
"275 42 LINE",
"182 56 LINE",
"335 333 LINE",
"506 56 LINE",
"415 42 LINE",
"415 0 LINE",
"696 0 LINE",
"696 42 LINE",
"615 56 LINE",
"400 400 LINE",
"604 703 LINE",
"674 710 LINE",
"674 758 LINE",
"441 758 LINE",
"441 710 LINE",
"516 702 LINE",
"365 439 LINE",
"212 702 LINE",
"299 710 LINE",
"299 758 LINE",
"25 758 LINE",
"25 710 LINE",
"98 702 LINE",
"303 381 LINE",
"94 56 LINE",
"7 42 LINE"
);
}
);
width = 693;
}
);
unicode = 0058;
},
{
glyphname = Y;
lastChange = "2014-09-14 11:46:27 +0100";
layers = (
{
layerId = "E777F328-EA17-4AE7-9EBA-8002E537BA4F";
name = Light;
paths = (
{
closed = 1;
nodes = (
"206 0 LINE",
"480 0 LINE",
"480 33 LINE",
"377 45 LINE",
"377 311 LINE",
"587 710 LINE",
"653 721 LINE",
"653 758 LINE",
"442 758 LINE",
"442 721 LINE",
"526 713 LINE",
"370 405 LINE",
"346 353 LINE",
"320 405 LINE",
"148 714 LINE",
"230 721 LINE",
"230 758 LINE",
"6 758 LINE",
"6 721 LINE",
"65 714 LINE",
"305 313 LINE",
"305 45 LINE",
"206 33 LINE"
);
}
);
width = 660;
},
{
layerId = "39185045-6A8C-415A-8312-7B8F11386A4C";
name = Regular;
paths = (
{
closed = 1;
nodes = (
"196 0 LINE",
"496 0 LINE",
"496 42 LINE",
"391 57 LINE",
"391 311 LINE",
"590 697 LINE",
"654 710 LINE",
"654 758 LINE",
"429 758 LINE",
"429 710 LINE",
"512 701 LINE",
"372 414 LINE",
"350 363 LINE",
"326 413 LINE",
"171 702 LINE",
"246 710 LINE",
"246 758 LINE",
"6 758 LINE",
"6 710 LINE",
"62 702 LINE",
"296 312 LINE",
"296 57 LINE",
"196 42 LINE"
);
}
);
width = 660;
}
);
unicode = 0059;
},
{
glyphname = Yacute;
lastChange = "2014-09-14 11:46:27 +0100";
layers = (
{
layerId = "E777F328-EA17-4AE7-9EBA-8002E537BA4F";
name = Light;
paths = (
{
closed = 1;
nodes = (
"341 785 LINE",
"400 809 OFFCURVE",
"470 848 OFFCURVE",
"517 884 CURVE",
"465 938 LINE",
"320 806 LINE"
);
},
{
closed = 1;
nodes = (
"206 0 LINE",
"480 0 LINE",
"480 33 LINE",
"377 45 LINE",
"377 311 LINE",
"587 710 LINE",
"653 721 LINE",
"653 758 LINE",
"442 758 LINE",
"442 721 LINE",
"526 713 LINE",
"370 405 LINE",
"346 353 LINE",
"320 405 LINE",
"148 714 LINE",
"230 721 LINE",
"230 758 LINE",
"6 758 LINE",
"6 721 LINE",
"65 714 LINE",
"305 313 LINE",
"305 45 LINE",
"206 33 LINE"
);
}
);
width = 660;
},
{
layerId = "39185045-6A8C-415A-8312-7B8F11386A4C";
name = Regular;
paths = (
{
closed = 1;
nodes = (
"342 785 LINE",
"403 795 OFFCURVE",
"476 826 OFFCURVE",
"537 865 CURVE",
"466 938 LINE",
"316 811 LINE"
);
},
{
closed = 1;
nodes = (
"196 0 LINE",
"496 0 LINE",
"496 42 LINE",
"391 57 LINE",
"391 311 LINE",
"590 697 LINE",
"654 710 LINE",
"654 758 LINE",
"429 758 LINE",
"429 710 LINE",
"512 701 LINE",
"372 414 LINE",
"350 363 LINE",
"326 413 LINE",
"171 702 LINE",
"246 710 LINE",
"246 758 LINE",
"6 758 LINE",
"6 710 LINE",
"62 702 LINE",
"296 312 LINE",
"296 57 LINE",
"196 42 LINE"
);
}
);
width = 660;
}
);
unicode = 00DD;
},
{
glyphname = Ydieresis;
lastChange = "2014-09-14 16:26:49 +0100";
layers = (
{
layerId = "E777F328-EA17-4AE7-9EBA-8002E537BA4F";
name = Light;
paths = (
{
closed = 1;
nodes = (
"442 758 LINE",
"442 721 LINE",
"526 713 LINE",
"370 405 LINE",
"346 353 LINE",
"320 405 LINE",
"148 714 LINE",
"230 721 LINE",
"230 758 LINE",
"6 758 LINE",
"6 721 LINE",
"65 714 LINE",
"305 313 LINE",
"305 45 LINE",
"206 33 LINE",
"206 0 LINE",
"480 0 LINE",
"480 33 LINE",
"377 45 LINE",
"377 311 LINE",
"587 710 LINE",
"653 721 LINE",
"653 758 LINE"
);
},
{
closed = 1;
nodes = (
"208 926 OFFCURVE",
"178 903 OFFCURVE",
"178 872 CURVE SMOOTH",
"178 843 OFFCURVE",
"202 825 OFFCURVE",
"227 825 CURVE SMOOTH",
"255 825 OFFCURVE",
"284 847 OFFCURVE",
"284 880 CURVE SMOOTH",
"284 905 OFFCURVE",
"269 926 OFFCURVE",
"235 926 CURVE SMOOTH"
);
},
{
closed = 1;
nodes = (
"431 926 OFFCURVE",
"401 902 OFFCURVE",
"401 871 CURVE SMOOTH",
"401 842 OFFCURVE",
"425 825 OFFCURVE",
"450 825 CURVE SMOOTH",
"479 825 OFFCURVE",
"507 847 OFFCURVE",
"507 879 CURVE SMOOTH",
"507 905 OFFCURVE",
"492 926 OFFCURVE",
"458 926 CURVE SMOOTH"
);
}
);
width = 660;
},
{
layerId = "39185045-6A8C-415A-8312-7B8F11386A4C";
name = Regular;
paths = (
{
closed = 1;
nodes = (
"429 758 LINE",
"429 710 LINE",
"512 701 LINE",
"372 414 LINE",
"350 363 LINE",
"326 413 LINE",
"171 702 LINE",
"246 710 LINE",
"246 758 LINE",
"6 758 LINE",
"6 710 LINE",
"62 702 LINE",
"296 312 LINE",
"296 57 LINE",
"196 42 LINE",
"196 0 LINE",
"496 0 LINE",
"496 42 LINE",
"391 57 LINE",
"391 311 LINE",
"590 697 LINE",
"654 710 LINE",
"654 758 LINE"
);
},
{
closed = 1;
nodes = (
"203 938 OFFCURVE",
"165 907 OFFCURVE",
"165 866 CURVE SMOOTH",
"165 829 OFFCURVE",
"194 806 OFFCURVE",
"226 806 CURVE SMOOTH",
"263 806 OFFCURVE",
"299 834 OFFCURVE",
"299 877 CURVE SMOOTH",
"299 910 OFFCURVE",
"280 938 OFFCURVE",
"237 938 CURVE SMOOTH"
);
},
{
closed = 1;
nodes = (
"430 938 OFFCURVE",
"392 907 OFFCURVE",
"392 866 CURVE SMOOTH",
"392 829 OFFCURVE",
"422 806 OFFCURVE",
"454 806 CURVE SMOOTH",
"490 806 OFFCURVE",
"527 834 OFFCURVE",
"527 877 CURVE SMOOTH",
"527 910 OFFCURVE",
"508 938 OFFCURVE",
"465 938 CURVE SMOOTH"
);
}
);
width = 660;
}
);
unicode = 0178;
},
{
glyphname = Z;
lastChange = "2014-09-15 05:29:02 +0100";
layers = (
{
layerId = "E777F328-EA17-4AE7-9EBA-8002E537BA4F";
name = Light;
paths = (
{
closed = 1;
nodes = (
"93 759 LINE",
"79 606 LINE",
"119 600 LINE",
"157 709 LINE",
"540 718 LINE",
"482 647 LINE",
"48 34 LINE",
"60 0 LINE",
"595 0 LINE",
"630 170 LINE",
"591 179 LINE",
"535 56 LINE",
"131 42 LINE",
"193 121 LINE",
"620 726 LINE",
"608 759 LINE"
);
}
);
width = 660;
},
{
layerId = "39185045-6A8C-415A-8312-7B8F11386A4C";
name = Regular;
paths = (
{
closed = 1;
nodes = (
"88 758 LINE",
"73 592 LINE",
"125 583 LINE",
"171 694 LINE",
"519 705 LINE",
"469 646 LINE",
"45 43 LINE",
"58 0 LINE",
"600 0 LINE",
"635 186 LINE",
"586 197 LINE",
"523 73 LINE",
"157 54 LINE",
"205 113 LINE",
"626 716 LINE",
"612 758 LINE"
);
}
);
width = 660;
}
);
unicode = 005A;
},
{
glyphname = Zacute;
lastChange = "2014-09-15 05:29:17 +0100";
layers = (
{
layerId = "E777F328-EA17-4AE7-9EBA-8002E537BA4F";
name = Light;
paths = (
{
closed = 1;
nodes = (
"93 759 LINE",
"79 606 LINE",
"119 600 LINE",
"157 709 LINE",
"540 718 LINE",
"482 647 LINE",
"48 34 LINE",
"60 0 LINE",
"595 0 LINE",
"630 170 LINE",
"591 179 LINE",
"535 56 LINE",
"131 42 LINE",
"193 121 LINE",
"620 726 LINE",
"608 759 LINE"
);
},
{
closed = 1;
nodes = (
"334 806 LINE",
"355 785 LINE",
"414 809 OFFCURVE",
"484 848 OFFCURVE",
"531 884 CURVE",
"479 938 LINE"
);
}
);
width = 660;
},
{
layerId = "39185045-6A8C-415A-8312-7B8F11386A4C";
name = Regular;
paths = (
{
closed = 1;
nodes = (
"88 758 LINE",
"73 592 LINE",
"125 583 LINE",
"171 694 LINE",
"519 705 LINE",
"469 646 LINE",
"45 43 LINE",
"58 0 LINE",
"600 0 LINE",
"635 186 LINE",
"586 197 LINE",
"523 73 LINE",
"157 54 LINE",
"205 113 LINE",
"626 716 LINE",
"612 758 LINE"
);
},
{
closed = 1;
nodes = (
"330 811 LINE",
"355 785 LINE",
"416 795 OFFCURVE",
"489 826 OFFCURVE",
"550 865 CURVE",
"479 938 LINE"
);
}
);
width = 660;
}
);
unicode = 0179;
},
{
glyphname = Zcaron;
lastChange = "2014-09-15 05:29:16 +0100";
layers = (
{
layerId = "E777F328-EA17-4AE7-9EBA-8002E537BA4F";
name = Light;
paths = (
{
closed = 1;
nodes = (
"93 759 LINE",
"79 606 LINE",
"119 600 LINE",
"157 709 LINE",
"540 718 LINE",
"482 647 LINE",
"48 34 LINE",
"60 0 LINE",
"595 0 LINE",
"630 170 LINE",
"591 179 LINE",
"535 56 LINE",
"131 42 LINE",
"193 121 LINE",
"620 726 LINE",
"608 759 LINE"
);
},
{
closed = 1;
nodes = (
"357 848 LINE",
"227 938 LINE",
"195 917 LINE",
"323 796 LINE",
"391 796 LINE",
"518 918 LINE",
"489 938 LINE"
);
}
);
width = 660;
},
{
layerId = "39185045-6A8C-415A-8312-7B8F11386A4C";
name = Regular;
paths = (
{
closed = 1;
nodes = (
"88 758 LINE",
"73 592 LINE",
"125 583 LINE",
"171 694 LINE",
"519 705 LINE",
"469 646 LINE",
"45 43 LINE",
"58 0 LINE",
"600 0 LINE",
"635 186 LINE",
"586 197 LINE",
"523 73 LINE",
"157 54 LINE",
"205 113 LINE",
"626 716 LINE",
"612 758 LINE"
);
},
{
closed = 1;
nodes = (
"361 855 LINE",
"242 938 LINE",
"200 914 LINE",
"315 789 LINE",
"408 789 LINE",
"521 915 LINE",
"483 938 LINE"
);
}
);
width = 660;
}
);
unicode = 017D;
},
{
glyphname = Zdotaccent;
lastChange = "2014-09-15 05:29:14 +0100";
layers = (
{
layerId = "E777F328-EA17-4AE7-9EBA-8002E537BA4F";
name = Light;
paths = (
{
closed = 1;
nodes = (
"93 759 LINE",
"79 606 LINE",
"119 600 LINE",
"157 709 LINE",
"540 718 LINE",
"482 647 LINE",
"48 34 LINE",
"60 0 LINE",
"595 0 LINE",
"630 170 LINE",
"591 179 LINE",
"535 56 LINE",
"131 42 LINE",
"193 121 LINE",
"620 726 LINE",
"608 759 LINE"
);
},
{
closed = 1;
nodes = (
"334 926 OFFCURVE",
"305 903 OFFCURVE",
"305 872 CURVE SMOOTH",
"305 843 OFFCURVE",
"328 825 OFFCURVE",
"353 825 CURVE SMOOTH",
"382 825 OFFCURVE",
"410 847 OFFCURVE",
"410 880 CURVE SMOOTH",
"410 905 OFFCURVE",
"396 926 OFFCURVE",
"362 926 CURVE SMOOTH"
);
}
);
width = 660;
},
{
layerId = "39185045-6A8C-415A-8312-7B8F11386A4C";
name = Regular;
paths = (
{
closed = 1;
nodes = (
"88 758 LINE",
"73 592 LINE",
"125 583 LINE",
"171 694 LINE",
"519 705 LINE",
"469 646 LINE",
"45 43 LINE",
"58 0 LINE",
"600 0 LINE",
"635 186 LINE",
"586 197 LINE",
"523 73 LINE",
"157 54 LINE",
"205 113 LINE",
"626 716 LINE",
"612 758 LINE"
);
},
{
closed = 1;
nodes = (
"329 938 OFFCURVE",
"291 907 OFFCURVE",
"291 866 CURVE SMOOTH",
"291 829 OFFCURVE",
"321 806 OFFCURVE",
"353 806 CURVE SMOOTH",
"389 806 OFFCURVE",
"426 834 OFFCURVE",
"426 877 CURVE SMOOTH",
"426 910 OFFCURVE",
"407 938 OFFCURVE",
"364 938 CURVE SMOOTH"
);
}
);
width = 660;
}
);
unicode = 017B;
},
{
glyphname = a;
lastChange = "2014-09-14 16:17:26 +0100";
layers = (
{
layerId = "E777F328-EA17-4AE7-9EBA-8002E537BA4F";
name = Light;
paths = (
{
closed = 1;
nodes = (
"226 556 OFFCURVE",
"126 537 OFFCURVE",
"78 497 CURVE",
"92 462 LINE",
"128 485 OFFCURVE",
"200 506 OFFCURVE",
"249 506 CURVE SMOOTH",
"338 506 OFFCURVE",
"393 477 OFFCURVE",
"393 368 CURVE SMOOTH",
"393 325 LINE",
"271 325 OFFCURVE",
"68 288 OFFCURVE",
"57 152 CURVE SMOOTH",
"50 47 OFFCURVE",
"134 -11 OFFCURVE",
"221 -11 CURVE SMOOTH",
"308 -11 OFFCURVE",
"361 18 OFFCURVE",
"397 59 CURVE",
"397 39 LINE SMOOTH",
"397 -5 OFFCURVE",
"420 -8 OFFCURVE",
"443 -8 CURVE SMOOTH",
"477 -8 OFFCURVE",
"508 -1 OFFCURVE",
"527 8 CURVE",
"527 35 LINE",
"463 35 LINE",
"464 377 LINE SMOOTH",
"464 521 OFFCURVE",
"377 556 OFFCURVE",
"273 556 CURVE SMOOTH"
);
},
{
closed = 1;
nodes = (
"393 216 OFFCURVE",
"393 135 OFFCURVE",
"393 88 CURVE",
"375 73 OFFCURVE",
"327 37 OFFCURVE",
"257 37 CURVE SMOOTH",
"181 37 OFFCURVE",
"127 71 OFFCURVE",
"128 151 CURVE SMOOTH",
"128 257 OFFCURVE",
"288 285 OFFCURVE",
"393 285 CURVE"
);
}
);
width = 559;
},
{
layerId = "39185045-6A8C-415A-8312-7B8F11386A4C";
name = Regular;
paths = (
{
closed = 1;
nodes = (
"226 556 OFFCURVE",
"127 538 OFFCURVE",
"79 498 CURVE",
"97 454 LINE",
"142 476 OFFCURVE",
"201 491 OFFCURVE",
"239 491 CURVE SMOOTH",
"314 491 OFFCURVE",
"373 470 OFFCURVE",
"373 367 CURVE SMOOTH",
"373 325 LINE",
"282 325 OFFCURVE",
"71 293 OFFCURVE",
"58 157 CURVE SMOOTH",
"47 66 OFFCURVE",
"114 -12 OFFCURVE",
"215 -12 CURVE SMOOTH",
"297 -12 OFFCURVE",
"348 16 OFFCURVE",
"378 53 CURVE",
"378 39 LINE SMOOTH",
"378 -9 OFFCURVE",
"412 -12 OFFCURVE",
"436 -12 CURVE SMOOTH",
"469 -12 OFFCURVE",
"505 -3 OFFCURVE",
"528 9 CURVE",
"528 42 LINE",
"466 42 LINE",
"467 377 LINE SMOOTH",
"467 519 OFFCURVE",
"378 556 OFFCURVE",
"275 556 CURVE SMOOTH"
);
},
{
closed = 1;
nodes = (
"372 213 OFFCURVE",
"372 153 OFFCURVE",
"372 92 CURVE",
"352 72 OFFCURVE",
"306 50 OFFCURVE",
"268 50 CURVE SMOOTH",
"195 50 OFFCURVE",
"152 79 OFFCURVE",
"152 155 CURVE SMOOTH",
"152 250 OFFCURVE",
"290 274 OFFCURVE",
"373 274 CURVE"
);
}
);
width = 559;
}
);
unicode = 0061;
},
{
glyphname = aacute;
lastChange = "2014-09-14 16:21:48 +0100";
layers = (
{
layerId = "E777F328-EA17-4AE7-9EBA-8002E537BA4F";
name = Light;
paths = (
{
closed = 1;
nodes = (
"226 556 OFFCURVE",
"126 537 OFFCURVE",
"78 497 CURVE",
"92 462 LINE",
"128 485 OFFCURVE",
"200 506 OFFCURVE",
"249 506 CURVE SMOOTH",
"338 506 OFFCURVE",
"393 477 OFFCURVE",
"393 368 CURVE SMOOTH",
"393 325 LINE",
"271 325 OFFCURVE",
"68 288 OFFCURVE",
"57 152 CURVE SMOOTH",
"50 47 OFFCURVE",
"134 -11 OFFCURVE",
"221 -11 CURVE SMOOTH",
"308 -11 OFFCURVE",
"361 18 OFFCURVE",
"397 59 CURVE",
"397 39 LINE SMOOTH",
"397 -5 OFFCURVE",
"420 -8 OFFCURVE",
"443 -8 CURVE SMOOTH",
"477 -8 OFFCURVE",
"508 -1 OFFCURVE",
"527 8 CURVE",
"527 35 LINE",
"463 35 LINE",
"464 377 LINE SMOOTH",
"464 521 OFFCURVE",
"377 556 OFFCURVE",
"273 556 CURVE SMOOTH"
);
},
{
closed = 1;
nodes = (
"393 216 OFFCURVE",
"393 135 OFFCURVE",
"393 88 CURVE",
"375 73 OFFCURVE",
"327 37 OFFCURVE",
"257 37 CURVE SMOOTH",
"181 37 OFFCURVE",
"127 71 OFFCURVE",
"128 151 CURVE SMOOTH",
"128 257 OFFCURVE",
"288 285 OFFCURVE",
"393 285 CURVE"
);
},
{
closed = 1;
nodes = (
"222 677 LINE",
"243 656 LINE",
"302 696 OFFCURVE",
"396 764 OFFCURVE",
"427 811 CURVE",
"375 864 LINE"
);
}
);
width = 559;
},
{
layerId = "39185045-6A8C-415A-8312-7B8F11386A4C";
name = Regular;
paths = (
{
closed = 1;
nodes = (
"226 556 OFFCURVE",
"127 538 OFFCURVE",
"79 498 CURVE",
"97 454 LINE",
"142 476 OFFCURVE",
"201 491 OFFCURVE",
"239 491 CURVE SMOOTH",
"314 491 OFFCURVE",
"373 470 OFFCURVE",
"373 367 CURVE SMOOTH",
"373 325 LINE",
"282 325 OFFCURVE",
"71 293 OFFCURVE",
"58 157 CURVE SMOOTH",
"47 66 OFFCURVE",
"114 -12 OFFCURVE",
"215 -12 CURVE SMOOTH",
"297 -12 OFFCURVE",
"348 16 OFFCURVE",
"378 53 CURVE",
"378 39 LINE SMOOTH",
"378 -9 OFFCURVE",
"412 -12 OFFCURVE",
"436 -12 CURVE SMOOTH",
"469 -12 OFFCURVE",
"505 -3 OFFCURVE",
"528 9 CURVE",
"528 42 LINE",
"466 42 LINE",
"467 377 LINE SMOOTH",
"467 519 OFFCURVE",
"378 556 OFFCURVE",
"275 556 CURVE SMOOTH"
);
},
{
closed = 1;
nodes = (
"372 213 OFFCURVE",
"372 153 OFFCURVE",
"372 92 CURVE",
"352 72 OFFCURVE",
"306 50 OFFCURVE",
"268 50 CURVE SMOOTH",
"195 50 OFFCURVE",
"152 79 OFFCURVE",
"152 155 CURVE SMOOTH",
"152 250 OFFCURVE",
"290 274 OFFCURVE",
"373 274 CURVE"
);
},
{
closed = 1;
nodes = (
"216 681 LINE",
"242 654 LINE",
"295 679 OFFCURVE",
"392 736 OFFCURVE",
"431 796 CURVE",
"360 869 LINE"
);
}
);
width = 559;
}
);
unicode = 00E1;
},
{
glyphname = acircumflex;
lastChange = "2014-09-14 16:21:55 +0100";
layers = (
{
layerId = "E777F328-EA17-4AE7-9EBA-8002E537BA4F";
name = Light;
paths = (
{
closed = 1;
nodes = (
"226 556 OFFCURVE",
"126 537 OFFCURVE",
"78 497 CURVE",
"92 462 LINE",
"128 485 OFFCURVE",
"200 506 OFFCURVE",
"249 506 CURVE SMOOTH",
"338 506 OFFCURVE",
"393 477 OFFCURVE",
"393 368 CURVE SMOOTH",
"393 325 LINE",
"271 325 OFFCURVE",
"68 288 OFFCURVE",
"57 152 CURVE SMOOTH",
"50 47 OFFCURVE",
"134 -11 OFFCURVE",
"221 -11 CURVE SMOOTH",
"308 -11 OFFCURVE",
"361 18 OFFCURVE",
"397 59 CURVE",
"397 39 LINE SMOOTH",
"397 -5 OFFCURVE",
"420 -8 OFFCURVE",
"443 -8 CURVE SMOOTH",
"477 -8 OFFCURVE",
"508 -1 OFFCURVE",
"527 8 CURVE",
"527 35 LINE",
"463 35 LINE",
"464 377 LINE SMOOTH",
"464 521 OFFCURVE",
"377 556 OFFCURVE",
"273 556 CURVE SMOOTH"
);
},
{
closed = 1;
nodes = (
"393 216 OFFCURVE",
"393 135 OFFCURVE",
"393 88 CURVE",
"375 73 OFFCURVE",
"327 37 OFFCURVE",
"257 37 CURVE SMOOTH",
"181 37 OFFCURVE",
"127 71 OFFCURVE",
"128 151 CURVE SMOOTH",
"128 257 OFFCURVE",
"288 285 OFFCURVE",
"393 285 CURVE"
);
},
{
closed = 1;
nodes = (
"246 865 LINE",
"108 670 LINE",
"138 653 LINE",
"280 802 LINE",
"416 653 LINE",
"448 671 LINE",
"315 865 LINE"
);
}
);
width = 559;
},
{
layerId = "39185045-6A8C-415A-8312-7B8F11386A4C";
name = Regular;
paths = (
{
closed = 1;
nodes = (
"226 556 OFFCURVE",
"127 538 OFFCURVE",
"79 498 CURVE",
"97 454 LINE",
"142 476 OFFCURVE",
"201 491 OFFCURVE",
"239 491 CURVE SMOOTH",
"314 491 OFFCURVE",
"373 470 OFFCURVE",
"373 367 CURVE SMOOTH",
"373 325 LINE",
"282 325 OFFCURVE",
"71 293 OFFCURVE",
"58 157 CURVE SMOOTH",
"47 66 OFFCURVE",
"114 -12 OFFCURVE",
"215 -12 CURVE SMOOTH",
"297 -12 OFFCURVE",
"348 16 OFFCURVE",
"378 53 CURVE",
"378 39 LINE SMOOTH",
"378 -9 OFFCURVE",
"412 -12 OFFCURVE",
"436 -12 CURVE SMOOTH",
"469 -12 OFFCURVE",
"505 -3 OFFCURVE",
"528 9 CURVE",
"528 42 LINE",
"466 42 LINE",
"467 377 LINE SMOOTH",
"467 519 OFFCURVE",
"378 556 OFFCURVE",
"275 556 CURVE SMOOTH"
);
},
{
closed = 1;
nodes = (
"372 213 OFFCURVE",
"372 153 OFFCURVE",
"372 92 CURVE",
"352 72 OFFCURVE",
"306 50 OFFCURVE",
"268 50 CURVE SMOOTH",
"195 50 OFFCURVE",
"152 79 OFFCURVE",
"152 155 CURVE SMOOTH",
"152 250 OFFCURVE",
"290 274 OFFCURVE",
"373 274 CURVE"
);
},
{
closed = 1;
nodes = (
"241 867 LINE",
"108 674 LINE",
"145 652 LINE",
"287 783 LINE",
"420 652 LINE",
"461 675 LINE",
"333 867 LINE"
);
}
);
width = 559;
}
);
unicode = 00E2;
},
{
glyphname = adieresis;
lastChange = "2014-09-14 16:22:31 +0100";
layers = (
{
layerId = "E777F328-EA17-4AE7-9EBA-8002E537BA4F";
name = Light;
paths = (
{
closed = 1;
nodes = (
"226 556 OFFCURVE",
"126 537 OFFCURVE",
"78 497 CURVE",
"92 462 LINE",
"128 485 OFFCURVE",
"200 506 OFFCURVE",
"249 506 CURVE SMOOTH",
"338 506 OFFCURVE",
"393 477 OFFCURVE",
"393 368 CURVE SMOOTH",
"393 325 LINE",
"271 325 OFFCURVE",
"68 288 OFFCURVE",
"57 152 CURVE SMOOTH",
"50 47 OFFCURVE",
"134 -11 OFFCURVE",
"221 -11 CURVE SMOOTH",
"308 -11 OFFCURVE",
"361 18 OFFCURVE",
"397 59 CURVE",
"397 39 LINE SMOOTH",
"397 -5 OFFCURVE",
"420 -8 OFFCURVE",
"443 -8 CURVE SMOOTH",
"477 -8 OFFCURVE",
"508 -1 OFFCURVE",
"527 8 CURVE",
"527 35 LINE",
"463 35 LINE",
"464 377 LINE SMOOTH",
"464 521 OFFCURVE",
"377 556 OFFCURVE",
"273 556 CURVE SMOOTH"
);
},
{
closed = 1;
nodes = (
"393 216 OFFCURVE",
"393 135 OFFCURVE",
"393 88 CURVE",
"375 73 OFFCURVE",
"327 37 OFFCURVE",
"257 37 CURVE SMOOTH",
"181 37 OFFCURVE",
"127 71 OFFCURVE",
"128 151 CURVE SMOOTH",
"128 257 OFFCURVE",
"288 285 OFFCURVE",
"393 285 CURVE"
);
},
{
closed = 1;
nodes = (
"144 795 OFFCURVE",
"115 771 OFFCURVE",
"115 741 CURVE SMOOTH",
"115 712 OFFCURVE",
"138 696 OFFCURVE",
"163 696 CURVE SMOOTH",
"192 696 OFFCURVE",
"220 716 OFFCURVE",
"220 749 CURVE SMOOTH",
"220 774 OFFCURVE",
"205 795 OFFCURVE",
"172 795 CURVE SMOOTH"
);
},
{
closed = 1;
nodes = (
"366 795 OFFCURVE",
"337 771 OFFCURVE",
"337 741 CURVE SMOOTH",
"337 712 OFFCURVE",
"359 696 OFFCURVE",
"385 696 CURVE SMOOTH",
"414 696 OFFCURVE",
"442 716 OFFCURVE",
"442 749 CURVE SMOOTH",
"442 774 OFFCURVE",
"427 795 OFFCURVE",
"394 795 CURVE SMOOTH"
);
}
);
width = 559;
},
{
layerId = "39185045-6A8C-415A-8312-7B8F11386A4C";
name = Regular;
paths = (
{
closed = 1;
nodes = (
"226 556 OFFCURVE",
"127 538 OFFCURVE",
"79 498 CURVE",
"97 454 LINE",
"142 476 OFFCURVE",
"201 491 OFFCURVE",
"239 491 CURVE SMOOTH",
"314 491 OFFCURVE",
"373 470 OFFCURVE",
"373 367 CURVE SMOOTH",
"373 325 LINE",
"282 325 OFFCURVE",
"71 293 OFFCURVE",
"58 157 CURVE SMOOTH",
"47 66 OFFCURVE",
"114 -12 OFFCURVE",
"215 -12 CURVE SMOOTH",
"297 -12 OFFCURVE",
"348 16 OFFCURVE",
"378 53 CURVE",
"378 39 LINE SMOOTH",
"378 -9 OFFCURVE",
"412 -12 OFFCURVE",
"436 -12 CURVE SMOOTH",
"469 -12 OFFCURVE",
"505 -3 OFFCURVE",
"528 9 CURVE",
"528 42 LINE",
"466 42 LINE",
"467 377 LINE SMOOTH",
"467 519 OFFCURVE",
"378 556 OFFCURVE",
"275 556 CURVE SMOOTH"
);
},
{
closed = 1;
nodes = (
"372 213 OFFCURVE",
"372 153 OFFCURVE",
"372 92 CURVE",
"352 72 OFFCURVE",
"306 50 OFFCURVE",
"268 50 CURVE SMOOTH",
"195 50 OFFCURVE",
"152 79 OFFCURVE",
"152 155 CURVE SMOOTH",
"152 250 OFFCURVE",
"290 274 OFFCURVE",
"373 274 CURVE"
);
},
{
closed = 1;
nodes = (
"144 804 OFFCURVE",
"106 774 OFFCURVE",
"106 733 CURVE SMOOTH",
"106 696 OFFCURVE",
"135 675 OFFCURVE",
"167 675 CURVE SMOOTH",
"204 675 OFFCURVE",
"240 701 OFFCURVE",
"240 744 CURVE SMOOTH",
"240 777 OFFCURVE",
"221 804 OFFCURVE",
"178 804 CURVE SMOOTH"
);
},
{
closed = 1;
nodes = (
"371 804 OFFCURVE",
"334 774 OFFCURVE",
"334 733 CURVE SMOOTH",
"334 696 OFFCURVE",
"363 675 OFFCURVE",
"395 675 CURVE SMOOTH",
"431 675 OFFCURVE",
"468 701 OFFCURVE",
"468 744 CURVE SMOOTH",
"468 777 OFFCURVE",
"449 804 OFFCURVE",
"406 804 CURVE SMOOTH"
);
}
);
width = 559;
}
);
unicode = 00E4;
},
{
glyphname = agrave;
lastChange = "2014-09-14 16:21:52 +0100";
layers = (
{
layerId = "E777F328-EA17-4AE7-9EBA-8002E537BA4F";
name = Light;
paths = (
{
closed = 1;
nodes = (
"226 556 OFFCURVE",
"126 537 OFFCURVE",
"78 497 CURVE",
"92 462 LINE",
"128 485 OFFCURVE",
"200 506 OFFCURVE",
"249 506 CURVE SMOOTH",
"338 506 OFFCURVE",
"393 477 OFFCURVE",
"393 368 CURVE SMOOTH",
"393 325 LINE",
"271 325 OFFCURVE",
"68 288 OFFCURVE",
"57 152 CURVE SMOOTH",
"50 47 OFFCURVE",
"134 -11 OFFCURVE",
"221 -11 CURVE SMOOTH",
"308 -11 OFFCURVE",
"361 18 OFFCURVE",
"397 59 CURVE",
"397 39 LINE SMOOTH",
"397 -5 OFFCURVE",
"420 -8 OFFCURVE",
"443 -8 CURVE SMOOTH",
"477 -8 OFFCURVE",
"508 -1 OFFCURVE",
"527 8 CURVE",
"527 35 LINE",
"463 35 LINE",
"464 377 LINE SMOOTH",
"464 521 OFFCURVE",
"377 556 OFFCURVE",
"273 556 CURVE SMOOTH"
);
},
{
closed = 1;
nodes = (
"393 216 OFFCURVE",
"393 135 OFFCURVE",
"393 88 CURVE",
"375 73 OFFCURVE",
"327 37 OFFCURVE",
"257 37 CURVE SMOOTH",
"181 37 OFFCURVE",
"127 71 OFFCURVE",
"128 151 CURVE SMOOTH",
"128 257 OFFCURVE",
"288 285 OFFCURVE",
"393 285 CURVE"
);
},
{
closed = 1;
nodes = (
"145 811 LINE",
"177 761 OFFCURVE",
"269 697 OFFCURVE",
"328 656 CURVE",
"349 677 LINE",
"196 864 LINE"
);
}
);
width = 559;
},
{
layerId = "39185045-6A8C-415A-8312-7B8F11386A4C";
name = Regular;
paths = (
{
closed = 1;
nodes = (
"226 556 OFFCURVE",
"127 538 OFFCURVE",
"79 498 CURVE",
"97 454 LINE",
"142 476 OFFCURVE",
"201 491 OFFCURVE",
"239 491 CURVE SMOOTH",
"314 491 OFFCURVE",
"373 470 OFFCURVE",
"373 367 CURVE SMOOTH",
"373 325 LINE",
"282 325 OFFCURVE",
"71 293 OFFCURVE",
"58 157 CURVE SMOOTH",
"47 66 OFFCURVE",
"114 -12 OFFCURVE",
"215 -12 CURVE SMOOTH",
"297 -12 OFFCURVE",
"348 16 OFFCURVE",
"378 53 CURVE",
"378 39 LINE SMOOTH",
"378 -9 OFFCURVE",
"412 -12 OFFCURVE",
"436 -12 CURVE SMOOTH",
"469 -12 OFFCURVE",
"505 -3 OFFCURVE",
"528 9 CURVE",
"528 42 LINE",
"466 42 LINE",
"467 377 LINE SMOOTH",
"467 519 OFFCURVE",
"378 556 OFFCURVE",
"275 556 CURVE SMOOTH"
);
},
{
closed = 1;
nodes = (
"372 213 OFFCURVE",
"372 153 OFFCURVE",
"372 92 CURVE",
"352 72 OFFCURVE",
"306 50 OFFCURVE",
"268 50 CURVE SMOOTH",
"195 50 OFFCURVE",
"152 79 OFFCURVE",
"152 155 CURVE SMOOTH",
"152 250 OFFCURVE",
"290 274 OFFCURVE",
"373 274 CURVE"
);
},
{
closed = 1;
nodes = (
"159 796 LINE",
"198 736 OFFCURVE",
"294 679 OFFCURVE",
"348 654 CURVE",
"374 681 LINE",
"230 869 LINE"
);
}
);
width = 559;
}
);
unicode = 00E0;
},
{
glyphname = aogonek;
lastChange = "2014-09-14 16:29:30 +0100";
layers = (
{
background = {
paths = (
{
closed = 1;
nodes = (
"226 556 OFFCURVE",
"126 537 OFFCURVE",
"78 497 CURVE",
"92 462 LINE",
"128 485 OFFCURVE",
"200 506 OFFCURVE",
"249 506 CURVE SMOOTH",
"338 506 OFFCURVE",
"393 477 OFFCURVE",
"393 368 CURVE SMOOTH",
"393 325 LINE",
"271 325 OFFCURVE",
"68 288 OFFCURVE",
"57 152 CURVE SMOOTH",
"50 47 OFFCURVE",
"134 -11 OFFCURVE",
"221 -11 CURVE SMOOTH",
"308 -11 OFFCURVE",
"361 18 OFFCURVE",
"397 59 CURVE",
"397 39 LINE SMOOTH",
"397 0 OFFCURVE",
"415 -6 OFFCURVE",
"435 -8 CURVE",
"385 -27 OFFCURVE",
"303 -83 OFFCURVE",
"303 -155 CURVE SMOOTH",
"303 -275 OFFCURVE",
"464 -269 OFFCURVE",
"529 -217 CURVE",
"529 -183 LINE",
"473 -215 OFFCURVE",
"370 -223 OFFCURVE",
"370 -136 CURVE SMOOTH",
"370 -70 OFFCURVE",
"458 -20 OFFCURVE",
"533 8 CURVE",
"525 6 LINE",
"527 8 LINE",
"527 35 LINE",
"463 35 LINE",
"464 377 LINE SMOOTH",
"464 521 OFFCURVE",
"377 556 OFFCURVE",
"273 556 CURVE SMOOTH"
);
},
{
closed = 1;
nodes = (
"393 216 OFFCURVE",
"393 135 OFFCURVE",
"393 88 CURVE",
"375 73 OFFCURVE",
"327 37 OFFCURVE",
"257 37 CURVE SMOOTH",
"181 37 OFFCURVE",
"127 71 OFFCURVE",
"128 151 CURVE SMOOTH",
"128 257 OFFCURVE",
"288 285 OFFCURVE",
"393 285 CURVE"
);
}
);
};
layerId = "E777F328-EA17-4AE7-9EBA-8002E537BA4F";
name = Light;
paths = (
{
closed = 1;
nodes = (
"226 556 OFFCURVE",
"126 537 OFFCURVE",
"78 497 CURVE",
"92 462 LINE",
"128 485 OFFCURVE",
"200 506 OFFCURVE",
"249 506 CURVE SMOOTH",
"338 506 OFFCURVE",
"393 477 OFFCURVE",
"393 368 CURVE SMOOTH",
"393 325 LINE",
"271 325 OFFCURVE",
"68 288 OFFCURVE",
"57 152 CURVE SMOOTH",
"50 47 OFFCURVE",
"134 -11 OFFCURVE",
"221 -11 CURVE SMOOTH",
"308 -11 OFFCURVE",
"361 18 OFFCURVE",
"397 59 CURVE",
"397 39 LINE SMOOTH",
"397 0 OFFCURVE",
"415 -6 OFFCURVE",
"435 -8 CURVE",
"385 -27 OFFCURVE",
"303 -83 OFFCURVE",
"303 -155 CURVE SMOOTH",
"303 -275 OFFCURVE",
"464 -269 OFFCURVE",
"529 -217 CURVE",
"529 -183 LINE",
"473 -215 OFFCURVE",
"370 -223 OFFCURVE",
"370 -136 CURVE SMOOTH",
"370 -70 OFFCURVE",
"454 -22 OFFCURVE",
"527 6 CURVE",
"527 35 LINE",
"463 35 LINE",
"464 377 LINE SMOOTH",
"464 521 OFFCURVE",
"377 556 OFFCURVE",
"273 556 CURVE SMOOTH"
);
},
{
closed = 1;
nodes = (
"393 216 OFFCURVE",
"393 135 OFFCURVE",
"393 88 CURVE",
"375 73 OFFCURVE",
"327 37 OFFCURVE",
"257 37 CURVE SMOOTH",
"181 37 OFFCURVE",
"127 71 OFFCURVE",
"128 151 CURVE SMOOTH",
"128 257 OFFCURVE",
"288 285 OFFCURVE",
"393 285 CURVE"
);
}
);
width = 559;
},
{
background = {
paths = (
{
closed = 1;
nodes = (
"226 556 OFFCURVE",
"127 538 OFFCURVE",
"79 498 CURVE",
"97 454 LINE",
"142 476 OFFCURVE",
"201 491 OFFCURVE",
"239 491 CURVE SMOOTH",
"314 491 OFFCURVE",
"373 470 OFFCURVE",
"373 367 CURVE SMOOTH",
"373 325 LINE",
"282 325 OFFCURVE",
"71 293 OFFCURVE",
"58 157 CURVE SMOOTH",
"47 66 OFFCURVE",
"114 -12 OFFCURVE",
"215 -12 CURVE SMOOTH",
"297 -12 OFFCURVE",
"348 16 OFFCURVE",
"378 53 CURVE",
"378 39 LINE SMOOTH",
"378 -5 OFFCURVE",
"407 -12 OFFCURVE",
"430 -12 CURVE",
"373 -38 OFFCURVE",
"313 -103 OFFCURVE",
"313 -158 CURVE SMOOTH",
"313 -275 OFFCURVE",
"469 -269 OFFCURVE",
"536 -218 CURVE",
"536 -175 LINE",
"481 -197 OFFCURVE",
"401 -206 OFFCURVE",
"401 -130 CURVE SMOOTH",
"401 -86 OFFCURVE",
"463 -27 OFFCURVE",
"536 9 CURVE",
"523 7 LINE",
"525 7 OFFCURVE",
"526 8 OFFCURVE",
"528 9 CURVE",
"528 42 LINE",
"466 42 LINE",
"467 377 LINE SMOOTH",
"467 519 OFFCURVE",
"378 556 OFFCURVE",
"275 556 CURVE SMOOTH"
);
},
{
closed = 1;
nodes = (
"372 213 OFFCURVE",
"372 153 OFFCURVE",
"372 92 CURVE",
"352 72 OFFCURVE",
"306 50 OFFCURVE",
"268 50 CURVE SMOOTH",
"195 50 OFFCURVE",
"152 79 OFFCURVE",
"152 155 CURVE SMOOTH",
"152 250 OFFCURVE",
"290 274 OFFCURVE",
"373 274 CURVE"
);
}
);
};
layerId = "39185045-6A8C-415A-8312-7B8F11386A4C";
name = Regular;
paths = (
{
closed = 1;
nodes = (
"226 556 OFFCURVE",
"127 538 OFFCURVE",
"79 498 CURVE",
"97 454 LINE",
"142 476 OFFCURVE",
"201 491 OFFCURVE",
"239 491 CURVE SMOOTH",
"314 491 OFFCURVE",
"373 470 OFFCURVE",
"373 367 CURVE SMOOTH",
"373 325 LINE",
"282 325 OFFCURVE",
"71 293 OFFCURVE",
"58 157 CURVE SMOOTH",
"47 66 OFFCURVE",
"114 -12 OFFCURVE",
"215 -12 CURVE SMOOTH",
"297 -12 OFFCURVE",
"348 16 OFFCURVE",
"378 53 CURVE",
"378 39 LINE SMOOTH",
"378 -5 OFFCURVE",
"407 -12 OFFCURVE",
"430 -12 CURVE",
"373 -38 OFFCURVE",
"313 -103 OFFCURVE",
"313 -158 CURVE SMOOTH",
"313 -275 OFFCURVE",
"469 -269 OFFCURVE",
"536 -218 CURVE",
"536 -175 LINE",
"481 -197 OFFCURVE",
"401 -206 OFFCURVE",
"401 -130 CURVE SMOOTH",
"401 -87 OFFCURVE",
"459 -31 OFFCURVE",
"528 5 CURVE",
"528 42 LINE",
"466 42 LINE",
"467 377 LINE SMOOTH",
"467 519 OFFCURVE",
"378 556 OFFCURVE",
"275 556 CURVE SMOOTH"
);
},
{
closed = 1;
nodes = (
"372 213 OFFCURVE",
"372 153 OFFCURVE",
"372 92 CURVE",
"352 72 OFFCURVE",
"306 50 OFFCURVE",
"268 50 CURVE SMOOTH",
"195 50 OFFCURVE",
"152 79 OFFCURVE",
"152 155 CURVE SMOOTH",
"152 250 OFFCURVE",
"290 274 OFFCURVE",
"373 274 CURVE"
);
}
);
width = 559;
}
);
unicode = 0105;
},
{
glyphname = aring;
lastChange = "2014-09-14 16:22:41 +0100";
layers = (
{
layerId = "E777F328-EA17-4AE7-9EBA-8002E537BA4F";
name = Light;
paths = (
{
closed = 1;
nodes = (
"226 556 OFFCURVE",
"126 537 OFFCURVE",
"78 497 CURVE",
"92 462 LINE",
"128 485 OFFCURVE",
"200 506 OFFCURVE",
"249 506 CURVE SMOOTH",
"338 506 OFFCURVE",
"393 477 OFFCURVE",
"393 368 CURVE SMOOTH",
"393 325 LINE",
"271 325 OFFCURVE",
"68 288 OFFCURVE",
"57 152 CURVE SMOOTH",
"50 47 OFFCURVE",
"134 -11 OFFCURVE",
"221 -11 CURVE SMOOTH",
"308 -11 OFFCURVE",
"361 18 OFFCURVE",
"397 59 CURVE",
"397 39 LINE SMOOTH",
"397 -5 OFFCURVE",
"420 -8 OFFCURVE",
"443 -8 CURVE SMOOTH",
"477 -8 OFFCURVE",
"508 -1 OFFCURVE",
"527 8 CURVE",
"527 35 LINE",
"463 35 LINE",
"464 377 LINE SMOOTH",
"464 521 OFFCURVE",
"377 556 OFFCURVE",
"273 556 CURVE SMOOTH"
);
},
{
closed = 1;
nodes = (
"393 216 OFFCURVE",
"393 135 OFFCURVE",
"393 88 CURVE",
"375 73 OFFCURVE",
"327 37 OFFCURVE",
"257 37 CURVE SMOOTH",
"181 37 OFFCURVE",
"127 71 OFFCURVE",
"128 151 CURVE SMOOTH",
"128 257 OFFCURVE",
"288 285 OFFCURVE",
"393 285 CURVE"
);
},
{
closed = 1;
nodes = (
"310 833 OFFCURVE",
"344 801 OFFCURVE",
"344 759 CURVE SMOOTH",
"344 716 OFFCURVE",
"310 685 OFFCURVE",
"269 685 CURVE SMOOTH",
"229 685 OFFCURVE",
"195 716 OFFCURVE",
"195 759 CURVE SMOOTH",
"195 801 OFFCURVE",
"229 833 OFFCURVE",
"269 833 CURVE SMOOTH"
);
},
{
closed = 1;
nodes = (
"204 875 OFFCURVE",
"149 824 OFFCURVE",
"149 760 CURVE SMOOTH",
"149 696 OFFCURVE",
"204 645 OFFCURVE",
"270 645 CURVE SMOOTH",
"335 645 OFFCURVE",
"389 696 OFFCURVE",
"389 760 CURVE SMOOTH",
"389 824 OFFCURVE",
"335 875 OFFCURVE",
"270 875 CURVE SMOOTH"
);
}
);
width = 559;
},
{
layerId = "39185045-6A8C-415A-8312-7B8F11386A4C";
name = Regular;
paths = (
{
closed = 1;
nodes = (
"226 556 OFFCURVE",
"127 538 OFFCURVE",
"79 498 CURVE",
"97 454 LINE",
"142 476 OFFCURVE",
"201 491 OFFCURVE",
"239 491 CURVE SMOOTH",
"314 491 OFFCURVE",
"373 470 OFFCURVE",
"373 367 CURVE SMOOTH",
"373 325 LINE",
"282 325 OFFCURVE",
"71 293 OFFCURVE",
"58 157 CURVE SMOOTH",
"47 66 OFFCURVE",
"114 -12 OFFCURVE",
"215 -12 CURVE SMOOTH",
"297 -12 OFFCURVE",
"348 16 OFFCURVE",
"378 53 CURVE",
"378 39 LINE SMOOTH",
"378 -9 OFFCURVE",
"412 -12 OFFCURVE",
"436 -12 CURVE SMOOTH",
"469 -12 OFFCURVE",
"505 -3 OFFCURVE",
"528 9 CURVE",
"528 42 LINE",
"466 42 LINE",
"467 377 LINE SMOOTH",
"467 519 OFFCURVE",
"378 556 OFFCURVE",
"275 556 CURVE SMOOTH"
);
},
{
closed = 1;
nodes = (
"372 213 OFFCURVE",
"372 153 OFFCURVE",
"372 92 CURVE",
"352 72 OFFCURVE",
"306 50 OFFCURVE",
"268 50 CURVE SMOOTH",
"195 50 OFFCURVE",
"152 79 OFFCURVE",
"152 155 CURVE SMOOTH",
"152 250 OFFCURVE",
"290 274 OFFCURVE",
"373 274 CURVE"
);
},
{
closed = 1;
nodes = (
"307 826 OFFCURVE",
"336 796 OFFCURVE",
"336 761 CURVE SMOOTH",
"336 725 OFFCURVE",
"307 696 OFFCURVE",
"271 696 CURVE SMOOTH",
"236 696 OFFCURVE",
"207 725 OFFCURVE",
"207 761 CURVE SMOOTH",
"207 796 OFFCURVE",
"236 826 OFFCURVE",
"271 826 CURVE SMOOTH"
);
},
{
closed = 1;
nodes = (
"204 880 OFFCURVE",
"148 827 OFFCURVE",
"148 762 CURVE SMOOTH",
"148 697 OFFCURVE",
"204 645 OFFCURVE",
"271 645 CURVE SMOOTH",
"339 645 OFFCURVE",
"395 697 OFFCURVE",
"395 762 CURVE SMOOTH",
"395 827 OFFCURVE",
"339 880 OFFCURVE",
"271 880 CURVE SMOOTH"
);
}
);
width = 559;
}
);
unicode = 00E5;
},
{
glyphname = atilde;
lastChange = "2014-09-14 16:22:37 +0100";
layers = (
{
layerId = "E777F328-EA17-4AE7-9EBA-8002E537BA4F";
name = Light;
paths = (
{
closed = 1;
nodes = (
"226 556 OFFCURVE",
"126 537 OFFCURVE",
"78 497 CURVE",
"92 462 LINE",
"128 485 OFFCURVE",
"200 506 OFFCURVE",
"249 506 CURVE SMOOTH",
"338 506 OFFCURVE",
"393 477 OFFCURVE",
"393 368 CURVE SMOOTH",
"393 325 LINE",
"271 325 OFFCURVE",
"68 288 OFFCURVE",
"57 152 CURVE SMOOTH",
"50 47 OFFCURVE",
"134 -11 OFFCURVE",
"221 -11 CURVE SMOOTH",
"308 -11 OFFCURVE",
"361 18 OFFCURVE",
"397 59 CURVE",
"397 39 LINE SMOOTH",
"397 -5 OFFCURVE",
"420 -8 OFFCURVE",
"443 -8 CURVE SMOOTH",
"477 -8 OFFCURVE",
"508 -1 OFFCURVE",
"527 8 CURVE",
"527 35 LINE",
"463 35 LINE",
"464 377 LINE SMOOTH",
"464 521 OFFCURVE",
"377 556 OFFCURVE",
"273 556 CURVE SMOOTH"
);
},
{
closed = 1;
nodes = (
"393 216 OFFCURVE",
"393 135 OFFCURVE",
"393 88 CURVE",
"375 73 OFFCURVE",
"327 37 OFFCURVE",
"257 37 CURVE SMOOTH",
"181 37 OFFCURVE",
"127 71 OFFCURVE",
"128 151 CURVE SMOOTH",
"128 257 OFFCURVE",
"288 285 OFFCURVE",
"393 285 CURVE"
);
},
{
closed = 1;
nodes = (
"165 812 OFFCURVE",
"111 774 OFFCURVE",
"86 731 CURVE",
"107 703 LINE",
"129 727 OFFCURVE",
"159 755 OFFCURVE",
"201 755 CURVE SMOOTH",
"251 755 OFFCURVE",
"274 681 OFFCURVE",
"337 681 CURVE SMOOTH",
"389 681 OFFCURVE",
"441 719 OFFCURVE",
"465 761 CURVE",
"445 790 LINE",
"423 765 OFFCURVE",
"392 738 OFFCURVE",
"352 738 CURVE SMOOTH",
"302 738 OFFCURVE",
"279 812 OFFCURVE",
"216 812 CURVE SMOOTH"
);
}
);
width = 559;
},
{
layerId = "39185045-6A8C-415A-8312-7B8F11386A4C";
name = Regular;
paths = (
{
closed = 1;
nodes = (
"226 556 OFFCURVE",
"127 538 OFFCURVE",
"79 498 CURVE",
"97 454 LINE",
"142 476 OFFCURVE",
"201 491 OFFCURVE",
"239 491 CURVE SMOOTH",
"314 491 OFFCURVE",
"373 470 OFFCURVE",
"373 367 CURVE SMOOTH",
"373 325 LINE",
"282 325 OFFCURVE",
"71 293 OFFCURVE",
"58 157 CURVE SMOOTH",
"47 66 OFFCURVE",
"114 -12 OFFCURVE",
"215 -12 CURVE SMOOTH",
"297 -12 OFFCURVE",
"348 16 OFFCURVE",
"378 53 CURVE",
"378 39 LINE SMOOTH",
"378 -9 OFFCURVE",
"412 -12 OFFCURVE",
"436 -12 CURVE SMOOTH",
"469 -12 OFFCURVE",
"505 -3 OFFCURVE",
"528 9 CURVE",
"528 42 LINE",
"466 42 LINE",
"467 377 LINE SMOOTH",
"467 519 OFFCURVE",
"378 556 OFFCURVE",
"275 556 CURVE SMOOTH"
);
},
{
closed = 1;
nodes = (
"372 213 OFFCURVE",
"372 153 OFFCURVE",
"372 92 CURVE",
"352 72 OFFCURVE",
"306 50 OFFCURVE",
"268 50 CURVE SMOOTH",
"195 50 OFFCURVE",
"152 79 OFFCURVE",
"152 155 CURVE SMOOTH",
"152 250 OFFCURVE",
"290 274 OFFCURVE",
"373 274 CURVE"
);
},
{
closed = 1;
nodes = (
"176 813 OFFCURVE",
"117 772 OFFCURVE",
"92 728 CURVE",
"118 692 LINE",
"138 712 OFFCURVE",
"170 738 OFFCURVE",
"208 738 CURVE SMOOTH",
"256 738 OFFCURVE",
"271 672 OFFCURVE",
"335 672 CURVE SMOOTH",
"387 672 OFFCURVE",
"445 712 OFFCURVE",
"470 758 CURVE",
"445 793 LINE",
"424 773 OFFCURVE",
"392 747 OFFCURVE",
"354 747 CURVE SMOOTH",
"307 747 OFFCURVE",
"291 813 OFFCURVE",
"228 813 CURVE SMOOTH"
);
}
);
width = 559;
}
);
unicode = 00E3;
},
{
glyphname = ae;
lastChange = "2014-09-14 16:26:49 +0100";
layers = (
{
layerId = "E777F328-EA17-4AE7-9EBA-8002E537BA4F";
name = Light;
paths = (
{
closed = 1;
nodes = (
"559 561 OFFCURVE",
"489 519 OFFCURVE",
"446 447 CURVE",
"424 537 OFFCURVE",
"354 556 OFFCURVE",
"277 556 CURVE SMOOTH",
"219 556 OFFCURVE",
"123 532 OFFCURVE",
"79 497 CURVE",
"91 460 LINE",
"135 486 OFFCURVE",
"205 506 OFFCURVE",
"252 506 CURVE SMOOTH",
"333 506 OFFCURVE",
"391 480 OFFCURVE",
"391 368 CURVE SMOOTH",
"391 323 LINE",
"290 327 OFFCURVE",
"66 292 OFFCURVE",
"57 153 CURVE SMOOTH",
"50 48 OFFCURVE",
"133 -11 OFFCURVE",
"216 -11 CURVE SMOOTH",
"314 -11 OFFCURVE",
"402 35 OFFCURVE",
"431 105 CURVE",
"468 32 OFFCURVE",
"535 -12 OFFCURVE",
"637 -12 CURVE SMOOTH",
"705 -12 OFFCURVE",
"789 9 OFFCURVE",
"824 43 CURVE",
"809 77 LINE",
"783 58 OFFCURVE",
"718 38 OFFCURVE",
"663 38 CURVE SMOOTH",
"547 38 OFFCURVE",
"458 114 OFFCURVE",
"461 280 CURVE",
"829 280 LINE",
"832 301 OFFCURVE",
"835 326 OFFCURVE",
"834 359 CURVE SMOOTH",
"830 491 OFFCURVE",
"761 564 OFFCURVE",
"652 563 CURVE SMOOTH"
);
},
{
closed = 1;
nodes = (
"391 244 OFFCURVE",
"390 174 OFFCURVE",
"390 133 CURVE",
"376 77 OFFCURVE",
"319 37 OFFCURVE",
"252 37 CURVE SMOOTH",
"177 37 OFFCURVE",
"128 75 OFFCURVE",
"128 152 CURVE SMOOTH",
"128 261 OFFCURVE",
"305 287 OFFCURVE",
"391 285 CURVE"
);
},
{
closed = 1;
nodes = (
"656 522 OFFCURVE",
"676 518 OFFCURVE",
"693 508 CURVE SMOOTH",
"748 479 OFFCURVE",
"764 409 OFFCURVE",
"759 324 CURVE",
"462 324 LINE",
"473 453 OFFCURVE",
"542 522 OFFCURVE",
"633 522 CURVE SMOOTH"
);
}
);
width = 884;
},
{
layerId = "39185045-6A8C-415A-8312-7B8F11386A4C";
name = Regular;
paths = (
{
closed = 1;
nodes = (
"561 561 OFFCURVE",
"494 529 OFFCURVE",
"446 477 CURVE",
"413 538 OFFCURVE",
"348 556 OFFCURVE",
"275 556 CURVE SMOOTH",
"226 556 OFFCURVE",
"127 538 OFFCURVE",
"79 498 CURVE",
"97 454 LINE",
"142 476 OFFCURVE",
"201 491 OFFCURVE",
"239 491 CURVE SMOOTH",
"314 491 OFFCURVE",
"373 470 OFFCURVE",
"373 367 CURVE SMOOTH",
"373 325 LINE",
"282 325 OFFCURVE",
"71 293 OFFCURVE",
"58 157 CURVE SMOOTH",
"47 66 OFFCURVE",
"114 -12 OFFCURVE",
"215 -12 CURVE SMOOTH",
"310 -12 OFFCURVE",
"389 26 OFFCURVE",
"426 78 CURVE",
"468 21 OFFCURVE",
"532 -12 OFFCURVE",
"618 -12 CURVE SMOOTH",
"692 -12 OFFCURVE",
"785 9 OFFCURVE",
"823 43 CURVE",
"805 84 LINE",
"777 69 OFFCURVE",
"706 55 OFFCURVE",
"655 55 CURVE SMOOTH",
"572 55 OFFCURVE",
"469 96 OFFCURVE",
"466 266 CURVE",
"828 266 LINE",
"831 290 OFFCURVE",
"835 318 OFFCURVE",
"833 359 CURVE SMOOTH",
"828 488 OFFCURVE",
"758 565 OFFCURVE",
"643 563 CURVE SMOOTH"
);
},
{
closed = 1;
nodes = (
"372 213 OFFCURVE",
"372 153 OFFCURVE",
"372 92 CURVE",
"352 72 OFFCURVE",
"306 50 OFFCURVE",
"268 50 CURVE SMOOTH",
"195 50 OFFCURVE",
"152 79 OFFCURVE",
"152 155 CURVE SMOOTH",
"152 250 OFFCURVE",
"290 274 OFFCURVE",
"373 274 CURVE"
);
},
{
closed = 1;
nodes = (
"645 510 OFFCURVE",
"666 505 OFFCURVE",
"683 494 CURVE SMOOTH",
"732 462 OFFCURVE",
"738 390 OFFCURVE",
"734 324 CURVE",
"467 324 LINE",
"477 458 OFFCURVE",
"544 510 OFFCURVE",
"617 510 CURVE SMOOTH"
);
}
);
width = 879;
}
);
unicode = 00E6;
},
{
glyphname = b;
lastChange = "2014-09-14 11:46:27 +0100";
layers = (
{
layerId = "E777F328-EA17-4AE7-9EBA-8002E537BA4F";
name = Light;
paths = (
{
closed = 1;
nodes = (
"105 24 LINE",
"118 10 OFFCURVE",
"197 -14 OFFCURVE",
"289 -14 CURVE SMOOTH",
"454 -14 OFFCURVE",
"565 124 OFFCURVE",
"565 295 CURVE SMOOTH",
"565 490 OFFCURVE",
"458 563 OFFCURVE",
"348 563 CURVE SMOOTH",
"272 563 OFFCURVE",
"214 529 OFFCURVE",
"175 498 CURVE",
"175 784 LINE",
"158 792 LINE",
"21 778 LINE",
"21 745 LINE",
"105 732 LINE"
);
},
{
closed = 1;
nodes = (
"175 458 LINE",
"207 487 OFFCURVE",
"263 511 OFFCURVE",
"319 511 CURVE SMOOTH",
"411 511 OFFCURVE",
"497 450 OFFCURVE",
"495 278 CURVE SMOOTH",
"494 108 OFFCURVE",
"397 27 OFFCURVE",
"298 27 CURVE SMOOTH",
"242 27 OFFCURVE",
"186 38 OFFCURVE",
"175 65 CURVE"
);
}
);
width = 617;
},
{
layerId = "39185045-6A8C-415A-8312-7B8F11386A4C";
name = Regular;
paths = (
{
closed = 1;
nodes = (
"99 24 LINE",
"112 10 OFFCURVE",
"200 -14 OFFCURVE",
"292 -14 CURVE SMOOTH",
"457 -14 OFFCURVE",
"568 129 OFFCURVE",
"568 295 CURVE SMOOTH",
"568 490 OFFCURVE",
"461 563 OFFCURVE",
"352 563 CURVE SMOOTH",
"276 563 OFFCURVE",
"228 530 OFFCURVE",
"193 500 CURVE",
"193 785 LINE",
"173 793 LINE",
"16 776 LINE",
"16 733 LINE",
"99 716 LINE"
);
},
{
closed = 1;
nodes = (
"193 449 LINE",
"214 469 OFFCURVE",
"256 495 OFFCURVE",
"313 495 CURVE SMOOTH",
"394 495 OFFCURVE",
"478 435 OFFCURVE",
"475 278 CURVE SMOOTH",
"473 111 OFFCURVE",
"388 38 OFFCURVE",
"303 38 CURVE SMOOTH",
"247 38 OFFCURVE",
"203 50 OFFCURVE",
"193 77 CURVE"
);
}
);
width = 617;
}
);
unicode = 0062;
},
{
glyphname = c;
lastChange = "2014-09-14 16:17:31 +0100";
layers = (
{
layerId = "E777F328-EA17-4AE7-9EBA-8002E537BA4F";
name = Light;
paths = (
{
closed = 1;
nodes = (
"167 555 OFFCURVE",
"51 443 OFFCURVE",
"52 263 CURVE SMOOTH",
"54 106 OFFCURVE",
"136 -10 OFFCURVE",
"285 -10 CURVE SMOOTH",
"358 -10 OFFCURVE",
"435 9 OFFCURVE",
"473 43 CURVE",
"459 78 LINE",
"428 55 OFFCURVE",
"357 41 OFFCURVE",
"313 41 CURVE SMOOTH",
"217 41 OFFCURVE",
"119 111 OFFCURVE",
"121 296 CURVE SMOOTH",
"122 439 OFFCURVE",
"210 517 OFFCURVE",
"311 517 CURVE SMOOTH",
"344 517 OFFCURVE",
"379 512 OFFCURVE",
"402 495 CURVE",
"422 432 LINE",
"458 432 LINE",
"458 537 LINE",
"432 554 OFFCURVE",
"371 563 OFFCURVE",
"317 561 CURVE SMOOTH"
);
}
);
width = 513;
},
{
layerId = "39185045-6A8C-415A-8312-7B8F11386A4C";
name = Regular;
paths = (
{
closed = 1;
nodes = (
"167 555 OFFCURVE",
"50 443 OFFCURVE",
"51 263 CURVE SMOOTH",
"53 106 OFFCURVE",
"136 -10 OFFCURVE",
"287 -10 CURVE SMOOTH",
"360 -10 OFFCURVE",
"438 9 OFFCURVE",
"476 43 CURVE",
"459 86 LINE",
"432 70 OFFCURVE",
"370 57 OFFCURVE",
"319 57 CURVE SMOOTH",
"237 57 OFFCURVE",
"140 128 OFFCURVE",
"141 306 CURVE SMOOTH",
"143 440 OFFCURVE",
"220 504 OFFCURVE",
"307 504 CURVE SMOOTH",
"331 504 OFFCURVE",
"366 498 OFFCURVE",
"387 481 CURVE",
"412 419 LINE",
"458 419 LINE",
"458 537 LINE",
"432 554 OFFCURVE",
"373 563 OFFCURVE",
"317 561 CURVE SMOOTH"
);
}
);
width = 510;
}
);
unicode = 0063;
},
{
glyphname = ccedilla;
lastChange = "2014-09-14 16:22:56 +0100";
layers = (
{
layerId = "E777F328-EA17-4AE7-9EBA-8002E537BA4F";
name = Light;
paths = (
{
closed = 1;
nodes = (
"167 555 OFFCURVE",
"51 443 OFFCURVE",
"52 263 CURVE SMOOTH",
"54 116 OFFCURVE",
"126 3 OFFCURVE",
"259 -9 CURVE",
"251 -40 OFFCURVE",
"248 -67 OFFCURVE",
"247 -97 CURVE",
"252 -95 OFFCURVE",
"268 -94 OFFCURVE",
"278 -94 CURVE SMOOTH",
"329 -94 OFFCURVE",
"365 -111 OFFCURVE",
"365 -154 CURVE SMOOTH",
"365 -210 OFFCURVE",
"318 -217 OFFCURVE",
"281 -217 CURVE SMOOTH",
"267 -217 OFFCURVE",
"235 -213 OFFCURVE",
"217 -208 CURVE",
"217 -247 LINE",
"241 -253 OFFCURVE",
"263 -260 OFFCURVE",
"313 -257 CURVE SMOOTH",
"379 -255 OFFCURVE",
"437 -219 OFFCURVE",
"437 -154 CURVE SMOOTH",
"437 -104 OFFCURVE",
"394 -58 OFFCURVE",
"303 -62 CURVE",
"301 -45 OFFCURVE",
"302 -25 OFFCURVE",
"304 -10 CURVE",
"372 -6 OFFCURVE",
"438 12 OFFCURVE",
"473 43 CURVE",
"459 78 LINE",
"428 55 OFFCURVE",
"357 41 OFFCURVE",
"313 41 CURVE SMOOTH",
"217 41 OFFCURVE",
"119 111 OFFCURVE",
"121 296 CURVE SMOOTH",
"122 439 OFFCURVE",
"210 517 OFFCURVE",
"311 517 CURVE SMOOTH",
"344 517 OFFCURVE",
"379 512 OFFCURVE",
"402 495 CURVE",
"422 432 LINE",
"458 432 LINE",
"458 537 LINE",
"432 554 OFFCURVE",
"371 563 OFFCURVE",
"317 561 CURVE SMOOTH"
);
}
);
width = 513;
},
{
layerId = "39185045-6A8C-415A-8312-7B8F11386A4C";
name = Regular;
paths = (
{
closed = 1;
nodes = (
"167 555 OFFCURVE",
"50 443 OFFCURVE",
"51 263 CURVE SMOOTH",
"53 118 OFFCURVE",
"123 7 OFFCURVE",
"253 -8 CURVE",
"244 -44 OFFCURVE",
"238 -74 OFFCURVE",
"238 -104 CURVE",
"240 -104 OFFCURVE",
"254 -102 OFFCURVE",
"262 -102 CURVE SMOOTH",
"314 -102 OFFCURVE",
"338 -122 OFFCURVE",
"338 -151 CURVE SMOOTH",
"338 -200 OFFCURVE",
"306 -205 OFFCURVE",
"270 -205 CURVE SMOOTH",
"258 -205 OFFCURVE",
"230 -202 OFFCURVE",
"215 -198 CURVE",
"214 -247 LINE",
"234 -252 OFFCURVE",
"253 -260 OFFCURVE",
"311 -257 CURVE SMOOTH",
"382 -253 OFFCURVE",
"434 -218 OFFCURVE",
"434 -153 CURVE SMOOTH",
"434 -111 OFFCURVE",
"399 -61 OFFCURVE",
"310 -61 CURVE",
"308 -44 OFFCURVE",
"309 -25 OFFCURVE",
"310 -10 CURVE",
"376 -6 OFFCURVE",
"442 13 OFFCURVE",
"476 43 CURVE",
"459 86 LINE",
"432 70 OFFCURVE",
"370 57 OFFCURVE",
"319 57 CURVE SMOOTH",
"237 57 OFFCURVE",
"140 128 OFFCURVE",
"141 306 CURVE SMOOTH",
"143 440 OFFCURVE",
"220 504 OFFCURVE",
"307 504 CURVE SMOOTH",
"331 504 OFFCURVE",
"366 498 OFFCURVE",
"387 481 CURVE",
"412 419 LINE",
"458 419 LINE",
"458 537 LINE",
"432 554 OFFCURVE",
"373 563 OFFCURVE",
"317 561 CURVE SMOOTH"
);
}
);
width = 510;
}
);
unicode = 00E7;
},
{
glyphname = d;
lastChange = "2014-09-14 16:17:39 +0100";
layers = (
{
layerId = "E777F328-EA17-4AE7-9EBA-8002E537BA4F";
name = Light;
paths = (
{
closed = 1;
nodes = (
"342 776 LINE",
"342 743 LINE",
"442 731 LINE",
"442 542 LINE",
"421 549 OFFCURVE",
"391 563 OFFCURVE",
"332 563 CURVE SMOOTH",
"177 563 OFFCURVE",
"52 438 OFFCURVE",
"52 264 CURVE SMOOTH",
"52 73 OFFCURVE",
"154 -12 OFFCURVE",
"268 -12 CURVE SMOOTH",
"359 -12 OFFCURVE",
"419 23 OFFCURVE",
"445 46 CURVE",
"445 32 LINE SMOOTH",
"445 -8 OFFCURVE",
"466 -11 OFFCURVE",
"490 -11 CURVE SMOOTH",
"517 -11 OFFCURVE",
"558 -4 OFFCURVE",
"579 5 CURVE",
"579 35 LINE",
"513 35 LINE",
"513 782 LINE",
"494 792 LINE"
);
},
{
closed = 1;
nodes = (
"403 521 OFFCURVE",
"429 494 OFFCURVE",
"442 480 CURVE",
"442 89 LINE",
"426 74 OFFCURVE",
"397 54 OFFCURVE",
"351 45 CURVE SMOOTH",
"333 42 OFFCURVE",
"315 40 OFFCURVE",
"295 40 CURVE SMOOTH",
"199 40 OFFCURVE",
"120 119 OFFCURVE",
"123 281 CURVE SMOOTH",
"125 450 OFFCURVE",
"228 521 OFFCURVE",
"324 521 CURVE SMOOTH"
);
}
);
width = 620;
},
{
layerId = "39185045-6A8C-415A-8312-7B8F11386A4C";
name = Regular;
paths = (
{
closed = 1;
nodes = (
"319 773 LINE",
"319 730 LINE",
"423 713 LINE",
"423 550 LINE",
"400 558 OFFCURVE",
"366 563 OFFCURVE",
"331 563 CURVE SMOOTH",
"173 563 OFFCURVE",
"49 438 OFFCURVE",
"49 264 CURVE SMOOTH",
"49 74 OFFCURVE",
"153 -12 OFFCURVE",
"262 -12 CURVE SMOOTH",
"350 -12 OFFCURVE",
"407 25 OFFCURVE",
"427 47 CURVE",
"427 35 LINE SMOOTH",
"427 -14 OFFCURVE",
"457 -16 OFFCURVE",
"480 -16 CURVE SMOOTH",
"514 -16 OFFCURVE",
"561 -7 OFFCURVE",
"583 5 CURVE",
"583 42 LINE",
"517 42 LINE",
"517 782 LINE",
"495 793 LINE"
);
},
{
closed = 1;
nodes = (
"382 511 OFFCURVE",
"409 488 OFFCURVE",
"423 472 CURVE",
"423 98 LINE",
"408 83 OFFCURVE",
"386 69 OFFCURVE",
"354 62 CURVE SMOOTH",
"338 58 OFFCURVE",
"321 55 OFFCURVE",
"300 55 CURVE SMOOTH",
"219 55 OFFCURVE",
"140 128 OFFCURVE",
"142 288 CURVE SMOOTH",
"144 458 OFFCURVE",
"246 511 OFFCURVE",
"319 511 CURVE SMOOTH"
);
}
);
width = 620;
}
);
unicode = 0064;
},
{
glyphname = eth;
lastChange = "2014-09-14 16:10:11 +0100";
layers = (
{
layerId = "E777F328-EA17-4AE7-9EBA-8002E537BA4F";
name = Light;
paths = (
{
closed = 1;
nodes = (
"347 810 LINE",
"296 763 LINE",
"257 787 OFFCURVE",
"215 807 OFFCURVE",
"169 822 CURVE",
"160 781 LINE",
"191 771 OFFCURVE",
"227 754 OFFCURVE",
"262 729 CURVE",
"179 653 LINE",
"217 623 LINE",
"302 700 LINE",
"378 637 OFFCURVE",
"448 544 OFFCURVE",
"472 428 CURVE",
"437 472 OFFCURVE",
"364 504 OFFCURVE",
"300 504 CURVE SMOOTH",
"166 504 OFFCURVE",
"49 417 OFFCURVE",
"49 245 CURVE SMOOTH",
"49 93 OFFCURVE",
"148 -17 OFFCURVE",
"299 -13 CURVE SMOOTH",
"438 -11 OFFCURVE",
"552 99 OFFCURVE",
"552 298 CURVE SMOOTH",
"552 481 OFFCURVE",
"468 636 OFFCURVE",
"337 735 CURVE",
"417 806 LINE",
"377 838 LINE"
);
},
{
closed = 1;
nodes = (
"396 463 OFFCURVE",
"458 392 OFFCURVE",
"473 335 CURVE",
"477 313 OFFCURVE",
"476 279 OFFCURVE",
"476 263 CURVE SMOOTH",
"475 155 OFFCURVE",
"419 27 OFFCURVE",
"305 27 CURVE SMOOTH",
"182 27 OFFCURVE",
"125 134 OFFCURVE",
"125 250 CURVE SMOOTH",
"125 379 OFFCURVE",
"183 463 OFFCURVE",
"300 463 CURVE SMOOTH"
);
}
);
width = 601;
},
{
layerId = "39185045-6A8C-415A-8312-7B8F11386A4C";
name = Regular;
paths = (
{
closed = 1;
nodes = (
"343 815 LINE",
"289 769 LINE",
"252 790 OFFCURVE",
"214 808 OFFCURVE",
"169 823 CURVE",
"157 770 LINE",
"184 761 OFFCURVE",
"213 746 OFFCURVE",
"245 725 CURVE",
"165 652 LINE",
"213 614 LINE",
"296 685 LINE",
"364 625 OFFCURVE",
"426 541 OFFCURVE",
"448 441 CURVE",
"417 477 OFFCURVE",
"349 504 OFFCURVE",
"301 504 CURVE SMOOTH",
"164 504 OFFCURVE",
"49 416 OFFCURVE",
"49 245 CURVE SMOOTH",
"49 93 OFFCURVE",
"149 -17 OFFCURVE",
"300 -13 CURVE SMOOTH",
"438 -11 OFFCURVE",
"552 97 OFFCURVE",
"552 302 CURVE SMOOTH",
"552 457 OFFCURVE",
"489 621 OFFCURVE",
"344 731 CURVE",
"424 800 LINE",
"374 842 LINE"
);
},
{
closed = 1;
nodes = (
"396 451 OFFCURVE",
"438 369 OFFCURVE",
"448 326 CURVE SMOOTH",
"452 308 OFFCURVE",
"451 275 OFFCURVE",
"451 269 CURVE SMOOTH",
"451 154 OFFCURVE",
"397 38 OFFCURVE",
"308 38 CURVE SMOOTH",
"205 38 OFFCURVE",
"151 139 OFFCURVE",
"151 250 CURVE SMOOTH",
"151 373 OFFCURVE",
"195 451 OFFCURVE",
"300 451 CURVE SMOOTH"
);
}
);
width = 601;
}
);
unicode = 00F0;
},
{
glyphname = e;
lastChange = "2014-09-14 16:18:00 +0100";
layers = (
{
layerId = "E777F328-EA17-4AE7-9EBA-8002E537BA4F";
name = Light;
paths = (
{
closed = 1;
nodes = (
"162 560 OFFCURVE",
"50 438 OFFCURVE",
"50 271 CURVE SMOOTH",
"50 100 OFFCURVE",
"136 -12 OFFCURVE",
"293 -12 CURVE SMOOTH",
"368 -12 OFFCURVE",
"455 9 OFFCURVE",
"493 43 CURVE",
"478 77 LINE",
"450 58 OFFCURVE",
"381 39 OFFCURVE",
"319 39 CURVE SMOOTH",
"210 39 OFFCURVE",
"120 112 OFFCURVE",
"122 275 CURVE SMOOTH",
"122 277 OFFCURVE",
"122 278 OFFCURVE",
"122 280 CURVE",
"501 280 LINE",
"505 301 OFFCURVE",
"508 326 OFFCURVE",
"506 359 CURVE SMOOTH",
"504 489 OFFCURVE",
"430 564 OFFCURVE",
"318 563 CURVE SMOOTH"
);
},
{
closed = 1;
nodes = (
"326 522 OFFCURVE",
"348 517 OFFCURVE",
"366 507 CURVE SMOOTH",
"422 477 OFFCURVE",
"437 406 OFFCURVE",
"432 324 CURVE",
"124 324 LINE",
"137 456 OFFCURVE",
"210 522 OFFCURVE",
"300 522 CURVE SMOOTH"
);
}
);
width = 559;
},
{
layerId = "39185045-6A8C-415A-8312-7B8F11386A4C";
name = Regular;
paths = (
{
closed = 1;
nodes = (
"159 559 OFFCURVE",
"49 438 OFFCURVE",
"49 271 CURVE SMOOTH",
"49 100 OFFCURVE",
"137 -12 OFFCURVE",
"294 -12 CURVE SMOOTH",
"369 -12 OFFCURVE",
"456 9 OFFCURVE",
"494 43 CURVE",
"476 84 LINE",
"448 68 OFFCURVE",
"382 55 OFFCURVE",
"332 55 CURVE SMOOTH",
"248 55 OFFCURVE",
"148 97 OFFCURVE",
"143 255 CURVE",
"142 259 OFFCURVE",
"142 262 OFFCURVE",
"142 266 CURVE",
"504 266 LINE",
"507 290 OFFCURVE",
"511 318 OFFCURVE",
"510 359 CURVE SMOOTH",
"504 488 OFFCURVE",
"434 565 OFFCURVE",
"319 563 CURVE SMOOTH"
);
},
{
closed = 1;
nodes = (
"321 510 OFFCURVE",
"342 505 OFFCURVE",
"359 494 CURVE SMOOTH",
"409 462 OFFCURVE",
"414 390 OFFCURVE",
"410 324 CURVE",
"143 324 LINE",
"153 458 OFFCURVE",
"220 510 OFFCURVE",
"293 510 CURVE SMOOTH"
);
}
);
width = 559;
}
);
unicode = 0065;
},
{
glyphname = eacute;
lastChange = "2014-09-14 16:23:09 +0100";
layers = (
{
layerId = "E777F328-EA17-4AE7-9EBA-8002E537BA4F";
name = Light;
paths = (
{
closed = 1;
nodes = (
"162 560 OFFCURVE",
"50 438 OFFCURVE",
"50 271 CURVE SMOOTH",
"50 100 OFFCURVE",
"136 -12 OFFCURVE",
"293 -12 CURVE SMOOTH",
"368 -12 OFFCURVE",
"455 9 OFFCURVE",
"493 43 CURVE",
"478 77 LINE",
"450 58 OFFCURVE",
"381 39 OFFCURVE",
"319 39 CURVE SMOOTH",
"210 39 OFFCURVE",
"120 112 OFFCURVE",
"122 275 CURVE SMOOTH",
"122 277 OFFCURVE",
"122 278 OFFCURVE",
"122 280 CURVE",
"501 280 LINE",
"505 301 OFFCURVE",
"508 326 OFFCURVE",
"506 359 CURVE SMOOTH",
"504 489 OFFCURVE",
"430 564 OFFCURVE",
"318 563 CURVE SMOOTH"
);
},
{
closed = 1;
nodes = (
"326 522 OFFCURVE",
"348 517 OFFCURVE",
"366 507 CURVE SMOOTH",
"422 477 OFFCURVE",
"437 406 OFFCURVE",
"432 324 CURVE",
"124 324 LINE",
"137 456 OFFCURVE",
"210 522 OFFCURVE",
"300 522 CURVE SMOOTH"
);
},
{
closed = 1;
nodes = (
"239 677 LINE",
"260 656 LINE",
"319 696 OFFCURVE",
"413 764 OFFCURVE",
"443 811 CURVE",
"392 864 LINE"
);
}
);
width = 559;
},
{
layerId = "39185045-6A8C-415A-8312-7B8F11386A4C";
name = Regular;
paths = (
{
closed = 1;
nodes = (
"159 559 OFFCURVE",
"49 438 OFFCURVE",
"49 271 CURVE SMOOTH",
"49 100 OFFCURVE",
"137 -12 OFFCURVE",
"294 -12 CURVE SMOOTH",
"369 -12 OFFCURVE",
"456 9 OFFCURVE",
"494 43 CURVE",
"476 84 LINE",
"448 68 OFFCURVE",
"382 55 OFFCURVE",
"332 55 CURVE SMOOTH",
"248 55 OFFCURVE",
"148 97 OFFCURVE",
"143 255 CURVE",
"142 259 OFFCURVE",
"142 262 OFFCURVE",
"142 266 CURVE",
"504 266 LINE",
"507 290 OFFCURVE",
"511 318 OFFCURVE",
"510 359 CURVE SMOOTH",
"504 488 OFFCURVE",
"434 565 OFFCURVE",
"319 563 CURVE SMOOTH"
);
},
{
closed = 1;
nodes = (
"321 510 OFFCURVE",
"342 505 OFFCURVE",
"359 494 CURVE SMOOTH",
"409 462 OFFCURVE",
"414 390 OFFCURVE",
"410 324 CURVE",
"143 324 LINE",
"153 458 OFFCURVE",
"220 510 OFFCURVE",
"293 510 CURVE SMOOTH"
);
},
{
closed = 1;
nodes = (
"228 681 LINE",
"254 654 LINE",
"307 679 OFFCURVE",
"404 736 OFFCURVE",
"443 796 CURVE",
"372 869 LINE"
);
}
);
width = 559;
}
);
unicode = 00E9;
},
{
glyphname = ecircumflex;
lastChange = "2014-09-14 16:23:39 +0100";
layers = (
{
layerId = "E777F328-EA17-4AE7-9EBA-8002E537BA4F";
name = Light;
paths = (
{
closed = 1;
nodes = (
"162 560 OFFCURVE",
"50 438 OFFCURVE",
"50 271 CURVE SMOOTH",
"50 100 OFFCURVE",
"136 -12 OFFCURVE",
"293 -12 CURVE SMOOTH",
"368 -12 OFFCURVE",
"455 9 OFFCURVE",
"493 43 CURVE",
"478 77 LINE",
"450 58 OFFCURVE",
"381 39 OFFCURVE",
"319 39 CURVE SMOOTH",
"210 39 OFFCURVE",
"120 112 OFFCURVE",
"122 275 CURVE SMOOTH",
"122 277 OFFCURVE",
"122 278 OFFCURVE",
"122 280 CURVE",
"501 280 LINE",
"505 301 OFFCURVE",
"508 326 OFFCURVE",
"506 359 CURVE SMOOTH",
"504 489 OFFCURVE",
"430 564 OFFCURVE",
"318 563 CURVE SMOOTH"
);
},
{
closed = 1;
nodes = (
"326 522 OFFCURVE",
"348 517 OFFCURVE",
"366 507 CURVE SMOOTH",
"422 477 OFFCURVE",
"437 406 OFFCURVE",
"432 324 CURVE",
"124 324 LINE",
"137 456 OFFCURVE",
"210 522 OFFCURVE",
"300 522 CURVE SMOOTH"
);
},
{
closed = 1;
nodes = (
"262 865 LINE",
"125 670 LINE",
"155 653 LINE",
"296 802 LINE",
"432 653 LINE",
"465 671 LINE",
"332 865 LINE"
);
}
);
width = 559;
},
{
layerId = "39185045-6A8C-415A-8312-7B8F11386A4C";
name = Regular;
paths = (
{
closed = 1;
nodes = (
"159 559 OFFCURVE",
"49 438 OFFCURVE",
"49 271 CURVE SMOOTH",
"49 100 OFFCURVE",
"137 -12 OFFCURVE",
"294 -12 CURVE SMOOTH",
"369 -12 OFFCURVE",
"456 9 OFFCURVE",
"494 43 CURVE",
"476 84 LINE",
"448 68 OFFCURVE",
"382 55 OFFCURVE",
"332 55 CURVE SMOOTH",
"248 55 OFFCURVE",
"148 97 OFFCURVE",
"143 255 CURVE",
"142 259 OFFCURVE",
"142 262 OFFCURVE",
"142 266 CURVE",
"504 266 LINE",
"507 290 OFFCURVE",
"511 318 OFFCURVE",
"510 359 CURVE SMOOTH",
"504 488 OFFCURVE",
"434 565 OFFCURVE",
"319 563 CURVE SMOOTH"
);
},
{
closed = 1;
nodes = (
"321 510 OFFCURVE",
"342 505 OFFCURVE",
"359 494 CURVE SMOOTH",
"409 462 OFFCURVE",
"414 390 OFFCURVE",
"410 324 CURVE",
"143 324 LINE",
"153 458 OFFCURVE",
"220 510 OFFCURVE",
"293 510 CURVE SMOOTH"
);
},
{
closed = 1;
nodes = (
"253 867 LINE",
"120 674 LINE",
"156 652 LINE",
"299 783 LINE",
"432 652 LINE",
"473 675 LINE",
"345 867 LINE"
);
}
);
width = 559;
}
);
unicode = 00EA;
},
{
glyphname = edieresis;
lastChange = "2014-09-14 16:23:50 +0100";
layers = (
{
layerId = "E777F328-EA17-4AE7-9EBA-8002E537BA4F";
name = Light;
paths = (
{
closed = 1;
nodes = (
"162 560 OFFCURVE",
"50 438 OFFCURVE",
"50 271 CURVE SMOOTH",
"50 100 OFFCURVE",
"136 -12 OFFCURVE",
"293 -12 CURVE SMOOTH",
"368 -12 OFFCURVE",
"455 9 OFFCURVE",
"493 43 CURVE",
"478 77 LINE",
"450 58 OFFCURVE",
"381 39 OFFCURVE",
"319 39 CURVE SMOOTH",
"210 39 OFFCURVE",
"120 112 OFFCURVE",
"122 275 CURVE SMOOTH",
"122 277 OFFCURVE",
"122 278 OFFCURVE",
"122 280 CURVE",
"501 280 LINE",
"505 301 OFFCURVE",
"508 326 OFFCURVE",
"506 359 CURVE SMOOTH",
"504 489 OFFCURVE",
"430 564 OFFCURVE",
"318 563 CURVE SMOOTH"
);
},
{
closed = 1;
nodes = (
"326 522 OFFCURVE",
"348 517 OFFCURVE",
"366 507 CURVE SMOOTH",
"422 477 OFFCURVE",
"437 406 OFFCURVE",
"432 324 CURVE",
"124 324 LINE",
"137 456 OFFCURVE",
"210 522 OFFCURVE",
"300 522 CURVE SMOOTH"
);
},
{
closed = 1;
nodes = (
"160 795 OFFCURVE",
"131 771 OFFCURVE",
"131 741 CURVE SMOOTH",
"131 712 OFFCURVE",
"154 696 OFFCURVE",
"179 696 CURVE SMOOTH",
"208 696 OFFCURVE",
"237 716 OFFCURVE",
"237 749 CURVE SMOOTH",
"237 774 OFFCURVE",
"222 795 OFFCURVE",
"188 795 CURVE SMOOTH"
);
},
{
closed = 1;
nodes = (
"382 795 OFFCURVE",
"354 771 OFFCURVE",
"354 741 CURVE SMOOTH",
"354 712 OFFCURVE",
"376 696 OFFCURVE",
"401 696 CURVE SMOOTH",
"431 696 OFFCURVE",
"459 716 OFFCURVE",
"459 749 CURVE SMOOTH",
"459 774 OFFCURVE",
"444 795 OFFCURVE",
"410 795 CURVE SMOOTH"
);
}
);
width = 559;
},
{
layerId = "39185045-6A8C-415A-8312-7B8F11386A4C";
name = Regular;
paths = (
{
closed = 1;
nodes = (
"159 559 OFFCURVE",
"49 438 OFFCURVE",
"49 271 CURVE SMOOTH",
"49 100 OFFCURVE",
"137 -12 OFFCURVE",
"294 -12 CURVE SMOOTH",
"369 -12 OFFCURVE",
"456 9 OFFCURVE",
"494 43 CURVE",
"476 84 LINE",
"448 68 OFFCURVE",
"382 55 OFFCURVE",
"332 55 CURVE SMOOTH",
"248 55 OFFCURVE",
"148 97 OFFCURVE",
"143 255 CURVE",
"142 259 OFFCURVE",
"142 262 OFFCURVE",
"142 266 CURVE",
"504 266 LINE",
"507 290 OFFCURVE",
"511 318 OFFCURVE",
"510 359 CURVE SMOOTH",
"504 488 OFFCURVE",
"434 565 OFFCURVE",
"319 563 CURVE SMOOTH"
);
},
{
closed = 1;
nodes = (
"321 510 OFFCURVE",
"342 505 OFFCURVE",
"359 494 CURVE SMOOTH",
"409 462 OFFCURVE",
"414 390 OFFCURVE",
"410 324 CURVE",
"143 324 LINE",
"153 458 OFFCURVE",
"220 510 OFFCURVE",
"293 510 CURVE SMOOTH"
);
},
{
closed = 1;
nodes = (
"155 804 OFFCURVE",
"118 774 OFFCURVE",
"118 733 CURVE SMOOTH",
"118 696 OFFCURVE",
"147 675 OFFCURVE",
"179 675 CURVE SMOOTH",
"215 675 OFFCURVE",
"252 701 OFFCURVE",
"252 744 CURVE SMOOTH",
"252 777 OFFCURVE",
"233 804 OFFCURVE",
"190 804 CURVE SMOOTH"
);
},
{
closed = 1;
nodes = (
"383 804 OFFCURVE",
"346 774 OFFCURVE",
"346 733 CURVE SMOOTH",
"346 696 OFFCURVE",
"375 675 OFFCURVE",
"406 675 CURVE SMOOTH",
"443 675 OFFCURVE",
"479 701 OFFCURVE",
"479 744 CURVE SMOOTH",
"479 777 OFFCURVE",
"460 804 OFFCURVE",
"417 804 CURVE SMOOTH"
);
}
);
width = 559;
}
);
unicode = 00EB;
},
{
glyphname = egrave;
lastChange = "2014-09-14 16:23:27 +0100";
layers = (
{
layerId = "E777F328-EA17-4AE7-9EBA-8002E537BA4F";
name = Light;
paths = (
{
closed = 1;
nodes = (
"162 560 OFFCURVE",
"50 438 OFFCURVE",
"50 271 CURVE SMOOTH",
"50 100 OFFCURVE",
"136 -12 OFFCURVE",
"293 -12 CURVE SMOOTH",
"368 -12 OFFCURVE",
"455 9 OFFCURVE",
"493 43 CURVE",
"478 77 LINE",
"450 58 OFFCURVE",
"381 39 OFFCURVE",
"319 39 CURVE SMOOTH",
"210 39 OFFCURVE",
"120 112 OFFCURVE",
"122 275 CURVE SMOOTH",
"122 277 OFFCURVE",
"122 278 OFFCURVE",
"122 280 CURVE",
"501 280 LINE",
"505 301 OFFCURVE",
"508 326 OFFCURVE",
"506 359 CURVE SMOOTH",
"504 489 OFFCURVE",
"430 564 OFFCURVE",
"318 563 CURVE SMOOTH"
);
},
{
closed = 1;
nodes = (
"326 522 OFFCURVE",
"348 517 OFFCURVE",
"366 507 CURVE SMOOTH",
"422 477 OFFCURVE",
"437 406 OFFCURVE",
"432 324 CURVE",
"124 324 LINE",
"137 456 OFFCURVE",
"210 522 OFFCURVE",
"300 522 CURVE SMOOTH"
);
},
{
closed = 1;
nodes = (
"161 811 LINE",
"193 761 OFFCURVE",
"286 696 OFFCURVE",
"345 656 CURVE",
"366 677 LINE",
"213 864 LINE"
);
}
);
width = 559;
},
{
layerId = "39185045-6A8C-415A-8312-7B8F11386A4C";
name = Regular;
paths = (
{
closed = 1;
nodes = (
"159 559 OFFCURVE",
"49 438 OFFCURVE",
"49 271 CURVE SMOOTH",
"49 100 OFFCURVE",
"137 -12 OFFCURVE",
"294 -12 CURVE SMOOTH",
"369 -12 OFFCURVE",
"456 9 OFFCURVE",
"494 43 CURVE",
"476 84 LINE",
"448 68 OFFCURVE",
"382 55 OFFCURVE",
"332 55 CURVE SMOOTH",
"248 55 OFFCURVE",
"148 97 OFFCURVE",
"143 255 CURVE",
"142 259 OFFCURVE",
"142 262 OFFCURVE",
"142 266 CURVE",
"504 266 LINE",
"507 290 OFFCURVE",
"511 318 OFFCURVE",
"510 359 CURVE SMOOTH",
"504 488 OFFCURVE",
"434 565 OFFCURVE",
"319 563 CURVE SMOOTH"
);
},
{
closed = 1;
nodes = (
"321 510 OFFCURVE",
"342 505 OFFCURVE",
"359 494 CURVE SMOOTH",
"409 462 OFFCURVE",
"414 390 OFFCURVE",
"410 324 CURVE",
"143 324 LINE",
"153 458 OFFCURVE",
"220 510 OFFCURVE",
"293 510 CURVE SMOOTH"
);
},
{
closed = 1;
nodes = (
"170 796 LINE",
"209 736 OFFCURVE",
"306 679 OFFCURVE",
"359 654 CURVE",
"385 681 LINE",
"242 869 LINE"
);
}
);
width = 559;
}
);
unicode = 00E8;
},
{
glyphname = eogonek;
lastChange = "2014-09-14 16:31:18 +0100";
layers = (
{
background = {
paths = (
{
closed = 1;
nodes = (
"162 560 OFFCURVE",
"50 438 OFFCURVE",
"50 271 CURVE SMOOTH",
"50 100 OFFCURVE",
"136 -12 OFFCURVE",
"293 -12 CURVE SMOOTH",
"321 -12 OFFCURVE",
"349 -9 OFFCURVE",
"377 -3 CURVE",
"317 -40 OFFCURVE",
"270 -96 OFFCURVE",
"270 -148 CURVE SMOOTH",
"270 -269 OFFCURVE",
"431 -268 OFFCURVE",
"496 -217 CURVE",
"496 -180 LINE",
"440 -215 OFFCURVE",
"336 -214 OFFCURVE",
"336 -131 CURVE SMOOTH",
"336 -71 OFFCURVE",
"413 -20 OFFCURVE",
"495 42 CURVE",
"491 41 LINE",
"492 42 OFFCURVE",
"492 42 OFFCURVE",
"493 43 CURVE",
"478 77 LINE",
"450 58 OFFCURVE",
"381 39 OFFCURVE",
"319 39 CURVE SMOOTH",
"210 39 OFFCURVE",
"120 112 OFFCURVE",
"122 275 CURVE SMOOTH",
"122 277 OFFCURVE",
"122 278 OFFCURVE",
"122 280 CURVE",
"501 280 LINE",
"505 301 OFFCURVE",
"508 326 OFFCURVE",
"506 359 CURVE SMOOTH",
"504 489 OFFCURVE",
"430 564 OFFCURVE",
"318 563 CURVE SMOOTH"
);
},
{
closed = 1;
nodes = (
"326 522 OFFCURVE",
"348 517 OFFCURVE",
"366 507 CURVE SMOOTH",
"422 477 OFFCURVE",
"437 406 OFFCURVE",
"432 324 CURVE",
"124 324 LINE",
"137 456 OFFCURVE",
"210 522 OFFCURVE",
"300 522 CURVE SMOOTH"
);
}
);
};
layerId = "E777F328-EA17-4AE7-9EBA-8002E537BA4F";
name = Light;
paths = (
{
closed = 1;
nodes = (
"162 560 OFFCURVE",
"50 438 OFFCURVE",
"50 271 CURVE SMOOTH",
"50 100 OFFCURVE",
"136 -12 OFFCURVE",
"293 -12 CURVE SMOOTH",
"321 -12 OFFCURVE",
"349 -9 OFFCURVE",
"377 -3 CURVE",
"317 -40 OFFCURVE",
"270 -96 OFFCURVE",
"270 -148 CURVE SMOOTH",
"270 -269 OFFCURVE",
"431 -268 OFFCURVE",
"496 -217 CURVE",
"496 -180 LINE",
"440 -215 OFFCURVE",
"336 -214 OFFCURVE",
"336 -131 CURVE SMOOTH",
"336 -71 OFFCURVE",
"412 -20 OFFCURVE",
"494 41 CURVE",
"478 77 LINE",
"450 58 OFFCURVE",
"381 39 OFFCURVE",
"319 39 CURVE SMOOTH",
"210 39 OFFCURVE",
"120 112 OFFCURVE",
"122 275 CURVE SMOOTH",
"122 277 OFFCURVE",
"122 278 OFFCURVE",
"122 280 CURVE",
"501 280 LINE",
"505 301 OFFCURVE",
"508 326 OFFCURVE",
"506 359 CURVE SMOOTH",
"504 489 OFFCURVE",
"430 564 OFFCURVE",
"318 563 CURVE SMOOTH"
);
},
{
closed = 1;
nodes = (
"326 522 OFFCURVE",
"348 517 OFFCURVE",
"366 507 CURVE SMOOTH",
"422 477 OFFCURVE",
"437 406 OFFCURVE",
"432 324 CURVE",
"124 324 LINE",
"137 456 OFFCURVE",
"210 522 OFFCURVE",
"300 522 CURVE SMOOTH"
);
}
);
width = 559;
},
{
background = {
paths = (
{
closed = 1;
nodes = (
"159 559 OFFCURVE",
"49 438 OFFCURVE",
"49 271 CURVE SMOOTH",
"49 100 OFFCURVE",
"137 -12 OFFCURVE",
"294 -12 CURVE SMOOTH",
"317 -12 OFFCURVE",
"341 -10 OFFCURVE",
"365 -6 CURVE",
"304 -45 OFFCURVE",
"270 -104 OFFCURVE",
"270 -148 CURVE SMOOTH",
"270 -265 OFFCURVE",
"430 -269 OFFCURVE",
"497 -218 CURVE",
"497 -175 LINE",
"442 -197 OFFCURVE",
"358 -196 OFFCURVE",
"358 -120 CURVE SMOOTH",
"358 -83 OFFCURVE",
"388 -38 OFFCURVE",
"484 35 CURVE",
"486 36 OFFCURVE",
"488 38 OFFCURVE",
"489 39 CURVE",
"494 42 LINE",
"493 42 LINE",
"494 43 LINE",
"476 84 LINE",
"448 68 OFFCURVE",
"382 55 OFFCURVE",
"332 55 CURVE SMOOTH",
"248 55 OFFCURVE",
"148 97 OFFCURVE",
"143 255 CURVE",
"142 259 OFFCURVE",
"142 262 OFFCURVE",
"142 266 CURVE",
"504 266 LINE",
"507 290 OFFCURVE",
"511 318 OFFCURVE",
"510 359 CURVE SMOOTH",
"504 488 OFFCURVE",
"434 565 OFFCURVE",
"319 563 CURVE SMOOTH"
);
},
{
closed = 1;
nodes = (
"321 510 OFFCURVE",
"342 505 OFFCURVE",
"359 494 CURVE SMOOTH",
"409 462 OFFCURVE",
"414 390 OFFCURVE",
"410 324 CURVE",
"143 324 LINE",
"153 458 OFFCURVE",
"220 510 OFFCURVE",
"293 510 CURVE SMOOTH"
);
}
);
};
layerId = "39185045-6A8C-415A-8312-7B8F11386A4C";
name = Regular;
paths = (
{
closed = 1;
nodes = (
"159 559 OFFCURVE",
"49 438 OFFCURVE",
"49 271 CURVE SMOOTH",
"49 100 OFFCURVE",
"137 -12 OFFCURVE",
"294 -12 CURVE SMOOTH",
"317 -12 OFFCURVE",
"341 -10 OFFCURVE",
"365 -6 CURVE",
"304 -45 OFFCURVE",
"270 -104 OFFCURVE",
"270 -148 CURVE SMOOTH",
"270 -265 OFFCURVE",
"430 -269 OFFCURVE",
"497 -218 CURVE",
"497 -175 LINE",
"442 -197 OFFCURVE",
"358 -196 OFFCURVE",
"358 -120 CURVE SMOOTH",
"358 -83 OFFCURVE",
"388 -37 OFFCURVE",
"494 43 CURVE",
"476 84 LINE",
"448 68 OFFCURVE",
"382 55 OFFCURVE",
"332 55 CURVE SMOOTH",
"248 55 OFFCURVE",
"148 97 OFFCURVE",
"143 255 CURVE",
"142 259 OFFCURVE",
"142 262 OFFCURVE",
"142 266 CURVE",
"504 266 LINE",
"507 290 OFFCURVE",
"511 318 OFFCURVE",
"510 359 CURVE SMOOTH",
"504 488 OFFCURVE",
"434 565 OFFCURVE",
"319 563 CURVE SMOOTH"
);
},
{
closed = 1;
nodes = (
"321 510 OFFCURVE",
"342 505 OFFCURVE",
"359 494 CURVE SMOOTH",
"409 462 OFFCURVE",
"414 390 OFFCURVE",
"410 324 CURVE",
"143 324 LINE",
"153 458 OFFCURVE",
"220 510 OFFCURVE",
"293 510 CURVE SMOOTH"
);
}
);
width = 559;
}
);
unicode = 0119;
},
{
glyphname = f;
lastChange = "2014-09-14 11:46:27 +0100";
layers = (
{
layerId = "E777F328-EA17-4AE7-9EBA-8002E537BA4F";
name = Light;
paths = (
{
closed = 1;
nodes = (
"58 0 LINE",
"346 0 LINE",
"346 33 LINE",
"229 41 LINE",
"229 486 LINE",
"388 486 LINE",
"388 537 LINE",
"229 537 LINE",
"229 616 LINE SMOOTH",
"229 741 OFFCURVE",
"283 764 OFFCURVE",
"338 764 CURVE SMOOTH",
"381 764 OFFCURVE",
"410 757 OFFCURVE",
"422 750 CURVE",
"422 813 LINE",
"410 818 OFFCURVE",
"391 821 OFFCURVE",
"352 821 CURVE SMOOTH",
"266 821 OFFCURVE",
"158 734 OFFCURVE",
"158 588 CURVE SMOOTH",
"158 537 LINE",
"47 516 LINE",
"47 486 LINE",
"158 486 LINE",
"158 42 LINE",
"58 33 LINE"
);
}
);
width = 409;
},
{
layerId = "39185045-6A8C-415A-8312-7B8F11386A4C";
name = Regular;
paths = (
{
closed = 1;
nodes = (
"54 0 LINE",
"358 0 LINE",
"358 42 LINE",
"246 51 LINE",
"246 480 LINE",
"393 480 LINE",
"393 546 LINE",
"246 546 LINE",
"246 627 LINE SMOOTH",
"246 738 OFFCURVE",
"280 749 OFFCURVE",
"333 749 CURVE SMOOTH",
"379 749 OFFCURVE",
"413 739 OFFCURVE",
"422 733 CURVE",
"422 816 LINE",
"415 820 OFFCURVE",
"396 825 OFFCURVE",
"352 825 CURVE SMOOTH",
"270 825 OFFCURVE",
"152 732 OFFCURVE",
"152 587 CURVE SMOOTH",
"152 546 LINE",
"44 518 LINE",
"44 480 LINE",
"152 480 LINE",
"152 52 LINE",
"54 42 LINE"
);
}
);
width = 409;
}
);
unicode = 0066;
},
{
glyphname = g;
lastChange = "2014-09-14 16:18:16 +0100";
layers = (
{
layerId = "E777F328-EA17-4AE7-9EBA-8002E537BA4F";
name = Light;
paths = (
{
closed = 1;
nodes = (
"180 564 OFFCURVE",
"70 501 OFFCURVE",
"70 368 CURVE SMOOTH",
"70 294 OFFCURVE",
"103 244 OFFCURVE",
"155 215 CURVE",
"117 180 OFFCURVE",
"97 126 OFFCURVE",
"97 101 CURVE SMOOTH",
"97 75 OFFCURVE",
"96 39 OFFCURVE",
"146 20 CURVE",
"112 -1 OFFCURVE",
"62 -54 OFFCURVE",
"62 -117 CURVE SMOOTH",
"62 -225 OFFCURVE",
"177 -259 OFFCURVE",
"300 -259 CURVE SMOOTH",
"450 -259 OFFCURVE",
"553 -191 OFFCURVE",
"553 -80 CURVE SMOOTH",
"553 -23 OFFCURVE",
"540 62 OFFCURVE",
"358 62 CURVE SMOOTH",
"320 62 OFFCURVE",
"254 61 OFFCURVE",
"235 63 CURVE",
"181 66 OFFCURVE",
"161 83 OFFCURVE",
"161 128 CURVE SMOOTH",
"161 147 OFFCURVE",
"164 181 OFFCURVE",
"178 204 CURVE",
"208 192 OFFCURVE",
"242 186 OFFCURVE",
"281 186 CURVE SMOOTH",
"396 186 OFFCURVE",
"498 258 OFFCURVE",
"498 386 CURVE SMOOTH",
"498 433 OFFCURVE",
"486 469 OFFCURVE",
"466 497 CURVE",
"512 497 OFFCURVE",
"571 496 OFFCURVE",
"574 496 CURVE",
"574 553 LINE",
"516 553 LINE SMOOTH",
"471 553 OFFCURVE",
"444 544 OFFCURVE",
"430 531 CURVE",
"393 557 OFFCURVE",
"345 568 OFFCURVE",
"292 567 CURVE SMOOTH"
);
},
{
closed = 1;
nodes = (
"197 6 OFFCURVE",
"225 3 OFFCURVE",
"261 3 CURVE SMOOTH",
"344 3 LINE SMOOTH",
"473 1 OFFCURVE",
"496 -39 OFFCURVE",
"496 -98 CURVE SMOOTH",
"496 -181 OFFCURVE",
"413 -216 OFFCURVE",
"310 -216 CURVE SMOOTH",
"231 -216 OFFCURVE",
"131 -193 OFFCURVE",
"131 -94 CURVE SMOOTH",
"131 -42 OFFCURVE",
"152 -10 OFFCURVE",
"175 11 CURVE"
);
},
{
closed = 1;
nodes = (
"378 527 OFFCURVE",
"429 479 OFFCURVE",
"429 374 CURVE SMOOTH",
"429 274 OFFCURVE",
"377 227 OFFCURVE",
"293 227 CURVE SMOOTH",
"188 227 OFFCURVE",
"139 292 OFFCURVE",
"139 380 CURVE SMOOTH",
"139 487 OFFCURVE",
"205 527 OFFCURVE",
"281 527 CURVE SMOOTH"
);
}
);
width = 587;
},
{
layerId = "39185045-6A8C-415A-8312-7B8F11386A4C";
name = Regular;
paths = (
{
closed = 1;
nodes = (
"184 564 OFFCURVE",
"71 503 OFFCURVE",
"71 368 CURVE SMOOTH",
"71 297 OFFCURVE",
"102 249 OFFCURVE",
"150 219 CURVE",
"111 184 OFFCURVE",
"90 127 OFFCURVE",
"90 104 CURVE SMOOTH",
"90 76 OFFCURVE",
"86 40 OFFCURVE",
"145 19 CURVE",
"110 -3 OFFCURVE",
"62 -54 OFFCURVE",
"62 -114 CURVE SMOOTH",
"62 -226 OFFCURVE",
"181 -259 OFFCURVE",
"298 -259 CURVE SMOOTH",
"459 -259 OFFCURVE",
"555 -185 OFFCURVE",
"555 -73 CURVE SMOOTH",
"555 -11 OFFCURVE",
"545 80 OFFCURVE",
"362 80 CURVE SMOOTH",
"306 80 OFFCURVE",
"266 80 OFFCURVE",
"236 83 CURVE SMOOTH",
"190 86 OFFCURVE",
"174 106 OFFCURVE",
"174 141 CURVE SMOOTH",
"174 154 OFFCURVE",
"171 183 OFFCURVE",
"179 204 CURVE",
"209 192 OFFCURVE",
"244 186 OFFCURVE",
"282 186 CURVE SMOOTH",
"397 186 OFFCURVE",
"500 257 OFFCURVE",
"500 386 CURVE SMOOTH",
"500 423 OFFCURVE",
"492 455 OFFCURVE",
"478 479 CURVE",
"510 479 OFFCURVE",
"542 479 OFFCURVE",
"574 479 CURVE",
"574 553 LINE",
"515 553 LINE SMOOTH",
"473 553 OFFCURVE",
"449 543 OFFCURVE",
"436 528 CURVE",
"399 556 OFFCURVE",
"349 568 OFFCURVE",
"294 567 CURVE SMOOTH"
);
},
{
closed = 1;
nodes = (
"206 5 OFFCURVE",
"236 3 OFFCURVE",
"274 3 CURVE SMOOTH",
"336 2 LINE SMOOTH",
"457 2 OFFCURVE",
"479 -34 OFFCURVE",
"479 -97 CURVE SMOOTH",
"479 -169 OFFCURVE",
"415 -204 OFFCURVE",
"310 -204 CURVE SMOOTH",
"226 -204 OFFCURVE",
"153 -171 OFFCURVE",
"153 -83 CURVE SMOOTH",
"153 -35 OFFCURVE",
"167 -9 OFFCURVE",
"182 9 CURVE"
);
},
{
closed = 1;
nodes = (
"365 516 OFFCURVE",
"406 470 OFFCURVE",
"406 373 CURVE SMOOTH",
"406 283 OFFCURVE",
"377 238 OFFCURVE",
"296 238 CURVE SMOOTH",
"202 238 OFFCURVE",
"165 306 OFFCURVE",
"165 387 CURVE SMOOTH",
"165 485 OFFCURVE",
"216 516 OFFCURVE",
"281 516 CURVE SMOOTH"
);
}
);
width = 587;
}
);
leftKerningGroup = o;
unicode = 0067;
},
{
glyphname = h;
lastChange = "2014-09-14 11:46:27 +0100";
layers = (
{
layerId = "E777F328-EA17-4AE7-9EBA-8002E537BA4F";
name = Light;
paths = (
{
closed = 1;
nodes = (
"64 0 LINE",
"285 0 LINE",
"285 33 LINE",
"208 42 LINE",
"208 449 LINE",
"254 481 OFFCURVE",
"328 503 OFFCURVE",
"377 503 CURVE SMOOTH",
"485 503 OFFCURVE",
"504 436 OFFCURVE",
"504 268 CURVE SMOOTH",
"504 42 LINE",
"423 33 LINE",
"423 0 LINE",
"650 0 LINE",
"650 33 LINE",
"575 42 LINE",
"575 296 LINE SMOOTH",
"576 486 OFFCURVE",
"541 558 OFFCURVE",
"408 558 CURVE SMOOTH",
"354 558 OFFCURVE",
"264 524 OFFCURVE",
"207 480 CURVE",
"208 552 LINE",
"208 782 LINE",
"189 792 LINE",
"55 776 LINE",
"55 742 LINE",
"138 730 LINE",
"138 42 LINE",
"64 33 LINE"
);
}
);
width = 686;
},
{
layerId = "39185045-6A8C-415A-8312-7B8F11386A4C";
name = Regular;
paths = (
{
closed = 1;
nodes = (
"61 0 LINE",
"299 0 LINE",
"299 42 LINE",
"228 52 LINE",
"228 444 LINE",
"273 476 OFFCURVE",
"327 485 OFFCURVE",
"370 485 CURVE SMOOTH",
"478 485 OFFCURVE",
"485 406 OFFCURVE",
"485 255 CURVE SMOOTH",
"485 52 LINE",
"403 42 LINE",
"403 0 LINE",
"652 0 LINE",
"652 42 LINE",
"579 52 LINE",
"579 296 LINE SMOOTH",
"580 478 OFFCURVE",
"548 556 OFFCURVE",
"416 556 CURVE SMOOTH",
"364 556 OFFCURVE",
"282 528 OFFCURVE",
"225 482 CURVE",
"227 566 LINE",
"228 782 LINE",
"205 793 LINE",
"50 773 LINE",
"50 730 LINE",
"134 713 LINE",
"134 52 LINE",
"61 42 LINE"
);
}
);
width = 686;
}
);
unicode = 0068;
},
{
glyphname = hbar;
lastChange = "2014-09-14 11:46:27 +0100";
layers = (
{
layerId = "E777F328-EA17-4AE7-9EBA-8002E537BA4F";
name = Light;
paths = (
{
closed = 1;
nodes = (
"64 0 LINE",
"285 0 LINE",
"285 33 LINE",
"208 42 LINE",
"208 449 LINE",
"254 481 OFFCURVE",
"328 503 OFFCURVE",
"377 503 CURVE SMOOTH",
"485 503 OFFCURVE",
"504 436 OFFCURVE",
"504 268 CURVE SMOOTH",
"504 42 LINE",
"423 33 LINE",
"423 0 LINE",
"650 0 LINE",
"650 33 LINE",
"575 42 LINE",
"575 296 LINE SMOOTH",
"576 486 OFFCURVE",
"541 558 OFFCURVE",
"408 558 CURVE SMOOTH",
"354 558 OFFCURVE",
"264 524 OFFCURVE",
"207 480 CURVE",
"208 552 LINE",
"208 602 LINE",
"311 602 LINE",
"311 647 LINE",
"208 647 LINE",
"208 782 LINE",
"189 792 LINE",
"55 776 LINE",
"55 742 LINE",
"138 730 LINE",
"138 647 LINE",
"51 647 LINE",
"51 602 LINE",
"138 602 LINE",
"138 42 LINE",
"64 33 LINE"
);
}
);
width = 686;
},
{
layerId = "39185045-6A8C-415A-8312-7B8F11386A4C";
name = Regular;
paths = (
{
closed = 1;
nodes = (
"61 0 LINE",
"299 0 LINE",
"299 42 LINE",
"228 52 LINE",
"228 444 LINE",
"273 476 OFFCURVE",
"327 485 OFFCURVE",
"370 485 CURVE SMOOTH",
"478 485 OFFCURVE",
"485 406 OFFCURVE",
"485 255 CURVE SMOOTH",
"485 52 LINE",
"403 42 LINE",
"403 0 LINE",
"652 0 LINE",
"652 42 LINE",
"579 52 LINE",
"579 296 LINE SMOOTH",
"580 478 OFFCURVE",
"548 556 OFFCURVE",
"416 556 CURVE SMOOTH",
"364 556 OFFCURVE",
"282 528 OFFCURVE",
"225 482 CURVE",
"227 566 LINE",
"227 594 LINE",
"313 594 LINE",
"313 651 LINE",
"227 651 LINE",
"228 782 LINE",
"205 793 LINE",
"50 773 LINE",
"50 730 LINE",
"134 713 LINE",
"134 651 LINE",
"53 651 LINE",
"53 594 LINE",
"134 594 LINE",
"134 52 LINE",
"61 42 LINE"
);
}
);
width = 686;
}
);
unicode = 0127;
},
{
glyphname = i;
lastChange = "2014-09-14 16:18:24 +0100";
layers = (
{
layerId = "E777F328-EA17-4AE7-9EBA-8002E537BA4F";
name = Light;
paths = (
{
closed = 1;
nodes = (
"79 523 LINE",
"79 499 LINE",
"149 474 LINE",
"149 41 LINE",
"68 33 LINE",
"68 0 LINE",
"298 0 LINE",
"298 33 LINE",
"217 42 LINE",
"217 544 LINE",
"198 553 LINE"
);
},
{
closed = 1;
nodes = (
"147 794 OFFCURVE",
"118 771 OFFCURVE",
"118 738 CURVE SMOOTH",
"118 709 OFFCURVE",
"141 691 OFFCURVE",
"166 691 CURVE SMOOTH",
"195 691 OFFCURVE",
"224 713 OFFCURVE",
"224 747 CURVE SMOOTH",
"224 773 OFFCURVE",
"208 794 OFFCURVE",
"175 794 CURVE SMOOTH"
);
}
);
width = 333;
},
{
layerId = "39185045-6A8C-415A-8312-7B8F11386A4C";
name = Regular;
paths = (
{
closed = 1;
nodes = (
"70 518 LINE",
"70 487 LINE",
"138 452 LINE",
"138 52 LINE",
"55 42 LINE",
"55 0 LINE",
"307 0 LINE",
"307 42 LINE",
"228 52 LINE",
"228 546 LINE",
"206 556 LINE"
);
},
{
closed = 1;
nodes = (
"139 803 OFFCURVE",
"101 772 OFFCURVE",
"101 731 CURVE SMOOTH",
"101 694 OFFCURVE",
"131 671 OFFCURVE",
"163 671 CURVE SMOOTH",
"199 671 OFFCURVE",
"236 699 OFFCURVE",
"236 742 CURVE SMOOTH",
"236 775 OFFCURVE",
"217 803 OFFCURVE",
"174 803 CURVE SMOOTH"
);
}
);
width = 333;
}
);
leftKerningGroup = i;
unicode = 0069;
},
{
glyphname = idotless;
lastChange = "2014-09-14 11:46:27 +0100";
layers = (
{
layerId = "E777F328-EA17-4AE7-9EBA-8002E537BA4F";
name = Light;
paths = (
{
closed = 1;
nodes = (
"68 0 LINE",
"298 0 LINE",
"298 33 LINE",
"217 42 LINE",
"217 544 LINE",
"198 553 LINE",
"79 523 LINE",
"79 499 LINE",
"149 474 LINE",
"149 41 LINE",
"68 33 LINE"
);
}
);
width = 333;
},
{
layerId = "39185045-6A8C-415A-8312-7B8F11386A4C";
name = Regular;
paths = (
{
closed = 1;
nodes = (
"55 0 LINE",
"307 0 LINE",
"307 42 LINE",
"228 52 LINE",
"228 546 LINE",
"206 556 LINE",
"70 518 LINE",
"70 487 LINE",
"138 452 LINE",
"138 52 LINE",
"55 42 LINE"
);
}
);
width = 333;
}
);
unicode = 0131;
},
{
glyphname = iacute;
lastChange = "2014-09-14 11:46:27 +0100";
layers = (
{
layerId = "E777F328-EA17-4AE7-9EBA-8002E537BA4F";
name = Light;
paths = (
{
closed = 1;
nodes = (
"140 656 LINE",
"200 696 OFFCURVE",
"292 764 OFFCURVE",
"324 811 CURVE",
"272 864 LINE",
"119 677 LINE"
);
},
{
closed = 1;
nodes = (
"68 0 LINE",
"298 0 LINE",
"298 33 LINE",
"217 42 LINE",
"217 544 LINE",
"198 553 LINE",
"79 523 LINE",
"79 499 LINE",
"149 474 LINE",
"149 41 LINE",
"68 33 LINE"
);
}
);
width = 333;
},
{
layerId = "39185045-6A8C-415A-8312-7B8F11386A4C";
name = Regular;
paths = (
{
closed = 1;
nodes = (
"128 654 LINE",
"182 679 OFFCURVE",
"278 736 OFFCURVE",
"317 796 CURVE",
"246 869 LINE",
"103 681 LINE"
);
},
{
closed = 1;
nodes = (
"55 0 LINE",
"307 0 LINE",
"307 42 LINE",
"228 52 LINE",
"228 546 LINE",
"206 556 LINE",
"70 518 LINE",
"70 487 LINE",
"138 452 LINE",
"138 52 LINE",
"55 42 LINE"
);
}
);
width = 333;
}
);
unicode = 00ED;
},
{
glyphname = icircumflex;
lastChange = "2014-09-14 11:46:27 +0100";
layers = (
{
layerId = "E777F328-EA17-4AE7-9EBA-8002E537BA4F";
name = Light;
paths = (
{
closed = 1;
nodes = (
"35 653 LINE",
"177 802 LINE",
"312 653 LINE",
"345 671 LINE",
"212 865 LINE",
"143 865 LINE",
"5 670 LINE"
);
},
{
closed = 1;
nodes = (
"68 0 LINE",
"298 0 LINE",
"298 33 LINE",
"217 42 LINE",
"217 544 LINE",
"198 553 LINE",
"79 523 LINE",
"79 499 LINE",
"149 474 LINE",
"149 41 LINE",
"68 33 LINE"
);
}
);
width = 333;
},
{
layerId = "39185045-6A8C-415A-8312-7B8F11386A4C";
name = Regular;
paths = (
{
closed = 1;
nodes = (
"31 652 LINE",
"173 783 LINE",
"306 652 LINE",
"348 675 LINE",
"220 867 LINE",
"127 867 LINE",
"-6 674 LINE"
);
},
{
closed = 1;
nodes = (
"55 0 LINE",
"307 0 LINE",
"307 42 LINE",
"228 52 LINE",
"228 546 LINE",
"206 556 LINE",
"70 518 LINE",
"70 487 LINE",
"138 452 LINE",
"138 52 LINE",
"55 42 LINE"
);
}
);
width = 333;
}
);
unicode = 00EE;
},
{
glyphname = idieresis;
lastChange = "2014-09-14 16:23:58 +0100";
layers = (
{
layerId = "E777F328-EA17-4AE7-9EBA-8002E537BA4F";
name = Light;
paths = (
{
closed = 1;
nodes = (
"79 523 LINE",
"79 499 LINE",
"149 474 LINE",
"149 41 LINE",
"68 33 LINE",
"68 0 LINE",
"298 0 LINE",
"298 33 LINE",
"217 42 LINE",
"217 544 LINE",
"198 553 LINE"
);
},
{
closed = 1;
nodes = (
"41 795 OFFCURVE",
"12 771 OFFCURVE",
"12 741 CURVE SMOOTH",
"12 712 OFFCURVE",
"34 696 OFFCURVE",
"60 696 CURVE SMOOTH",
"88 696 OFFCURVE",
"117 716 OFFCURVE",
"117 749 CURVE SMOOTH",
"117 774 OFFCURVE",
"102 795 OFFCURVE",
"68 795 CURVE SMOOTH"
);
},
{
closed = 1;
nodes = (
"263 795 OFFCURVE",
"234 771 OFFCURVE",
"234 741 CURVE SMOOTH",
"234 712 OFFCURVE",
"256 696 OFFCURVE",
"282 696 CURVE SMOOTH",
"311 696 OFFCURVE",
"339 716 OFFCURVE",
"339 749 CURVE SMOOTH",
"339 774 OFFCURVE",
"324 795 OFFCURVE",
"291 795 CURVE SMOOTH"
);
}
);
width = 333;
},
{
layerId = "39185045-6A8C-415A-8312-7B8F11386A4C";
name = Regular;
paths = (
{
closed = 1;
nodes = (
"70 518 LINE",
"70 487 LINE",
"138 452 LINE",
"138 52 LINE",
"55 42 LINE",
"55 0 LINE",
"307 0 LINE",
"307 42 LINE",
"228 52 LINE",
"228 546 LINE",
"206 556 LINE"
);
},
{
closed = 1;
nodes = (
"30 804 OFFCURVE",
"-7 774 OFFCURVE",
"-7 733 CURVE SMOOTH",
"-7 696 OFFCURVE",
"21 675 OFFCURVE",
"53 675 CURVE SMOOTH",
"90 675 OFFCURVE",
"126 701 OFFCURVE",
"126 744 CURVE SMOOTH",
"126 777 OFFCURVE",
"107 804 OFFCURVE",
"64 804 CURVE SMOOTH"
);
},
{
closed = 1;
nodes = (
"257 804 OFFCURVE",
"220 774 OFFCURVE",
"220 733 CURVE SMOOTH",
"220 696 OFFCURVE",
"249 675 OFFCURVE",
"281 675 CURVE SMOOTH",
"317 675 OFFCURVE",
"354 701 OFFCURVE",
"354 744 CURVE SMOOTH",
"354 777 OFFCURVE",
"335 804 OFFCURVE",
"292 804 CURVE SMOOTH"
);
}
);
width = 333;
}
);
unicode = 00EF;
},
{
glyphname = igrave;
lastChange = "2014-09-14 11:46:27 +0100";
layers = (
{
layerId = "E777F328-EA17-4AE7-9EBA-8002E537BA4F";
name = Light;
paths = (
{
closed = 1;
nodes = (
"246 677 LINE",
"93 864 LINE",
"41 811 LINE",
"74 762 OFFCURVE",
"166 696 OFFCURVE",
"225 656 CURVE"
);
},
{
closed = 1;
nodes = (
"68 0 LINE",
"298 0 LINE",
"298 33 LINE",
"217 42 LINE",
"217 544 LINE",
"198 553 LINE",
"79 523 LINE",
"79 499 LINE",
"149 474 LINE",
"149 41 LINE",
"68 33 LINE"
);
}
);
width = 333;
},
{
layerId = "39185045-6A8C-415A-8312-7B8F11386A4C";
name = Regular;
paths = (
{
closed = 1;
nodes = (
"260 681 LINE",
"116 869 LINE",
"45 796 LINE",
"84 736 OFFCURVE",
"181 679 OFFCURVE",
"234 654 CURVE"
);
},
{
closed = 1;
nodes = (
"55 0 LINE",
"307 0 LINE",
"307 42 LINE",
"228 52 LINE",
"228 546 LINE",
"206 556 LINE",
"70 518 LINE",
"70 487 LINE",
"138 452 LINE",
"138 52 LINE",
"55 42 LINE"
);
}
);
width = 333;
}
);
unicode = 00EC;
},
{
glyphname = ij;
lastChange = "2014-09-14 16:31:25 +0100";
layers = (
{
layerId = "E777F328-EA17-4AE7-9EBA-8002E537BA4F";
name = Light;
paths = (
{
closed = 1;
nodes = (
"408 523 LINE",
"408 499 LINE",
"481 474 LINE",
"481 -1 LINE SMOOTH",
"481 -156 OFFCURVE",
"445 -198 OFFCURVE",
"382 -198 CURVE SMOOTH",
"371 -198 OFFCURVE",
"339 -197 OFFCURVE",
"329 -193 CURVE",
"329 -244 LINE",
"334 -249 OFFCURVE",
"368 -251 OFFCURVE",
"382 -251 CURVE SMOOTH",
"489 -251 OFFCURVE",
"550 -160 OFFCURVE",
"550 -8 CURVE SMOOTH",
"550 544 LINE",
"532 553 LINE"
);
},
{
closed = 1;
nodes = (
"79 523 LINE",
"79 499 LINE",
"149 474 LINE",
"149 41 LINE",
"68 33 LINE",
"68 0 LINE",
"298 0 LINE",
"298 33 LINE",
"217 42 LINE",
"217 544 LINE",
"198 553 LINE"
);
},
{
closed = 1;
nodes = (
"147 794 OFFCURVE",
"118 771 OFFCURVE",
"118 738 CURVE SMOOTH",
"118 709 OFFCURVE",
"141 691 OFFCURVE",
"166 691 CURVE SMOOTH",
"195 691 OFFCURVE",
"224 713 OFFCURVE",
"224 747 CURVE SMOOTH",
"224 773 OFFCURVE",
"208 794 OFFCURVE",
"175 794 CURVE SMOOTH"
);
},
{
closed = 1;
nodes = (
"479 791 OFFCURVE",
"450 768 OFFCURVE",
"450 735 CURVE SMOOTH",
"450 705 OFFCURVE",
"473 688 OFFCURVE",
"498 688 CURVE SMOOTH",
"527 688 OFFCURVE",
"556 709 OFFCURVE",
"556 743 CURVE SMOOTH",
"556 770 OFFCURVE",
"541 791 OFFCURVE",
"507 791 CURVE SMOOTH"
);
}
);
width = 650;
},
{
layerId = "39185045-6A8C-415A-8312-7B8F11386A4C";
name = Regular;
paths = (
{
closed = 1;
nodes = (
"400 517 LINE",
"400 488 LINE",
"468 452 LINE",
"468 -1 LINE SMOOTH",
"468 -138 OFFCURVE",
"446 -182 OFFCURVE",
"383 -182 CURVE SMOOTH",
"372 -182 OFFCURVE",
"340 -181 OFFCURVE",
"329 -177 CURVE",
"329 -244 LINE",
"335 -249 OFFCURVE",
"369 -251 OFFCURVE",
"382 -251 CURVE SMOOTH",
"490 -251 OFFCURVE",
"560 -160 OFFCURVE",
"560 -8 CURVE SMOOTH",
"560 546 LINE",
"537 556 LINE"
);
},
{
closed = 1;
nodes = (
"70 518 LINE",
"70 487 LINE",
"138 452 LINE",
"138 52 LINE",
"55 42 LINE",
"55 0 LINE",
"307 0 LINE",
"307 42 LINE",
"228 52 LINE",
"228 546 LINE",
"206 556 LINE"
);
},
{
closed = 1;
nodes = (
"139 803 OFFCURVE",
"101 772 OFFCURVE",
"101 731 CURVE SMOOTH",
"101 694 OFFCURVE",
"131 671 OFFCURVE",
"163 671 CURVE SMOOTH",
"199 671 OFFCURVE",
"236 699 OFFCURVE",
"236 742 CURVE SMOOTH",
"236 775 OFFCURVE",
"217 803 OFFCURVE",
"174 803 CURVE SMOOTH"
);
},
{
closed = 1;
nodes = (
"469 817 OFFCURVE",
"431 787 OFFCURVE",
"431 746 CURVE SMOOTH",
"431 708 OFFCURVE",
"461 686 OFFCURVE",
"493 686 CURVE SMOOTH",
"529 686 OFFCURVE",
"566 713 OFFCURVE",
"566 756 CURVE SMOOTH",
"566 790 OFFCURVE",
"547 817 OFFCURVE",
"504 817 CURVE SMOOTH"
);
}
);
width = 651;
}
);
unicode = 0133;
},
{
glyphname = itilde;
lastChange = "2014-09-14 11:46:27 +0100";
layers = (
{
layerId = "E777F328-EA17-4AE7-9EBA-8002E537BA4F";
name = Light;
paths = (
{
closed = 1;
nodes = (
"4 703 LINE",
"26 727 OFFCURVE",
"56 755 OFFCURVE",
"98 755 CURVE SMOOTH",
"148 755 OFFCURVE",
"171 681 OFFCURVE",
"234 681 CURVE SMOOTH",
"286 681 OFFCURVE",
"338 719 OFFCURVE",
"362 761 CURVE",
"342 790 LINE",
"320 766 OFFCURVE",
"289 738 OFFCURVE",
"248 738 CURVE SMOOTH",
"199 738 OFFCURVE",
"175 812 OFFCURVE",
"113 812 CURVE SMOOTH",
"61 812 OFFCURVE",
"8 774 OFFCURVE",
"-17 731 CURVE"
);
},
{
closed = 1;
nodes = (
"68 0 LINE",
"298 0 LINE",
"298 33 LINE",
"217 42 LINE",
"217 544 LINE",
"198 553 LINE",
"79 523 LINE",
"79 499 LINE",
"149 474 LINE",
"149 41 LINE",
"68 33 LINE"
);
}
);
width = 333;
},
{
layerId = "39185045-6A8C-415A-8312-7B8F11386A4C";
name = Regular;
paths = (
{
closed = 1;
nodes = (
"4 692 LINE",
"24 712 OFFCURVE",
"56 738 OFFCURVE",
"94 738 CURVE SMOOTH",
"142 738 OFFCURVE",
"157 672 OFFCURVE",
"221 672 CURVE SMOOTH",
"273 672 OFFCURVE",
"332 712 OFFCURVE",
"356 758 CURVE",
"331 793 LINE",
"311 773 OFFCURVE",
"278 747 OFFCURVE",
"241 747 CURVE SMOOTH",
"193 747 OFFCURVE",
"177 813 OFFCURVE",
"114 813 CURVE SMOOTH",
"63 813 OFFCURVE",
"3 772 OFFCURVE",
"-21 728 CURVE"
);
},
{
closed = 1;
nodes = (
"55 0 LINE",
"307 0 LINE",
"307 42 LINE",
"228 52 LINE",
"228 546 LINE",
"206 556 LINE",
"70 518 LINE",
"70 487 LINE",
"138 452 LINE",
"138 52 LINE",
"55 42 LINE"
);
}
);
width = 333;
}
);
unicode = 0129;
},
{
glyphname = j;
lastChange = "2014-09-14 16:18:29 +0100";
layers = (
{
layerId = "E777F328-EA17-4AE7-9EBA-8002E537BA4F";
name = Light;
paths = (
{
closed = 1;
nodes = (
"74 523 LINE",
"74 499 LINE",
"148 474 LINE",
"148 -1 LINE SMOOTH",
"148 -156 OFFCURVE",
"112 -198 OFFCURVE",
"49 -198 CURVE SMOOTH",
"38 -198 OFFCURVE",
"6 -197 OFFCURVE",
"-5 -193 CURVE",
"-5 -244 LINE",
"1 -249 OFFCURVE",
"35 -251 OFFCURVE",
"48 -251 CURVE SMOOTH",
"156 -251 OFFCURVE",
"217 -160 OFFCURVE",
"217 -8 CURVE SMOOTH",
"217 544 LINE",
"198 553 LINE"
);
},
{
closed = 1;
nodes = (
"146 791 OFFCURVE",
"116 768 OFFCURVE",
"116 735 CURVE SMOOTH",
"116 705 OFFCURVE",
"140 688 OFFCURVE",
"165 688 CURVE SMOOTH",
"194 688 OFFCURVE",
"222 709 OFFCURVE",
"222 743 CURVE SMOOTH",
"222 770 OFFCURVE",
"208 791 OFFCURVE",
"174 791 CURVE SMOOTH"
);
}
);
width = 317;
},
{
layerId = "39185045-6A8C-415A-8312-7B8F11386A4C";
name = Regular;
paths = (
{
closed = 1;
nodes = (
"66 517 LINE",
"66 488 LINE",
"134 452 LINE",
"134 -1 LINE SMOOTH",
"134 -138 OFFCURVE",
"112 -182 OFFCURVE",
"49 -182 CURVE SMOOTH",
"38 -182 OFFCURVE",
"6 -181 OFFCURVE",
"-4 -177 CURVE",
"-4 -244 LINE",
"1 -249 OFFCURVE",
"35 -251 OFFCURVE",
"49 -251 CURVE SMOOTH",
"157 -251 OFFCURVE",
"226 -160 OFFCURVE",
"226 -8 CURVE SMOOTH",
"226 546 LINE",
"204 556 LINE"
);
},
{
closed = 1;
nodes = (
"136 817 OFFCURVE",
"98 787 OFFCURVE",
"98 746 CURVE SMOOTH",
"98 708 OFFCURVE",
"127 686 OFFCURVE",
"159 686 CURVE SMOOTH",
"196 686 OFFCURVE",
"232 713 OFFCURVE",
"232 756 CURVE SMOOTH",
"232 790 OFFCURVE",
"213 817 OFFCURVE",
"170 817 CURVE SMOOTH"
);
}
);
width = 317;
}
);
leftKerningGroup = i;
unicode = 006A;
},
{
glyphname = jdotless;
lastChange = "2014-09-14 11:46:27 +0100";
layers = (
{
layerId = "E777F328-EA17-4AE7-9EBA-8002E537BA4F";
name = Light;
paths = (
{
closed = 1;
nodes = (
"148 -1 LINE SMOOTH",
"148 -156 OFFCURVE",
"112 -198 OFFCURVE",
"49 -198 CURVE SMOOTH",
"38 -198 OFFCURVE",
"6 -197 OFFCURVE",
"-5 -193 CURVE",
"-5 -244 LINE",
"1 -249 OFFCURVE",
"35 -251 OFFCURVE",
"48 -251 CURVE SMOOTH",
"156 -251 OFFCURVE",
"217 -160 OFFCURVE",
"217 -8 CURVE SMOOTH",
"217 544 LINE",
"198 553 LINE",
"74 523 LINE",
"74 499 LINE",
"148 474 LINE"
);
}
);
width = 317;
},
{
layerId = "39185045-6A8C-415A-8312-7B8F11386A4C";
name = Regular;
paths = (
{
closed = 1;
nodes = (
"134 -1 LINE SMOOTH",
"134 -138 OFFCURVE",
"112 -182 OFFCURVE",
"49 -182 CURVE SMOOTH",
"38 -182 OFFCURVE",
"6 -181 OFFCURVE",
"-4 -177 CURVE",
"-4 -244 LINE",
"1 -249 OFFCURVE",
"35 -251 OFFCURVE",
"49 -251 CURVE SMOOTH",
"157 -251 OFFCURVE",
"226 -160 OFFCURVE",
"226 -8 CURVE SMOOTH",
"226 546 LINE",
"204 556 LINE",
"66 517 LINE",
"66 488 LINE",
"134 452 LINE"
);
}
);
width = 317;
}
);
unicode = 0237;
},
